<?xml version="1.0" encoding="UTF-8" standalone="no"?>
<!-- Created with Inkscape (http://www.inkscape.org/) -->
<svg
   xmlns:svg="http://www.w3.org/2000/svg"
   xmlns="http://www.w3.org/2000/svg"
   version="1.0"
   x="0.00000000"
   y="0.00000000"
   width="375.00000"
   height="375.00000"
   id="svg2">
  <defs
     id="defs4" />
  <g
     id="layer1">
    <path
       d="M 375.00000,187.22748 C 375.00000,290.57705 291.00000,374.45496 187.50000,374.45496 C 84.000000,374.45496 0.00000000,290.57705 0.00000000,187.22748 C 0.00000000,83.877910 84.000000,2.0788926e-014 187.50000,0.00000000 C 291.00000,-4.1577852e-014 375.00000,83.877910 375.00000,187.22748 z "
       style="fill:#2c292e;fill-opacity:1.0000000;stroke:none;stroke-width:1.6830000;stroke-miterlimit:4.0000000;stroke-opacity:1.0000000"
       id="path1312" />
    <path
       d="M 375.00000,187.22748 C 375.00000,290.57705 291.00000,374.45496 187.50000,374.45496 C 84.000000,374.45496 0.00000000,290.57705 0.00000000,187.22748 C 0.00000000,83.877910 84.000000,2.0788926e-014 187.50000,0.00000000 C 291.00000,-4.1577852e-014 375.00000,83.877910 375.00000,187.22748 z "
       transform="matrix(0.862336,0.000000,0.000000,0.862336,26.66707,26.86453)"
       style="fill:#000000;fill-opacity:1.0000000;stroke:#fff8fc;stroke-width:18.478439;stroke-miterlimit:4.0000000;stroke-opacity:1.0000000"
       id="on" />
  </g>
</svg>
