<?xml version="1.0" encoding="UTF-8" standalone="no"?>
<!-- Created with Inkscape (http://www.inkscape.org/) -->
<svg
   xmlns:dc="http://purl.org/dc/elements/1.1/"
   xmlns:cc="http://web.resource.org/cc/"
   xmlns:rdf="http://www.w3.org/1999/02/22-rdf-syntax-ns#"
   xmlns:svg="http://www.w3.org/2000/svg"
   xmlns="http://www.w3.org/2000/svg"
   xmlns:xlink="http://www.w3.org/1999/xlink"
   xmlns:sodipodi="http://sodipodi.sourceforge.net/DTD/sodipodi-0.dtd"
   xmlns:inkscape="http://www.inkscape.org/namespaces/inkscape"
   width="500.00000px"
   height="500.00000px"
   id="svg2"
   sodipodi:version="0.32"
   inkscape:version="0.44.1"
   sodipodi:docbase="Y:\java\carmelo's exp Lab 3\Distribution\Elements\FrontElements\Output\SVGImage\bin"
   sodipodi:docname="led.svg">
  <defs
     id="defs4">
    <linearGradient
       id="linearGradient2388">
      <stop
         style="stop-color:#ff0f0f;stop-opacity:1;"
         offset="0"
         id="stop2390" />
      <stop
         style="stop-color:#790000;stop-opacity:1.0000000;"
         offset="1.0000000"
         id="stop2392" />
    </linearGradient>
    <linearGradient
       inkscape:collect="always"
       id="linearGradient2352">
      <stop
         style="stop-color:#ffffff;stop-opacity:1;"
         offset="0"
         id="stop2354" />
      <stop
         style="stop-color:#ffffff;stop-opacity:0;"
         offset="1"
         id="stop2356" />
    </linearGradient>
    <linearGradient
       id="linearGradient2342">
      <stop
         style="stop-color:#c98b2b;stop-opacity:0.0000000;"
         offset="0.0000000"
         id="stop2344" />
      <stop
         style="stop-color:#c98b2b;stop-opacity:1.0000000;"
         offset="1.0000000"
         id="stop2346" />
    </linearGradient>
    <linearGradient
       id="linearGradient2331">
      <stop
         style="stop-color:#fdfdfd;stop-opacity:1;"
         offset="0"
         id="stop2333" />
      <stop
         style="stop-color:#dcdcdc;stop-opacity:1.0000000;"
         offset="1.0000000"
         id="stop2335" />
    </linearGradient>
    <radialGradient
       inkscape:collect="always"
       xlink:href="#linearGradient2331"
       id="radialGradient1390"
       gradientUnits="userSpaceOnUse"
       gradientTransform="matrix(1.297868,0,0,0.880487,-101.9489,50.30802)"
       spreadMethod="reflect"
       cx="337.75723"
       cy="307.01065"
       fx="337.75723"
       fy="307.01065"
       r="196.42906" />
    <radialGradient
       inkscape:collect="always"
       xlink:href="#linearGradient2352"
       id="radialGradient1392"
       gradientUnits="userSpaceOnUse"
       gradientTransform="matrix(1.391637,0,0,0.962287,-237.8279,-81.51627)"
       spreadMethod="reflect"
       cx="455.35910"
       cy="387.82999"
       fx="455.35910"
       fy="387.82999"
       r="196.42906" />
    <radialGradient
       inkscape:collect="always"
       xlink:href="#linearGradient2342"
       id="radialGradient1394"
       gradientUnits="userSpaceOnUse"
       gradientTransform="matrix(1.262588,0,0,1.313543,-56.5713,-74.94638)"
       cx="215.43732"
       cy="234.51016"
       fx="215.43732"
       fy="234.51016"
       r="122.48233" />
    <linearGradient
       inkscape:collect="always"
       xlink:href="#linearGradient2388"
       id="linearGradient1396"
       gradientUnits="userSpaceOnUse"
       x1="318.66293"
       y1="450.35132"
       x2="318.66293"
       y2="252.35132" />
    <radialGradient
       inkscape:collect="always"
       xlink:href="#linearGradient2331"
       id="radialGradient1398"
       gradientUnits="userSpaceOnUse"
       gradientTransform="matrix(0.288843,0.155644,-0.104765,0.194421,235.7517,94.33565)"
       spreadMethod="reflect"
       cx="366.73050"
       cy="622.25092"
       fx="366.73050"
       fy="622.25092"
       r="196.42906" />
    <radialGradient
       inkscape:collect="always"
       xlink:href="#linearGradient2331"
       id="radialGradient1400"
       gradientUnits="userSpaceOnUse"
       gradientTransform="matrix(4.960358e-3,0.437112,-0.33224,3.770389e-3,477.5884,192.054)"
       spreadMethod="reflect"
       cx="209.01430"
       cy="388.04880"
       fx="209.01430"
       fy="388.04880"
       r="196.42906" />
    <linearGradient
       inkscape:collect="always"
       xlink:href="#linearGradient2352"
       id="linearGradient1402"
       gradientUnits="userSpaceOnUse"
       x1="229.47342"
       y1="173.93208"
       x2="236.78149"
       y2="173.93208" />
    <linearGradient
       inkscape:collect="always"
       xlink:href="#linearGradient2352"
       id="linearGradient1404"
       gradientUnits="userSpaceOnUse"
       x1="229.47342"
       y1="173.93208"
       x2="236.78149"
       y2="173.93208" />
    <linearGradient
       inkscape:collect="always"
       xlink:href="#linearGradient2352"
       id="linearGradient1406"
       gradientUnits="userSpaceOnUse"
       x1="379.02084"
       y1="365.81250"
       x2="383.99304"
       y2="288.24133" />
    <linearGradient
       inkscape:collect="always"
       xlink:href="#linearGradient2352"
       id="linearGradient1925"
       gradientUnits="userSpaceOnUse"
       x1="379.02084"
       y1="365.81250"
       x2="383.99304"
       y2="288.24133"
       gradientTransform="matrix(0.924795,0,0,0.924795,-81.16829,-78.79786)" />
    <radialGradient
       inkscape:collect="always"
       xlink:href="#linearGradient2331"
       id="radialGradient1931"
       gradientUnits="userSpaceOnUse"
       gradientTransform="matrix(4.587314e-3,0.404239,-0.307254,3.486837e-3,360.5031,98.81272)"
       spreadMethod="reflect"
       cx="209.01430"
       cy="388.04880"
       fx="209.01430"
       fy="388.04880"
       r="196.42906" />
    <radialGradient
       inkscape:collect="always"
       xlink:href="#linearGradient2331"
       id="radialGradient1935"
       gradientUnits="userSpaceOnUse"
       gradientTransform="matrix(0.267121,0.143939,-9.688615e-2,0.1798,136.8537,8.443277)"
       spreadMethod="reflect"
       cx="366.73050"
       cy="622.25092"
       fx="366.73050"
       fy="622.25092"
       r="196.42906" />
    <linearGradient
       inkscape:collect="always"
       xlink:href="#linearGradient2388"
       id="linearGradient1941"
       gradientUnits="userSpaceOnUse"
       x1="318.66293"
       y1="450.35132"
       x2="318.66293"
       y2="252.35132"
       gradientTransform="matrix(0.924795,0,0,0.924795,-81.16829,-78.79786)" />
    <radialGradient
       inkscape:collect="always"
       xlink:href="#linearGradient2342"
       id="radialGradient1944"
       gradientUnits="userSpaceOnUse"
       gradientTransform="matrix(1.167635,0,0,1.214758,-133.4851,-148.1079)"
       cx="215.43732"
       cy="234.51016"
       fx="215.43732"
       fy="234.51016"
       r="122.48233" />
    <radialGradient
       inkscape:collect="always"
       xlink:href="#linearGradient2352"
       id="radialGradient1949"
       gradientUnits="userSpaceOnUse"
       gradientTransform="matrix(1.286979,0,0,0.889918,-301.1103,-154.1837)"
       spreadMethod="reflect"
       cx="455.35910"
       cy="387.82999"
       fx="455.35910"
       fy="387.82999"
       r="196.42906" />
    <radialGradient
       inkscape:collect="always"
       xlink:href="#linearGradient2331"
       id="radialGradient1952"
       gradientUnits="userSpaceOnUse"
       gradientTransform="matrix(1.200262,0,0,0.81427,-175.4501,-32.27325)"
       spreadMethod="reflect"
       cx="337.75723"
       cy="307.01065"
       fx="337.75723"
       fy="307.01065"
       r="196.42906" />
  </defs>
  <sodipodi:namedview
     id="base"
     pagecolor="#ffffff"
     bordercolor="#666666"
     borderopacity="1.0"
     inkscape:pageopacity="0.0"
     inkscape:pageshadow="2"
     inkscape:zoom="0.688"
     inkscape:cx="250"
     inkscape:cy="159.40494"
     inkscape:document-units="px"
     inkscape:current-layer="layer1"
     inkscape:window-width="925"
     inkscape:window-height="573"
     inkscape:window-x="36"
     inkscape:window-y="54" />
  <metadata
     id="metadata7">
    <rdf:RDF>
      <cc:Work
         rdf:about="">
        <dc:format>image/svg+xml</dc:format>
        <dc:type
           rdf:resource="http://purl.org/dc/dcmitype/StillImage" />
      </cc:Work>
    </rdf:RDF>
  </metadata>
  <g
     inkscape:label="Layer 1"
     inkscape:groupmode="layer"
     id="layer1">
    <path
       style="color:black;fill:black;fill-opacity:1;fill-rule:evenodd;stroke:none;stroke-width:0.5;stroke-linecap:round;stroke-linejoin:round;stroke-miterlimit:4;stroke-dashoffset:0;stroke-opacity:1;marker:none;marker-start:none;marker-mid:none;marker-end:none;visibility:visible;display:inline;overflow:visible"
       d="M 326.44373,346.8891 L 349.38404,346.8891 L 349.38404,440.13038 L 326.44373,440.13038 L 326.44373,346.8891 z "
       id="rect2323" />
    <path
       style="color:black;fill:black;fill-opacity:1;fill-rule:evenodd;stroke:none;stroke-width:0.5;stroke-linecap:round;stroke-linejoin:round;stroke-miterlimit:4;stroke-dashoffset:0;stroke-opacity:1;marker:none;marker-start:none;marker-mid:none;marker-end:none;visibility:visible;display:inline;overflow:visible"
       d="M 370.8443,364.64923 L 393.78462,364.64923 L 393.78462,457.89051 L 370.8443,457.89051 L 370.8443,364.64923 z "
       id="rect2325" />
    <path
       style="color:black;fill:black;fill-opacity:1;fill-rule:evenodd;stroke:none;stroke-width:0.5;stroke-linecap:round;stroke-linejoin:round;stroke-miterlimit:4;stroke-dashoffset:0;stroke-opacity:1;marker:none;marker-start:none;marker-mid:none;marker-end:none;visibility:visible;display:inline;overflow:visible"
       d="M 335.3065,414.44707 C 320.80526,414.44707 312.12631,415.96905 309.04819,438.38739 C 307.69718,448.2272 310.41505,454.27338 314.95179,457.83662 C 315.86539,453.73519 318.23056,444.89537 319.80505,442.08164 C 321.27385,452.77012 318.3116,454.97914 319.84126,460.51677 C 325.21503,462.41093 331.69853,462.30538 337.62446,460.80654 C 352.89836,456.94323 361.56478,459.39258 361.56478,438.38739 C 361.56478,417.42486 349.80771,414.4471 335.3065,414.44707 z "
       id="path2327" />
    <path
       style="color:black;fill:black;fill-opacity:1;fill-rule:evenodd;stroke:none;stroke-width:0.5;stroke-linecap:round;stroke-linejoin:round;stroke-miterlimit:4;stroke-dashoffset:0;stroke-opacity:1;marker:none;marker-start:none;marker-mid:none;marker-end:none;visibility:visible;display:inline;overflow:visible"
       d="M 377.86494,434.42735 C 362.85525,434.42735 353.872,436.0027 350.68597,459.20706 C 349.28757,469.39188 352.10075,475.65005 356.79656,479.33822 C 357.74217,475.09298 360.19028,465.94321 361.81997,463.03084 C 363.34027,474.09407 360.27415,476.38056 361.85746,482.11235 C 367.41964,484.07292 374.13047,483.96367 380.26417,482.41226 C 396.07361,478.41351 405.04387,480.94875 405.04387,459.20706 C 405.04387,437.50954 392.87459,434.42737 377.86494,434.42735 z "
       id="path2329" />
    <path
       style="color:black;fill:black;fill-opacity:1;fill-rule:evenodd;stroke:none;stroke-width:0.5;stroke-linecap:round;stroke-linejoin:round;stroke-miterlimit:4;stroke-dashoffset:0;stroke-opacity:1;marker:none;marker-start:none;marker-mid:none;marker-end:none;visibility:visible;display:inline;overflow:visible"
       d="M 154.94637,346.8891 L 177.88668,346.8891 L 177.88668,440.13038 L 154.94637,440.13038 L 154.94637,346.8891 z "
       id="rect2291" />
    <path
       style="color:black;fill:black;fill-opacity:1;fill-rule:evenodd;stroke:none;stroke-width:0.5;stroke-linecap:round;stroke-linejoin:round;stroke-miterlimit:4;stroke-dashoffset:0;stroke-opacity:1;marker:none;marker-start:none;marker-mid:none;marker-end:none;visibility:visible;display:inline;overflow:visible"
       d="M 199.34697,364.64923 L 222.28729,364.64923 L 222.28729,457.89051 L 199.34697,457.89051 L 199.34697,364.64923 z "
       id="rect2293" />
    <path
       style="color:black;fill:black;fill-opacity:1;fill-rule:evenodd;stroke:none;stroke-width:0.5;stroke-linecap:round;stroke-linejoin:round;stroke-miterlimit:4;stroke-dashoffset:0;stroke-opacity:1;marker:none;marker-start:none;marker-mid:none;marker-end:none;visibility:visible;display:inline;overflow:visible"
       d="M 163.80913,414.44707 C 149.30789,414.44707 140.62893,415.96905 137.55082,438.38739 C 136.19981,448.2272 138.91767,454.27338 143.45442,457.83662 C 144.36801,453.73519 146.73318,444.89537 148.30768,442.08164 C 149.77647,452.77012 146.81423,454.97914 148.34389,460.51677 C 153.71766,462.41093 160.20116,462.30538 166.12709,460.80654 C 181.40099,456.94323 190.06741,459.39258 190.06741,438.38739 C 190.06741,417.42486 178.31033,414.4471 163.80913,414.44707 z "
       id="path2315" />
    <path
       style="color:black;fill:black;fill-opacity:1;fill-rule:evenodd;stroke:none;stroke-width:0.5;stroke-linecap:round;stroke-linejoin:round;stroke-miterlimit:4;stroke-dashoffset:0;stroke-opacity:1;marker:none;marker-start:none;marker-mid:none;marker-end:none;visibility:visible;display:inline;overflow:visible"
       d="M 206.36756,434.42735 C 191.35787,434.42735 182.37462,436.0027 179.18859,459.20706 C 177.7902,469.39188 180.60337,475.65005 185.29918,479.33822 C 186.2448,475.09298 188.69291,465.94321 190.3226,463.03084 C 191.8429,474.09407 188.77678,476.38056 190.36009,482.11235 C 195.92227,484.07292 202.6331,483.96367 208.76679,482.41226 C 224.57623,478.41351 233.5465,480.94875 233.5465,459.20706 C 233.5465,437.50954 221.37722,434.42737 206.36756,434.42735 z "
       id="path2299" />
    <path
       style="color:black;fill:black;fill-opacity:1;fill-rule:evenodd;stroke:none;stroke-width:1.43352962;stroke-linecap:round;stroke-linejoin:round;stroke-miterlimit:4;stroke-dashoffset:0;stroke-opacity:1;marker:none;marker-start:none;marker-mid:none;marker-end:none;visibility:visible;display:inline;overflow:visible"
       d="M 191.73293,9.9535602 C 186.08456,13.347255 180.1213,15.996078 173.48453,16.082121 C 165.27984,17.929408 158.18679,25.100361 157.28432,33.593632 C 145.28457,34.759882 136.63251,48.596841 140.26231,59.95029 C 107.83138,68.814478 81.348007,91.156739 58.737074,115.15188 C 36.959271,135.90452 24.74973,166.55325 27.93711,196.62586 C 31.060975,235.67554 58.86662,270.69201 94.745059,285.45577 C 92.370417,290.83516 92.876381,297.72037 96.652449,302.33328 C 89.846031,309.63289 91.383485,322.95158 100.03373,328.14084 C 97.379143,336.89729 100.48491,347.33433 109.19498,351.26071 C 111.81685,357.69722 117.32876,362.64455 120.12269,369.03519 C 123.13276,372.81582 127.48377,375.83139 132.40156,376.23018 C 135.40324,384.06342 144.93564,388.30079 152.89154,386.25843 C 156.59248,395.86839 169.81749,400.39254 178.46791,394.58158 C 187.87252,395.99534 196.79963,400.15993 206.23352,400.85374 C 210.80039,399.79781 215.78583,397.5332 219.76712,401.2289 C 226.43308,405.84707 235.40575,404.05367 241.30914,399.35255 C 247.11656,397.16906 252.05499,401.2925 257.2412,402.52403 C 268.70498,403.71783 280.33725,404.88686 291.75064,403.28636 C 297.27121,404.44598 302.74959,403.46621 307.27451,400.07255 C 312.15142,397.40124 316.54882,400.10766 320.62624,402.67354 C 326.60749,404.82601 333.89751,403.93213 338.60194,399.46565 C 343.76253,399.57668 348.72975,396.85759 352.76306,401.47731 C 360.19582,404.75984 370.10188,402.56638 374.72675,395.67977 C 382.08307,400.61996 392.74475,399.46776 398.36524,392.51263 C 403.60165,390.25062 409.6153,389.25237 413.1241,384.20415 C 418.69106,378.90754 428.63242,380.6749 432.05555,372.78496 C 435.27344,368.35638 442.38286,368.75525 444.94223,363.26237 C 448.62233,358.9894 448.50417,352.90778 448.62249,347.9333 C 450.46933,343.08396 453.90198,340.13824 458.27619,337.79339 C 463.79686,332.39187 466.1314,323.03565 461.62858,316.3208 C 464.6126,309.31394 473.00979,302.9806 469.11848,294.48024 C 466.25346,286.07085 468.24758,276.18313 463.13137,268.54936 C 468.11146,261.92824 468.18069,252.78625 463.06242,246.24287 C 462.15697,237.34025 458.00245,228.51869 451.34023,222.22291 C 452.12241,214.50312 449.84736,205.90237 442.17606,202.49008 C 436.74812,200.20152 438.38069,192.67728 433.22003,189.56609 C 427.25093,185.46055 422.03887,180.5136 416.91404,175.43495 C 412.80613,167.00942 401.66953,165.04782 393.65614,168.5848 C 389.94895,162.29376 383.24693,157.97382 375.91164,158.35426 C 370.87833,154.31152 366.51868,148.40404 359.20753,149.04851 C 354.78934,147.59261 349.85456,153.36448 346.9829,151.1871 C 341.62841,146.00277 333.07001,144.54702 326.34841,147.80581 C 322.05428,146.36879 318.19768,142.98081 313.43018,143.67314 C 310.55316,139.12741 309.80182,133.36024 306.06072,129.16542 C 305.28142,123.89302 312.14482,121.0011 311.62087,115.34242 C 313.90695,110.54931 308.00776,104.32314 313.57468,101.50827 C 321.6372,91.498746 317.54078,73.451557 304.52902,70.036335 C 300.88851,65.41138 298.81141,58.68395 292.70645,56.947333 C 289.89217,50.947734 288.45787,43.736405 281.89937,40.483808 C 277.09493,36.710931 269.45754,38.744777 266.20783,32.900036 C 262.36051,29.975631 257.7789,27.870899 252.885,27.755864 C 248.7593,18.443243 237.25805,13.482868 227.53984,16.080327 C 221.7616,11.161182 213.50659,9.489375 206.26956,11.77425 C 201.78211,9.56633 196.58082,9.5852846 191.73293,9.9535602 z "
       id="path2224" />
    <path
       style="color:black;fill:#dedede;fill-opacity:1;fill-rule:evenodd;stroke:none;stroke-width:1.27545965;stroke-linecap:round;stroke-linejoin:round;stroke-miterlimit:4;stroke-dashoffset:0;stroke-opacity:1;marker:none;marker-start:none;marker-mid:none;marker-end:none;visibility:visible;display:inline;overflow:visible"
       d="M 99.364373,87.999211 C 133.8531,65.541064 156.95549,56.073004 173.29536,81.165984 C 184.79181,98.820959 163.45021,128.8856 128.96148,151.34376 C 94.472772,173.80189 63.932295,188.11341 52.435873,170.45846 C 40.93945,152.80352 64.875642,110.45735 99.364373,87.999211 z "
       id="path2051" />
    <path
       style="color:black;fill:black;fill-opacity:1;fill-rule:evenodd;stroke:none;stroke-width:1.43352962;stroke-linecap:round;stroke-linejoin:round;stroke-miterlimit:4;stroke-dashoffset:0;stroke-opacity:1;marker:none;marker-start:none;marker-mid:none;marker-end:none;visibility:visible;display:inline;overflow:visible"
       d="M 310.10669,147.97921 C 304.0496,148.06244 303.66885,157.90156 297.30527,155.56156 C 271.20331,154.74745 245.03117,151.57964 218.93775,153.375 C 174.83979,158.73822 137.36971,191.39175 120.15797,231.50026 C 113.62229,246.19334 109.68338,261.96382 108.18349,277.97071 C 97.064565,279.04867 92.577293,295.71827 101.62322,302.13098 C 97.280606,306.4686 93.961748,312.69061 96.910402,318.81409 C 97.642543,323.02401 103.67744,325.45985 104.86,327.47614 C 99.781955,334.77439 103.93663,346.7357 112.83636,348.51523 C 112.63752,354.02192 117.84844,357.47989 120.51984,361.22041 C 121.57861,367.92253 128.19874,373.21593 134.97364,372.7622 C 136.68962,381.24684 147.75321,385.78309 155.14573,381.60555 C 156.64304,391.74665 169.86741,397.43372 177.83211,390.6512 C 184.2311,392.62645 190.94588,393.1899 197.2817,395.10178 C 202.43588,398.34919 208.48961,397.69579 213.49876,394.70089 C 219.7175,395.39657 225.04746,402.51129 231.98976,399.95098 C 236.66781,399.57816 238.74028,393.11061 243.80674,395.53688 C 249.06368,394.12645 252.5091,396.11823 256.57806,398.93746 C 264.47196,399.90703 272.4889,399.4316 280.37416,400.6831 C 285.67542,401.38337 291.04994,397.59618 296.37927,400.30375 C 302.08165,400.86676 305.31954,394.30613 310.97369,395.73757 C 316.02333,392.54383 317.95477,398.23279 322.29853,399.45501 C 327.59388,401.26852 334.15689,399.8374 337.67715,395.33298 C 342.13754,398.35034 348.05803,390.76628 350.68208,395.96877 C 357.55009,402.16353 370.45509,399.53815 373.39735,390.6223 C 378.70861,393.96372 385.92235,397.65542 391.69805,393.22663 C 394.97091,390.02504 397.77836,386.7116 402.75959,387.21212 C 409.46544,385.19031 412.0894,376.97435 419.64511,376.90211 C 425.5462,376.18097 429.33891,371.83887 431.51494,366.66433 C 440.63896,366.98833 447.84543,356.03227 443.71067,347.76383 C 448.2487,345.84853 446.52212,338.41364 451.02233,338.08239 C 459.18251,335.20153 463.6462,323.70932 457.6115,316.841 C 457.94769,311.54242 462.01896,309.09491 464.67499,305.1973 C 467.16214,300.87635 466.69109,295.04213 463.65156,291.09124 C 465.27325,285.62872 461.90643,280.19175 462.43777,274.61833 C 460.25221,270.68797 456.34334,267.64057 461.65748,264.32998 C 464.86998,258.82419 463.5243,250.99453 458.44959,247.07678 C 460.67107,240.13081 455.14644,233.65516 452.03383,227.91618 C 447.32599,225.59382 446.28646,221.8196 447.81445,217.16544 C 448.12156,209.94642 440.7548,204.67965 435.30082,203.20682 C 435.8488,196.6583 431.00491,190.01137 424.52118,188.75689 C 422.66202,182.75954 414.63067,181.93477 412.93739,175.7145 C 408.14633,169.20292 398.59448,169.2855 392.35707,173.01298 C 388.67666,169.45034 387.02819,162.82425 380.63885,162.69083 C 375.86665,162.68442 371.08435,161.96868 369.19765,157.02734 C 363.67701,151.01861 352.72493,151.26506 347.76319,157.71846 C 344.1661,153.37991 340.03141,148.94657 333.80457,149.56871 C 328.25742,150.36383 325.0062,154.32426 320.81016,149.04481 C 317.61083,147.12965 313.64313,147.19958 310.10669,147.97921 z M 314.41862,150.94658 C 309.12083,150.94658 304.90921,154.73379 304.03825,159.6099 L 232.78046,156.09774 C 166.83893,156.09774 115.52609,215.74356 111.49395,281.28666 C 111.30253,281.27683 111.14154,281.2086 110.94761,281.2086 C 105.02455,281.2086 100.17699,285.8702 100.17699,291.58898 C 100.17699,295.48281 102.50444,298.7166 105.79644,300.48645 C 105.63106,301.20891 105.32815,301.90153 105.32815,302.67179 C 105.32815,303.30492 105.60558,303.86502 105.7184,304.46689 C 102.0626,306.11889 99.474562,309.6022 99.474562,313.7546 C 99.474562,319.4734 104.2441,324.13505 110.16713,324.13498 C 110.57955,324.13498 110.9375,323.94464 111.33785,323.90083 C 111.33575,323.98488 111.2598,324.05046 111.2598,324.13498 C 111.2598,324.90524 111.56271,325.59786 111.72809,326.32033 C 108.43607,328.09017 106.10863,331.32398 106.10863,335.21779 C 106.10863,340.93659 110.87815,345.59824 116.80121,345.59817 C 116.85386,345.59817 116.90483,345.59889 116.9573,345.59817 C 116.78582,346.33309 116.48901,346.99881 116.48901,347.7835 C 116.48901,352.45203 119.73871,356.32398 124.13772,357.61755 C 124.07588,358.06733 123.90357,358.47832 123.90357,358.94436 C 123.90357,364.66317 128.67311,369.24669 134.59614,369.24669 C 135.8509,369.24669 136.9888,369.00501 138.1083,368.62231 C 138.09344,368.84527 137.9522,369.02015 137.9522,369.24669 C 137.9522,374.96549 142.72171,379.62712 148.64477,379.62707 C 151.54298,379.62707 154.1279,378.46624 156.05933,376.66125 C 156.98801,377.17127 157.95028,377.52952 159.02515,377.75392 C 158.90297,378.37923 158.63491,378.96765 158.63491,379.62707 C 158.63491,385.34587 163.4825,390.0074 169.40553,390.00745 C 172.61658,390.00745 175.39945,388.57764 177.36642,386.41724 C 179.11929,387.62068 181.14106,388.52452 183.45416,388.52453 C 184.54325,388.52453 185.50733,388.19184 186.49802,387.90016 C 188.41403,389.62111 191.01324,390.70991 193.83453,390.70988 C 194.9544,390.70988 195.94133,390.39324 196.95645,390.0855 C 198.92331,392.24266 201.70901,393.67573 204.91734,393.67571 C 208.25687,393.67571 211.06588,392.08542 213.03433,389.7733 C 214.87816,391.21584 217.11213,392.19279 219.6684,392.19279 C 219.77937,392.19279 219.87046,392.11796 219.98059,392.11475 C 221.92395,394.77082 224.944,396.64155 228.56587,396.64152 C 233.12295,396.64152 237.00117,393.8792 238.55601,390.00745 C 240.34679,391.30144 242.47069,392.19279 244.8779,392.19279 C 247.39524,392.19279 249.6031,391.25452 251.43392,389.85136 C 253.12483,393.43007 256.77417,395.93907 261.11187,395.9391 C 262.59263,395.9391 264.04288,395.60505 265.32646,395.08056 C 266.93559,396.01094 268.77902,396.64155 270.78981,396.64152 C 272.63689,396.64152 274.26678,396.10935 275.78488,395.31471 C 277.53775,396.51815 279.55953,397.42198 281.87262,397.42201 C 284.83415,397.42201 287.50112,396.25333 289.44327,394.37813 C 291.25766,395.73447 293.45074,396.64155 295.92125,396.64152 C 300.01336,396.64152 303.47742,394.35563 305.28701,391.10012 C 306.7202,391.78569 308.26302,392.19279 309.96989,392.19279 C 312.6859,392.19279 315.10337,391.1474 316.9942,389.53916 C 318.42397,393.63909 322.25798,396.64157 326.98434,396.64152 C 331.07645,396.64152 334.5405,394.35563 336.35009,391.10012 C 337.78327,391.78569 339.32613,392.19279 341.03297,392.19279 C 344.80734,392.19279 348.0175,390.20103 349.93044,387.35382 C 350.83674,392.1885 355.04351,395.93907 360.31081,395.9391 C 365.9487,395.9391 370.41484,391.67611 370.84729,386.3392 C 371.96726,386.72224 373.10408,387.04165 374.35944,387.04163 C 374.91739,387.04163 375.38536,386.80884 375.92041,386.72943 C 377.84084,389.53569 380.99792,391.49031 384.73982,391.49036 C 389.83784,391.49036 393.87311,387.97775 394.96411,383.37337 C 396.14954,383.80924 397.44516,384.07583 398.78845,384.07581 C 403.48844,384.07581 407.40622,381.11575 408.85664,377.05149 C 411.4829,376.57169 413.6828,375.27047 415.25657,373.30519 C 415.93155,373.43378 416.57194,373.69543 417.28582,373.69543 C 423.20887,373.69543 427.97838,369.03383 427.97838,363.31505 C 427.97838,363.12079 427.91128,362.96035 427.90034,362.76872 C 428.78788,362.99846 429.66972,363.31505 430.63202,363.31505 C 436.55507,363.31505 441.32456,358.73148 441.32459,353.01272 C 441.32459,350.59623 440.34323,348.45368 438.9051,346.69084 C 442.4773,345.00847 444.99282,341.57462 444.99284,337.48118 C 444.99284,336.57562 444.75096,335.74297 444.52456,334.9056 C 445.07641,334.99021 445.58716,335.21779 446.16356,335.21779 C 452.08661,335.21779 456.85611,330.55619 456.85613,324.83741 C 456.85613,321.81997 455.47836,319.23881 453.34398,317.34481 C 454.54311,315.67249 455.37322,313.75577 455.37322,311.56926 C 455.37322,310.57734 455.01882,309.66803 454.74883,308.75953 C 459.33751,307.58379 462.78778,303.80228 462.78778,299.00354 C 462.78778,296.08389 461.52447,293.47273 459.50976,291.58898 C 460.17418,290.24171 460.60243,288.73095 460.60243,287.14025 C 460.60243,284.93453 459.71358,282.96732 458.49514,281.28666 C 458.80802,280.31473 459.11952,279.31365 459.11952,278.24279 C 459.11952,274.85778 457.27372,272.01673 454.67079,270.1258 C 454.67079,268.89144 454.37913,267.71176 453.96836,266.61364 C 457.40269,264.88549 459.82192,261.55571 459.82195,257.56008 C 459.82195,253.52685 457.37749,250.06166 453.89031,248.35042 C 454.73687,246.86893 455.37322,245.24398 455.37322,243.4334 C 455.37322,240.24295 453.8222,237.52953 451.47082,235.6286 C 450.98962,231.66134 448.30315,228.41817 444.52456,227.12138 C 444.1456,225.55844 443.51533,224.10873 442.49531,222.90679 C 443.52511,221.31646 444.29041,219.61206 444.29041,217.59952 C 444.29041,211.88072 439.52087,207.21915 433.59784,207.21915 C 432.30759,207.21915 431.07578,207.51792 429.92959,207.92158 C 429.87324,207.8515 429.75196,207.83539 429.69544,207.76548 C 430.8836,206.098 431.72469,204.24354 431.72469,202.06799 C 431.72469,196.58904 427.23522,192.21073 421.6565,191.8437 C 420.70264,187.44899 417.01291,184.14225 412.29075,183.72671 C 411.97771,178.27836 407.475,173.8927 401.75428,173.89267 C 398.79275,173.89267 396.12578,175.06136 394.18363,176.93654 C 392.88366,176.39607 391.3954,176.15606 389.89099,176.15606 C 389.19108,176.15606 388.60243,176.42258 387.93979,176.5463 C 387.94551,176.40739 388.01783,176.29633 388.01783,176.15606 C 388.01783,170.43726 383.24832,165.77568 377.32527,165.77568 C 375.98197,165.77568 374.68635,166.04225 373.50092,166.47812 C 372.26334,165.09221 370.72918,164.03498 368.89609,163.43425 C 367.51698,159.24993 363.61667,156.17576 358.8279,156.17578 C 354.65577,156.17578 351.08075,158.51308 349.30605,161.87329 C 348.3164,161.58227 347.34998,161.32696 346.26218,161.32696 C 345.7123,161.32696 345.22893,161.56199 344.70122,161.63914 C 343.74649,156.86256 339.62349,153.20999 334.3989,153.20997 C 330.10001,153.20997 326.43293,155.69239 324.72095,159.21965 C 323.69017,154.53751 319.5738,150.9466 314.41862,150.94658 z "
       id="path2126" />
    <path
       style="color:black;fill:url(#radialGradient1952);fill-opacity:1;fill-rule:evenodd;stroke:none;stroke-width:1.43352962;stroke-linecap:round;stroke-linejoin:round;stroke-miterlimit:4;stroke-dashoffset:0;stroke-opacity:1;marker:none;marker-start:none;marker-mid:none;marker-end:none;visibility:visible;display:inline;overflow:visible"
       d="M 314.41862,150.94658 C 309.12083,150.94658 304.90921,154.73379 304.03825,159.6099 L 232.78046,156.09774 C 166.83893,156.09774 115.52609,215.74356 111.49395,281.28666 C 111.30253,281.27683 111.14154,281.2086 110.94761,281.2086 C 105.02455,281.2086 100.17699,285.8702 100.17699,291.58898 C 100.17699,295.48281 102.50444,298.7166 105.79644,300.48645 C 105.63106,301.20891 105.32815,301.90153 105.32815,302.67179 C 105.32815,303.30492 105.60558,303.86502 105.7184,304.46689 C 102.0626,306.11889 99.474562,309.6022 99.474562,313.7546 C 99.474562,319.4734 104.2441,324.13505 110.16713,324.13498 C 110.57955,324.13498 110.9375,323.94464 111.33785,323.90083 C 111.33575,323.98488 111.2598,324.05046 111.2598,324.13498 C 111.2598,324.90524 111.56271,325.59786 111.72809,326.32033 C 108.43607,328.09017 106.10863,331.32398 106.10863,335.21779 C 106.10863,340.93659 110.87815,345.59824 116.80121,345.59817 C 116.85386,345.59817 116.90483,345.59889 116.9573,345.59817 C 116.78582,346.33309 116.48901,346.99881 116.48901,347.7835 C 116.48901,352.45203 119.73871,356.32398 124.13772,357.61755 C 124.07588,358.06733 123.90357,358.47832 123.90357,358.94436 C 123.90357,364.66317 128.67311,369.24669 134.59614,369.24669 C 135.8509,369.24669 136.9888,369.00501 138.1083,368.62231 C 138.09344,368.84527 137.9522,369.02015 137.9522,369.24669 C 137.9522,374.96549 142.72171,379.62712 148.64477,379.62707 C 151.54298,379.62707 154.1279,378.46624 156.05933,376.66125 C 156.98801,377.17127 157.95028,377.52952 159.02515,377.75392 C 158.90297,378.37923 158.63491,378.96765 158.63491,379.62707 C 158.63491,385.34587 163.4825,390.0074 169.40553,390.00745 C 172.61658,390.00745 175.39945,388.57764 177.36642,386.41724 C 179.11929,387.62068 181.14106,388.52452 183.45416,388.52453 C 184.54325,388.52453 185.50733,388.19184 186.49802,387.90016 C 188.41403,389.62111 191.01324,390.70991 193.83453,390.70988 C 194.9544,390.70988 195.94133,390.39324 196.95645,390.0855 C 198.92331,392.24266 201.70901,393.67573 204.91734,393.67571 C 208.25687,393.67571 211.06588,392.08542 213.03433,389.7733 C 214.87816,391.21584 217.11213,392.19279 219.6684,392.19279 C 219.77937,392.19279 219.87046,392.11796 219.98059,392.11475 C 221.92395,394.77082 224.944,396.64155 228.56587,396.64152 C 233.12295,396.64152 237.00117,393.8792 238.55601,390.00745 C 240.34679,391.30144 242.47069,392.19279 244.8779,392.19279 C 247.39524,392.19279 249.6031,391.25452 251.43392,389.85136 C 253.12483,393.43007 256.77417,395.93907 261.11187,395.9391 C 262.59263,395.9391 264.04288,395.60505 265.32646,395.08056 C 266.93559,396.01094 268.77902,396.64155 270.78981,396.64152 C 272.63689,396.64152 274.26678,396.10935 275.78488,395.31471 C 277.53775,396.51815 279.55953,397.42198 281.87262,397.42201 C 284.83415,397.42201 287.50112,396.25333 289.44327,394.37813 C 291.25766,395.73447 293.45074,396.64155 295.92125,396.64152 C 300.01336,396.64152 303.47742,394.35563 305.28701,391.10012 C 306.7202,391.78569 308.26302,392.19279 309.96989,392.19279 C 312.6859,392.19279 315.10337,391.1474 316.9942,389.53916 C 318.42397,393.63909 322.25798,396.64157 326.98434,396.64152 C 331.07645,396.64152 334.5405,394.35563 336.35009,391.10012 C 337.78327,391.78569 339.32613,392.19279 341.03297,392.19279 C 344.80734,392.19279 348.0175,390.20103 349.93044,387.35382 C 350.83674,392.1885 355.04351,395.93907 360.31081,395.9391 C 365.9487,395.9391 370.41484,391.67611 370.84729,386.3392 C 371.96726,386.72224 373.10408,387.04165 374.35944,387.04163 C 374.91739,387.04163 375.38536,386.80884 375.92041,386.72943 C 377.84084,389.53569 380.99792,391.49031 384.73982,391.49036 C 389.83784,391.49036 393.87311,387.97775 394.96411,383.37337 C 396.14954,383.80924 397.44516,384.07583 398.78845,384.07581 C 403.48844,384.07581 407.40622,381.11575 408.85664,377.05149 C 411.4829,376.57169 413.6828,375.27047 415.25657,373.30519 C 415.93155,373.43378 416.57194,373.69543 417.28582,373.69543 C 423.20887,373.69543 427.97838,369.03383 427.97838,363.31505 C 427.97838,363.12079 427.91128,362.96035 427.90034,362.76872 C 428.78788,362.99846 429.66972,363.31505 430.63202,363.31505 C 436.55507,363.31505 441.32456,358.73148 441.32459,353.01272 C 441.32459,350.59623 440.34323,348.45368 438.9051,346.69084 C 442.4773,345.00847 444.99282,341.57462 444.99284,337.48118 C 444.99284,336.57562 444.75096,335.74297 444.52456,334.9056 C 445.07641,334.99021 445.58716,335.21779 446.16356,335.21779 C 452.08661,335.21779 456.85611,330.55619 456.85613,324.83741 C 456.85613,321.81997 455.47836,319.23881 453.34398,317.34481 C 454.54311,315.67249 455.37322,313.75577 455.37322,311.56926 C 455.37322,310.57734 455.01882,309.66803 454.74883,308.75953 C 459.33751,307.58379 462.78778,303.80228 462.78778,299.00354 C 462.78778,296.08389 461.52447,293.47273 459.50976,291.58898 C 460.17418,290.24171 460.60243,288.73095 460.60243,287.14025 C 460.60243,284.93453 459.71358,282.96732 458.49514,281.28666 C 458.80802,280.31473 459.11952,279.31365 459.11952,278.24279 C 459.11952,274.85778 457.27372,272.01673 454.67079,270.1258 C 454.67079,268.89144 454.37913,267.71176 453.96836,266.61364 C 457.40269,264.88549 459.82192,261.55571 459.82195,257.56008 C 459.82195,253.52685 457.37749,250.06166 453.89031,248.35042 C 454.73687,246.86893 455.37322,245.24398 455.37322,243.4334 C 455.37322,240.24295 453.8222,237.52953 451.47082,235.6286 C 450.98962,231.66134 448.30315,228.41817 444.52456,227.12138 C 444.1456,225.55844 443.51533,224.10873 442.49531,222.90679 C 443.52511,221.31646 444.29041,219.61206 444.29041,217.59952 C 444.29041,211.88072 439.52087,207.21915 433.59784,207.21915 C 432.30759,207.21915 431.07578,207.51792 429.92959,207.92158 C 429.87324,207.8515 429.75196,207.83539 429.69544,207.76548 C 430.8836,206.098 431.72469,204.24354 431.72469,202.06799 C 431.72469,196.58904 427.23522,192.21073 421.6565,191.8437 C 420.70264,187.44899 417.01291,184.14225 412.29075,183.72671 C 411.97771,178.27836 407.475,173.8927 401.75428,173.89267 C 398.79275,173.89267 396.12578,175.06136 394.18363,176.93654 C 392.88366,176.39607 391.3954,176.15606 389.89099,176.15606 C 389.19108,176.15606 388.60243,176.42258 387.93979,176.5463 C 387.94551,176.40739 388.01783,176.29633 388.01783,176.15606 C 388.01783,170.43726 383.24832,165.77568 377.32527,165.77568 C 375.98197,165.77568 374.68635,166.04225 373.50092,166.47812 C 372.26334,165.09221 370.72918,164.03498 368.89609,163.43425 C 367.51698,159.24993 363.61667,156.17576 358.8279,156.17578 C 354.65577,156.17578 351.08075,158.51308 349.30605,161.87329 C 348.3164,161.58227 347.34998,161.32696 346.26218,161.32696 C 345.7123,161.32696 345.22893,161.56199 344.70122,161.63914 C 343.74649,156.86256 339.62349,153.20999 334.3989,153.20997 C 330.10001,153.20997 326.43293,155.69239 324.72095,159.21965 C 323.69017,154.53751 319.5738,150.9466 314.41862,150.94658 z "
       id="rect2101" />
    <path
       style="color:black;fill:url(#radialGradient1949);fill-opacity:1;fill-rule:evenodd;stroke:none;stroke-width:1.43352962;stroke-linecap:round;stroke-linejoin:round;stroke-miterlimit:4;stroke-dashoffset:0;stroke-opacity:1;marker:none;marker-start:none;marker-mid:none;marker-end:none;visibility:visible;display:inline;overflow:visible"
       d="M 311.75399,155.20417 C 307.70804,157.62038 306.3412,165.93308 299.87615,163.09383 C 273.47736,162.23344 247.03953,159.22653 220.63278,160.60845 C 180.7393,165.03142 146.86262,193.79966 129.39597,228.98548 C 121.362,245.47895 116.77163,263.48053 115.17725,281.72769 C 112.29044,286.28584 103.43616,285.18321 103.79071,292.13163 C 105.81043,296.36112 110.92019,299.68095 108.93488,305.13656 C 106.93762,309.16767 100.51573,312.15679 104.28201,317.3323 C 107.46709,321.04933 116.65618,319.98896 115.09055,326.86925 C 113.28803,330.72261 106.91603,333.82461 114.33915,335.2213 C 118.50748,339.27639 122.96055,344.28811 129.50724,342.78259 C 134.61255,340.70925 138.85306,343.77646 143.84589,344.12245 C 149.1663,343.00596 154.08457,341.59266 158.95321,344.90316 C 164.53563,346.83554 169.46086,343.53242 173.93063,341.00127 C 180.31449,342.24911 187.55145,347.24931 193.31712,341.62586 C 196.7644,338.07525 201.15469,333.17406 206.44296,336.66629 C 212.23586,338.63359 216.43763,332.18442 221.65763,333.4828 C 226.38311,336.55072 227.80024,343.72292 234.46294,343.92936 C 240.96746,345.50572 246.74342,340.99728 250.37218,336.25013 C 256.57692,334.73248 264.63229,339.76433 269.36582,333.18419 C 272.17127,328.4771 279.78982,328.72225 279.77162,335.11822 C 284.20855,345.92727 302.93089,345.45075 305.31297,333.52623 C 305.64609,328.28477 310.7162,326.34759 315.18978,328.07865 C 322.95388,327.55333 326.29375,337.57789 334.44036,335.597 C 340.82567,334.98255 345.09686,329.7205 347.01152,324.14552 C 352.23632,320.6794 359.34483,325.75944 364.3517,320.91588 C 368.40463,317.3801 370.13305,311.40781 375.99012,310.60977 C 379.96899,307.08019 384.78236,305.2297 390.07478,305.77723 C 397.02492,304.63525 401.23736,297.6485 401.31618,291.09852 C 405.26401,285.75223 413.10235,291.27108 417.57703,286.29433 C 424.29766,281.82892 424.23551,272.0383 419.63737,266.21979 C 420.04896,259.44451 430.8697,257.84814 428.82725,249.93786 C 428.06958,245.33285 431.58358,240.10852 436.68801,242.01931 C 440.79215,241.4967 448.11377,238.03746 446.39408,233.2911 C 442.71045,229.7048 436.29049,224.7113 440.30049,219.07283 C 441.52704,212.91267 434.38064,209.65045 429.37635,211.35657 C 422.1903,208.72809 432.15515,199.62168 424.71277,197.0668 C 419.75243,195.61276 417.54786,190.81186 413.71654,188.41205 C 408.68416,186.62824 408.23928,180.22959 404.03119,178.06395 C 398.33376,176.92147 393.20691,183.34631 387.65984,179.33174 C 382.54688,177.67773 384.20072,168.78681 377.61673,169.9431 C 369.83898,171.28485 365.79018,163.78465 360.50802,159.97265 C 354.08469,158.51571 350.60205,168.94425 343.87249,164.76734 C 339.80604,162.46808 338.70226,155.24521 332.67747,156.96707 C 329.42821,159.64533 323.16598,165.44933 320.57167,159.01671 C 319.29888,155.4784 315.15563,154.21149 311.75399,155.20417 z "
       id="path2280" />
    <path
       style="color:black;fill:black;fill-opacity:1;fill-rule:evenodd;stroke:none;stroke-width:1.27545965;stroke-linecap:round;stroke-linejoin:round;stroke-miterlimit:4;stroke-dashoffset:0;stroke-opacity:1;marker:none;marker-start:none;marker-mid:none;marker-end:none;visibility:visible;display:inline;overflow:visible"
       d="M 142.6899,63.042573 C 121.18568,68.373304 102.1625,80.838089 85.036422,94.455057 C 66.424914,110.57626 49.615636,131.47749 45.929311,156.46809 C 44.372585,168.70981 53.35474,182.31404 66.574333,181.72521 C 83.818652,182.28394 99.326789,172.82623 113.92756,164.78995 C 139.73585,149.89851 166.18529,131.39548 178.23671,103.06886 C 182.58348,91.256506 178.55907,77.551626 168.5559,69.943958 C 161.59538,63.811827 151.76305,61.393321 142.6899,63.042573 z M 99.364373,87.999211 C 133.8531,65.541064 156.95549,56.073004 173.29536,81.165984 C 184.79181,98.820959 163.45021,128.8856 128.96148,151.34376 C 94.472772,173.80189 63.932295,188.11341 52.435873,170.45846 C 40.93945,152.80352 64.875642,110.45735 99.364373,87.999211 z "
       id="path2194" />
    <path
       style="color:black;fill:#eed6b1;fill-opacity:1;fill-rule:evenodd;stroke:none;stroke-width:5;stroke-linecap:round;stroke-linejoin:round;stroke-miterlimit:4;stroke-dashoffset:0;stroke-opacity:1;marker:none;marker-start:none;marker-mid:none;marker-end:none;visibility:visible;display:inline;overflow:visible"
       d="M 196.90538,52.956056 C 169.01731,55.280195 142.33475,68.830486 123.46226,89.404456 C 80.70152,96.437485 41.748498,130.56505 35.629712,174.49595 C 29.23026,213.62233 51.490455,253.59754 85.532575,272.60405 C 131.62325,300.01247 196.67165,291.29732 231.81679,249.99749 C 248.84106,230.92872 256.79742,205.07134 255.49436,179.72409 C 255.89085,147.58477 269.42671,129.71708 252.84643,83.209115 C 245.70467,63.1764 225.08171,52.82099 205.63258,52.746239 C 202.72243,52.666271 199.80854,52.741892 196.90538,52.956056 z "
       id="path1316" />
    <path
       style="color:black;fill:url(#radialGradient1944);fill-opacity:1;fill-rule:evenodd;stroke:none;stroke-width:1.35031784;stroke-linecap:round;stroke-linejoin:round;stroke-miterlimit:4;stroke-dashoffset:0;stroke-opacity:1;marker:none;marker-start:none;marker-mid:none;marker-end:none;visibility:visible;display:inline;overflow:visible"
       d="M 196.90538,52.956056 C 169.01731,55.280195 142.33475,68.830486 123.46226,89.404456 C 80.70152,96.437485 41.748498,130.56505 35.629712,174.49595 C 29.23026,213.62233 51.490455,253.59754 85.532575,272.60405 C 131.62325,300.01247 196.67165,291.29732 231.81679,249.99749 C 248.84106,230.92872 256.79742,205.07134 255.49436,179.72409 C 255.89085,147.58477 269.42671,129.71708 252.84643,83.209115 C 245.70467,63.1764 225.08171,52.82099 205.63258,52.746239 C 202.72243,52.666271 199.80854,52.741892 196.90538,52.956056 z "
       id="path2340" />
    <path
       style="color:black;fill:url(#linearGradient1941);fill-opacity:1;fill-rule:evenodd;stroke:none;stroke-width:0.5;stroke-linecap:round;stroke-linejoin:round;stroke-miterlimit:4;stroke-dashoffset:0;stroke-opacity:1;marker:none;marker-start:none;marker-mid:none;marker-end:none;visibility:visible;display:inline;overflow:visible"
       d="M 256.22182,143.41676 C 256.01393,155.8367 255.67191,168.28249 255.51938,180.64563 C 256.82245,205.99288 248.81708,231.89799 231.79281,250.96684 C 206.45113,280.74641 165.63954,293.31381 127.52075,287.88351 C 145.52297,299.3173 167.72576,306.30286 191.98835,306.30283 C 251.36542,306.30283 299.53843,265.72652 299.53843,215.68916 C 299.53843,186.04232 282.35952,159.95888 256.22182,143.41676 z "
       id="path2104" />
    <path
       style="color:black;fill:black;fill-opacity:1;fill-rule:evenodd;stroke:none;stroke-width:1.35031784;stroke-linecap:round;stroke-linejoin:round;stroke-miterlimit:4;stroke-dashoffset:0;stroke-opacity:1;marker:none;marker-start:none;marker-mid:none;marker-end:none;visibility:visible;display:inline;overflow:visible"
       d="M 141.84725,74.425486 C 139.25277,74.679417 136.05822,75.867445 132.94979,77.859602 C 126.94499,81.707997 123.38937,87.234766 124.67671,90.503371 C 129.47352,90.153466 135.37792,88.083534 141.22287,84.337578 C 143.62969,82.795075 145.68716,81.034515 147.6228,79.264467 C 147.8255,78.20344 147.73452,77.257218 147.31061,76.454736 C 146.46282,74.849801 144.44175,74.171565 141.84725,74.425486 z "
       id="path2109" />
    <path
       style="color:black;fill:black;fill-opacity:1;fill-rule:evenodd;stroke:none;stroke-width:0.5;stroke-linecap:round;stroke-linejoin:round;stroke-miterlimit:4;stroke-dashoffset:0;stroke-opacity:1;marker:none;marker-start:none;marker-mid:none;marker-end:none;visibility:visible;display:inline;overflow:visible"
       d="M 168.92055,81.756133 C 163.03726,81.56519 157.18164,86.161477 156.03589,92.408384 C 155.96941,93.825216 157.02867,94.921459 157.86754,95.88368 C 159.15437,97.164466 160.5923,98.44171 162.33183,98.913318 C 167.99938,99.35353 173.82184,99.962304 179.01224,102.62538 C 180.50676,102.09782 180.02649,100.08121 179.49914,98.947258 C 178.63167,96.007215 179.24416,92.758068 180.64672,90.123271 C 181.20687,88.572778 179.6158,87.476905 178.91132,86.336707 C 176.37527,83.412117 172.65219,81.712575 168.92055,81.756133 z "
       id="path2117" />
    <path
       style="color:black;fill:black;fill-opacity:1;fill-rule:evenodd;stroke:none;stroke-width:1.35031784;stroke-linecap:round;stroke-linejoin:round;stroke-miterlimit:4;stroke-dashoffset:0;stroke-opacity:1;marker:none;marker-start:none;marker-mid:none;marker-end:none;visibility:visible;display:inline;overflow:visible"
       d="M 196.87711,49.257348 C 168.41342,51.837544 141.28419,65.272615 121.65081,85.989049 C 76.922178,93.731756 36.713257,130.7687 31.5989,176.87906 C 25.859826,221.70736 55.759873,266.33059 97.16768,282.46962 C 145.67065,303.45826 208.51869,289.21682 239.83937,245.65215 C 255.1769,225.65879 260.12398,199.80664 259.51285,175.09539 C 261.22567,150.75615 268.61236,126.01949 261.77463,101.76089 C 258.65008,83.680613 250.72695,64.430237 233.23728,56.022963 C 222.15099,49.907405 209.33312,48.539864 196.87711,49.257348 z M 196.90538,52.956056 C 169.01731,55.280195 142.33475,68.830486 123.46226,89.404456 C 80.70152,96.437485 41.748498,130.56505 35.629712,174.49595 C 29.23026,213.62233 51.490455,253.59754 85.532575,272.60405 C 131.62325,300.01247 196.67165,291.29732 231.81679,249.99749 C 248.84106,230.92872 256.79742,205.07134 255.49436,179.72409 C 255.89085,147.58477 269.42671,129.71708 252.84643,83.209115 C 245.70467,63.1764 225.08171,52.82099 205.63258,52.746239 C 202.72243,52.666271 199.80854,52.741892 196.90538,52.956056 z "
       id="path2177" />
    <path
       style="color:black;fill:url(#radialGradient1935);fill-opacity:1;fill-rule:evenodd;stroke:none;stroke-width:1.43352962;stroke-linecap:round;stroke-linejoin:round;stroke-miterlimit:4;stroke-dashoffset:0;stroke-opacity:1;marker:none;marker-start:none;marker-mid:none;marker-end:none;visibility:visible;display:inline;overflow:visible"
       d="M 197.13952,16.901027 C 189.99767,15.214996 186.71389,25.029799 180.65627,22.664266 C 171.41879,21.277157 161.37093,30.555551 164.90496,39.987739 C 164.44259,41.810815 155.90208,39.130583 153.00496,42.731902 C 144.95826,47.000413 144.16659,59.499776 151.8519,64.53793 C 158.21103,70.608256 167.92219,65.888944 173.31601,64.339774 C 179.75308,71.411792 188.96591,63.176844 194.76981,69.275599 C 200.67066,72.935438 207.46151,66.333077 210.76082,73.584274 C 215.25714,77.266984 221.51151,75.661225 222.5807,82.460928 C 225.23853,87.685604 233.58954,87.966695 236.63179,88.783188 C 236.48026,97.847871 246.84565,104.66204 255.2072,101.73915 C 257.53467,109.90422 267.55438,113.89567 275.18747,110.79272 C 274.42695,122.3337 289.60317,128.84502 298.56129,122.659 C 307.96956,118.60809 304.73286,105.33832 301.57625,101.20835 C 309.5237,98.771131 313.878,88.244171 308.42311,81.443913 C 305.09565,74.803367 294.77966,78.305889 295.71815,69.89511 C 294.31167,64.328205 286.52453,62.772071 283.98718,60.573694 C 287.13398,50.646815 275.09169,41.443052 265.89976,44.842191 C 263.72631,37.476245 254.96756,32.987947 247.7146,35.476441 C 247.23194,25.104634 234.20216,19.444195 225.62702,24.393633 C 221.48766,18.070273 212.39558,15.923722 205.88089,19.788801 C 203.31066,18.045794 200.27627,16.880598 197.13952,16.901027 z "
       id="path2055" />
    <path
       style="color:black;fill:black;fill-opacity:1;fill-rule:evenodd;stroke:none;stroke-width:1.43352962;stroke-linecap:round;stroke-linejoin:round;stroke-miterlimit:4;stroke-dashoffset:0;stroke-opacity:1;marker:none;marker-start:none;marker-mid:none;marker-end:none;visibility:visible;display:inline;overflow:visible"
       d="M 193.38023,13.277042 C 187.92524,14.81985 183.9094,20.695609 177.77761,19.019501 C 168.6912,19.246825 160.00215,27.588911 160.7234,36.888215 C 147.36732,35.869377 137.45366,53.208433 146.067,63.912315 C 151.57149,71.863148 162.9953,72.968657 171.09845,68.706943 C 177.06871,71.28811 183.42385,70.898152 189.74623,71.011171 C 194.18135,73.340785 199.00665,74.916553 204.15987,73.822215 C 208.4767,74.667237 211.21191,79.236621 215.97305,80.164126 C 220.35987,82.968225 221.26993,89.30197 227.19304,90.352925 C 233.97923,89.75437 233.82355,95.775405 237.34695,99.81639 C 241.24084,104.11479 247.27147,106.69011 253.0873,105.87214 C 256.48643,112.68217 264.70269,116.36486 272.1034,115.29349 C 275.63991,131.2088 301.80543,133.40194 307.34466,117.81205 C 309.23104,113.03316 308.4896,107.46028 306.34971,102.86656 C 318.20921,96.691729 316.36796,75.920464 302.63833,73.35142 C 297.46329,71.08324 299.32032,63.227874 293.1645,61.593244 C 287.48754,60.225379 288.11543,55.159167 286.52442,50.76014 C 283.17638,44.116403 275.54163,39.665531 268.08632,40.731894 C 264.74913,34.532309 257.4538,30.665879 250.45742,31.252745 C 247.63712,21.751022 235.80527,16.608542 226.73065,20.068505 C 221.66684,14.59862 212.88168,12.714632 206.03836,15.704629 C 202.25067,13.457504 197.65766,13.142854 193.38023,13.277042 z M 197.13952,16.901027 C 189.99767,15.214996 186.71389,25.029799 180.65627,22.664266 C 171.41879,21.277157 161.37093,30.555551 164.90496,39.987739 C 164.44259,41.810815 155.90208,39.130583 153.00496,42.731902 C 144.95826,47.000413 144.16659,59.499776 151.8519,64.53793 C 158.21103,70.608256 167.92219,65.888944 173.31601,64.339774 C 179.75308,71.411792 188.96591,63.176844 194.76981,69.275599 C 200.67066,72.935438 207.46151,66.333077 210.76082,73.584274 C 215.25714,77.266984 221.51151,75.661225 222.5807,82.460928 C 225.23853,87.685604 233.58954,87.966695 236.63179,88.783188 C 236.48026,97.847871 246.84565,104.66204 255.2072,101.73915 C 257.53467,109.90422 267.55438,113.89567 275.18747,110.79272 C 274.42695,122.3337 289.60317,128.84502 298.56129,122.659 C 307.96956,118.60809 304.73286,105.33832 301.57625,101.20835 C 309.5237,98.771131 313.878,88.244171 308.42311,81.443913 C 305.09565,74.803367 294.77966,78.305889 295.71815,69.89511 C 294.31167,64.328205 286.52453,62.772071 283.98718,60.573694 C 287.13398,50.646815 275.09169,41.443052 265.89976,44.842191 C 263.72631,37.476245 254.96756,32.987947 247.7146,35.476441 C 247.23194,25.104634 234.20216,19.444195 225.62702,24.393633 C 221.48766,18.070273 212.39558,15.923722 205.88089,19.788801 C 203.31066,18.045794 200.27627,16.880598 197.13952,16.901027 z "
       id="path2143" />
    <path
       style="color:black;fill:url(#radialGradient1931);fill-opacity:1;fill-rule:evenodd;stroke:none;stroke-width:1.43352962;stroke-linecap:round;stroke-linejoin:round;stroke-miterlimit:4;stroke-dashoffset:0;stroke-opacity:1;marker:none;marker-start:none;marker-mid:none;marker-end:none;visibility:visible;display:inline;overflow:visible"
       d="M 315.52862,194.5243 C 315.52862,238.09611 310.58208,264.06179 278.8805,264.06179 C 256.5759,264.06179 242.23238,227.75947 242.23238,184.18766 C 242.23238,140.61588 247.17894,105.25323 269.48356,105.25323 C 291.78816,105.25323 315.52862,150.95252 315.52862,194.5243 z "
       id="path2048" />
    <path
       transform="matrix(0.463781,0.670404,-0.64787,0.448191,142.1962,-154.3936)"
       style="color:black;fill:url(#linearGradient1402);fill-opacity:1;fill-rule:evenodd;stroke:none;stroke-width:1.43352962;stroke-linecap:round;stroke-linejoin:round;stroke-miterlimit:4;stroke-dashoffset:0;stroke-opacity:1;marker:none;marker-start:none;marker-mid:none;marker-end:none;visibility:visible;display:inline;overflow:visible"
       d="M 236.78149,173.93208 C 236.78149,176.35252 235.14448,178.31693 233.12746,178.31693 C 231.11043,178.31693 229.47342,176.35252 229.47342,173.93208 C 229.47342,171.51165 231.11043,169.54724 233.12746,169.54724 C 235.14448,169.54724 236.78149,171.51165 236.78149,173.93208 z "
       id="path2350" />
    <path
       transform="matrix(0.604157,0.798659,-0.843965,0.533934,171.4127,-190.9964)"
       style="color:black;fill:url(#linearGradient1404);fill-opacity:1;fill-rule:evenodd;stroke:none;stroke-width:1.43352962;stroke-linecap:round;stroke-linejoin:round;stroke-miterlimit:4;stroke-dashoffset:0;stroke-opacity:1;marker:none;marker-start:none;marker-mid:none;marker-end:none;visibility:visible;display:inline;overflow:visible"
       d="M 236.78149,173.93208 C 236.78149,176.35252 235.14448,178.31693 233.12746,178.31693 C 231.11043,178.31693 229.47342,176.35252 229.47342,173.93208 C 229.47342,171.51165 231.11043,169.54724 233.12746,169.54724 C 235.14448,169.54724 236.78149,171.51165 236.78149,173.93208 z "
       id="path2360" />
    <path
       style="color:black;fill:black;fill-opacity:1;fill-rule:evenodd;stroke:none;stroke-width:1.43352962;stroke-linecap:round;stroke-linejoin:round;stroke-miterlimit:4;stroke-dashoffset:0;stroke-opacity:1;marker:none;marker-start:none;marker-mid:none;marker-end:none;visibility:visible;display:inline;overflow:visible"
       d="M 265.13854,101.97066 C 249.32839,105.88304 244.23234,123.43979 241.72966,137.54637 C 237.40381,171.38508 235.97075,206.98168 247.87299,239.51735 C 253.10956,253.69666 264.83727,268.76118 281.51756,267.70448 C 297.14171,267.66695 311.67426,256.16083 314.55662,240.65087 C 319.98258,220.82189 319.70735,199.83102 318.21103,179.48962 C 314.91049,153.84744 306.12677,127.32139 287.07352,109.05112 C 280.92831,104.0932 273.2275,100.33205 265.13854,101.97066 z M 315.52862,194.5243 C 315.52862,238.09611 310.58208,264.06179 278.8805,264.06179 C 256.5759,264.06179 242.23238,227.75947 242.23238,184.18766 C 242.23238,140.61588 247.17894,105.25323 269.48356,105.25323 C 291.78816,105.25323 315.52862,150.95252 315.52862,194.5243 z "
       id="path2160" />
    <path
       style="color:black;fill:url(#linearGradient1925);fill-opacity:1;fill-rule:evenodd;stroke:none;stroke-width:5;stroke-linecap:round;stroke-linejoin:round;stroke-miterlimit:4;stroke-dashoffset:0;stroke-opacity:1;marker:none;marker-start:none;marker-mid:none;marker-end:none;visibility:visible;display:inline;overflow:visible"
       d="M 260.19666,112.54801 C 247.9613,126.56963 247.99449,146.34149 246.50823,163.87262 C 245.28523,192.6761 245.37801,223.88463 261.43484,248.99461 C 263.34354,253.97924 268.82853,257.10041 271.83762,251.02931 C 276.76145,242.37812 273.31926,231.83674 274.3601,222.36741 C 274.2429,188.39243 274.74472,154.25546 273.70941,120.38305 C 271.72297,115.42173 265.76964,110.60413 260.19666,112.54801 z "
       id="rect2203" />
    <path
       style="fill:#8a6223;fill-opacity:1;fill-rule:evenodd;stroke:none;stroke-width:1px;stroke-linecap:butt;stroke-linejoin:miter;stroke-opacity:1"
       d="M 74.929199,162.32983 C 76.987645,165.19199 77.25393,168.82565 78.236608,172.11413 C 78.945158,174.90055 80.216881,177.52756 81.949392,179.8199 C 83.708028,182.46143 85.174587,185.62251 84.561586,188.87253 C 84.181468,191.40448 82.996833,193.99902 80.836641,195.4695 C 78.968963,196.05936 77.655162,194.14275 76.9042,192.7218 C 75.252202,189.71213 75.667518,186.18247 75.29306,182.89048 C 75.038445,179.65995 74.935969,176.41618 74.776127,173.18355 C 74.280918,170.18682 72.865436,167.10967 73.890201,164.06532 C 74.027838,163.42275 74.075262,162.40574 74.929199,162.32983 z "
       id="path2127" />
    <path
       style="fill:#8a6223;fill-opacity:1;fill-rule:evenodd;stroke:none;stroke-width:1px;stroke-linecap:butt;stroke-linejoin:miter;stroke-opacity:1"
       d="M 83.947596,208.95054 C 84.259835,216.32083 82.945082,223.88142 85.137919,231.07477 C 86.76209,237.35519 88.58831,243.63937 89.193912,250.11965 C 89.544816,251.02833 88.538491,252.81328 87.888684,251.29099 C 85.854635,244.22017 83.459231,237.18936 82.52627,229.86232 C 82.015154,224.39879 83.105876,218.80401 82.384166,213.44128 C 82.121274,211.48781 83.730159,209.67914 83.89947,208.31504 L 83.910383,208.65815 L 83.947596,208.95054 L 83.947596,208.95054 z "
       id="path2129" />
    <path
       style="fill:#8a6223;fill-opacity:1;fill-rule:evenodd;stroke:none;stroke-width:1px;stroke-linecap:butt;stroke-linejoin:miter;stroke-opacity:1"
       d="M 123.54426,174.62905 C 118.84929,175.5431 115.17379,178.83775 110.94202,180.83375 C 108.16876,182.23355 105.14112,182.99369 102.10974,183.58499 C 98.56412,184.46659 94.825683,185.99528 92.82573,189.2419 C 91.459984,191.25971 90.632644,193.85375 91.362048,196.26117 C 92.545083,197.83722 94.79534,197.48364 96.453821,197.03853 C 100.06326,196.19599 102.77749,193.53876 105.49313,191.19805 C 108.7777,188.60031 111.86067,185.75837 115.04984,183.04979 C 117.77665,181.17337 121.18203,179.94748 122.9434,176.9665 C 123.25127,176.26531 124.36339,175.38897 123.54426,174.62905 z "
       id="path2131" />
  </g>
</svg>
