<svg width="250" height="250" xmlns="http://www.w3.org/2000/svg">
 <metadata id="metadata15">image/svg+xml</metadata>

 <g>
  <title>background</title>
  <rect fill="none" id="canvas_background" height="402" width="582" y="-1" x="-1"/>
 </g>
 <g>
  <title>Layer 1</title>
  <path stroke="#000000" fill="#373737" fill-rule="nonzero" stroke-width="7.093133" stroke-miterlimit="4" id="path19684" d="m243.891,128.590978c0,63.504741 -51.288329,115.044822 -114.48286,115.044822c-63.19453,0 -114.48286,-51.540081 -114.48286,-115.044822c0,-63.50476 51.288329,-115.044851 114.48286,-115.044851c63.19453,0 114.48286,51.54009 114.48286,115.044851z"/>
  <path stroke="#9f9f9f" opacity="0.81405" fill="#ca0c11" fill-rule="nonzero" stroke-width="6.428464" stroke-miterlimit="4" id="light" d="m232.96458,130.080628c0,55.992951 -46.5174,101.436492 -103.83347,101.436492c-57.316061,0 -103.83346,-45.443541 -103.83346,-101.436492c0,-55.992941 46.5174,-101.436482 103.83346,-101.436482c57.31607,0 103.83347,45.443541 103.83347,101.436482z"/>
  <path opacity="0.570248" fill="#ffffff" fill-rule="evenodd" stroke="#000000" stroke-width="1px" id="path2766" d="m64.67041,73.66266c32.53605,-26.10917 40.16796,-15.26382 40.16796,-15.26382c0,0 11.23201,17.50224 -20.48566,40.56963c-30.92932,22.49406 -26.51085,20.88734 -38.56124,19.6823c-12.05039,-1.20504 2.81176,-34.54444 18.87894,-44.98811z"/>
 </g>
</svg>