<?xml version="1.0" encoding="UTF-8" standalone="no"?>
<!-- Created with Inkscape (http://www.inkscape.org/) -->
<svg
   xmlns:dc="http://purl.org/dc/elements/1.1/"
   xmlns:cc="http://web.resource.org/cc/"
   xmlns:rdf="http://www.w3.org/1999/02/22-rdf-syntax-ns#"
   xmlns:svg="http://www.w3.org/2000/svg"
   xmlns="http://www.w3.org/2000/svg"
   xmlns:sodipodi="http://sodipodi.sourceforge.net/DTD/sodipodi-0.dtd"
   xmlns:inkscape="http://www.inkscape.org/namespaces/inkscape"
   version="1.0"
   x="0.00000000"
   y="0.00000000"
   width="32.000000px"
   height="47.000000px"
   id="svg2"
   sodipodi:version="0.32"
   inkscape:version="0.44.1"
   sodipodi:docname="image.svg"
   sodipodi:docbase="Y:\java\carmelo's exp Lab 3\Distribution\Elements\FrontElements\2Dekoratoren\SVGImage\bin">
  <metadata
     id="metadata18">
    <rdf:RDF>
      <cc:Work
         rdf:about="">
        <dc:format>image/svg+xml</dc:format>
        <dc:type
           rdf:resource="http://purl.org/dc/dcmitype/StillImage" />
      </cc:Work>
    </rdf:RDF>
  </metadata>
  <defs
     id="defs16" />
  <sodipodi:namedview
     inkscape:window-height="975"
     inkscape:window-width="1280"
     inkscape:pageshadow="2"
     inkscape:pageopacity="0.0"
     borderopacity="1.0"
     bordercolor="#666666"
     pagecolor="#ffffff"
     id="base"
     inkscape:zoom="10.751148"
     inkscape:cx="15.625"
     inkscape:cy="19.994186"
     inkscape:window-x="-4"
     inkscape:window-y="-4"
     inkscape:current-layer="svg2"
     width="50px"
     height="50px" />
  <path
     d="M 10.325277,23.476702 L 22.498132,23.476702 L 22.498132,46.147213 L 10.325277,46.147213 L 10.325277,23.476702 z "
     style="fill:none;stroke:none"
     id="off" />
  <path
     d="M 10.615337,1.2771427 L 22.788192,1.2771427 L 22.788192,23.869427 L 10.615337,23.869427 L 10.615337,1.2771427 z "
     style="fill:none;stroke:none"
     id="on" />
  <path
     style="fill:#ffffb2;fill-opacity:1;fill-rule:evenodd;stroke:black;stroke-width:1.07118106;stroke-opacity:1"
     d="M 0.96572357,0.90098447 L 31.216885,0.90098447 L 31.216885,46.220305 L 0.96572357,46.220305 L 0.96572357,0.90098447 z "
     id="rect3685" />
  <path
     style="font-size:12px;font-style:normal;font-weight:normal;fill:black;fill-opacity:1;stroke:none;stroke-width:1px;stroke-linecap:butt;stroke-linejoin:miter;stroke-opacity:1;font-family:Bitstream Vera Sans"
     d="M 7.1791954,19.11132 L 7.7153282,19.064445 C 7.740718,19.27929 7.7998,19.45556 7.8925743,19.593254 C 7.9853467,19.73095 8.1293895,19.842278 8.3247032,19.927238 C 8.5200141,20.0122 8.7397404,20.05468 8.9838829,20.05468 C 9.2006775,20.05468 9.3920835,20.022454 9.5581017,19.958 C 9.7241145,19.893548 9.8476495,19.805169 9.9287071,19.692863 C 10.009759,19.58056 10.050286,19.458001 10.050289,19.325188 C 10.050286,19.190423 10.011224,19.072748 9.9331017,18.97216 C 9.8549737,18.871576 9.7260676,18.787103 9.5463829,18.718742 C 9.431146,18.673822 9.1762634,18.603998 8.7817345,18.50927 C 8.3872017,18.414545 8.1108348,18.32519 7.9526329,18.241203 C 7.7475539,18.133784 7.5947221,18.000483 7.4941368,17.841301 C 7.3935504,17.682124 7.3432575,17.503902 7.3432579,17.306633 C 7.3432575,17.08984 7.4047808,16.887203 7.5278282,16.698723 C 7.6508744,16.51025 7.8305617,16.367184 8.0668907,16.269524 C 8.3032174,16.171872 8.5659125,16.123044 8.8549767,16.123039 C 9.1733338,16.123044 9.4540952,16.174313 9.6972618,16.276848 C 9.9404228,16.379391 10.127434,16.53027 10.258297,16.729485 C 10.389153,16.928707 10.459465,17.154293 10.469234,17.406242 L 9.9243126,17.447258 C 9.8950127,17.175777 9.7958917,16.970699 9.6269493,16.832024 C 9.4580014,16.693356 9.20849,16.62402 8.8784142,16.624016 C 8.5346625,16.62402 8.2841745,16.687008 8.1269493,16.812981 C 7.9697217,16.938961 7.8911085,17.090816 7.8911095,17.268547 C 7.8911085,17.422847 7.9467725,17.5498 8.0581017,17.649406 C 8.1674754,17.749019 8.4531196,17.851069 8.9150352,17.955559 C 9.3769468,18.060053 9.6938411,18.151362 9.8657188,18.229485 C 10.115716,18.344721 10.300286,18.490717 10.41943,18.667473 C 10.538567,18.844232 10.598137,19.047845 10.598141,19.278313 C 10.598137,19.506829 10.532707,19.722161 10.401852,19.924309 C 10.270989,20.126458 10.083001,20.283684 9.8378868,20.395988 C 9.5927669,20.508293 9.3168883,20.564445 9.0102501,20.564445 C 8.6215765,20.564445 8.2958932,20.507805 8.0331993,20.394524 C 7.7705031,20.281243 7.5644487,20.110833 7.4150352,19.883293 C 7.2656208,19.655755 7.1870076,19.398431 7.1791954,19.11132 L 7.1791954,19.11132 z M 11.315914,16.802727 L 11.315914,16.196281 L 11.843258,16.196281 L 11.843258,16.802727 L 11.315914,16.802727 z M 11.315914,20.491203 L 11.315914,17.379875 L 11.843258,17.379875 L 11.843258,20.491203 L 11.315914,20.491203 z M 12.648922,20.491203 L 12.648922,17.379875 L 13.120602,17.379875 L 13.120602,17.816399 C 13.218257,17.664058 13.34814,17.541499 13.51025,17.448723 C 13.672358,17.355953 13.856928,17.309566 14.063961,17.309563 C 14.294428,17.309566 14.483392,17.357417 14.630856,17.453117 C 14.778314,17.548823 14.882318,17.682612 14.942867,17.854485 C 15.188958,17.491206 15.50927,17.309566 15.903805,17.309563 C 16.212395,17.309566 16.449699,17.395015 16.615719,17.56591 C 16.78173,17.736812 16.864738,17.999995 16.864742,18.355461 L 16.864742,20.491203 L 16.340328,20.491203 L 16.340328,18.531242 C 16.340324,18.320307 16.323234,18.168452 16.289059,18.075676 C 16.254875,17.982905 16.192863,17.908198 16.103024,17.851555 C 16.013176,17.794917 15.907707,17.766597 15.786617,17.766594 C 15.567864,17.766597 15.386224,17.83935 15.241695,17.984856 C 15.097161,18.130366 15.024896,18.363276 15.024899,18.683586 L 15.024899,20.491203 L 14.497555,20.491203 L 14.497555,18.469719 C 14.497553,18.235346 14.454584,18.059565 14.368649,17.942375 C 14.282709,17.82519 14.142084,17.766597 13.946774,17.766594 C 13.798334,17.766597 13.661128,17.805659 13.535152,17.883781 C 13.409175,17.961909 13.317866,18.076167 13.261227,18.226555 C 13.204585,18.376948 13.176265,18.593744 13.176266,18.876945 L 13.176266,20.491203 L 12.648922,20.491203 z M 17.652828,21.683586 L 17.652828,17.379875 L 18.133297,17.379875 L 18.133297,17.784172 C 18.246577,17.625972 18.374507,17.50732 18.517086,17.428215 C 18.659663,17.349117 18.832514,17.309566 19.035641,17.309563 C 19.301264,17.309566 19.535638,17.377925 19.738766,17.514641 C 19.941888,17.651362 20.095208,17.844233 20.198727,18.093254 C 20.302239,18.34228 20.353997,18.615229 20.354,18.912102 C 20.353997,19.230462 20.296868,19.517083 20.182613,19.771965 C 20.068353,20.026848 19.902337,20.222161 19.684566,20.357903 C 19.466791,20.493645 19.237787,20.561516 18.997555,20.561516 C 18.821772,20.561516 18.664057,20.524406 18.52441,20.450188 C 18.384761,20.375969 18.270015,20.282219 18.180172,20.168938 L 18.180172,21.683586 L 17.652828,21.683586 z M 18.130367,18.953117 C 18.130366,19.353509 18.211421,19.649407 18.373531,19.840813 C 18.535639,20.032219 18.731928,20.127922 18.962399,20.127922 C 19.196772,20.127922 19.397455,20.028801 19.564449,19.830559 C 19.731439,19.632317 19.814935,19.325189 19.814938,18.909172 C 19.814935,18.51269 19.733392,18.215815 19.570309,18.018547 C 19.407221,17.821284 19.212397,17.722651 18.985836,17.722649 C 18.761225,17.722651 18.562495,17.827632 18.389645,18.03759 C 18.216792,18.247553 18.130366,18.552729 18.130367,18.953117 L 18.130367,18.953117 z M 20.980953,20.491203 L 20.980953,16.196281 L 21.508297,16.196281 L 21.508297,20.491203 L 20.980953,20.491203 z M 24.458492,19.48925 L 25.003414,19.556633 C 24.917474,19.874993 24.758294,20.122063 24.525875,20.297844 C 24.293451,20.473625 23.996576,20.561516 23.63525,20.561516 C 23.180171,20.561516 22.819331,20.421379 22.552731,20.141106 C 22.286129,19.860833 22.152828,19.467767 22.152828,18.961906 C 22.152828,18.438471 22.287593,18.032221 22.557125,17.743156 C 22.826655,17.454097 23.176264,17.309566 23.605953,17.309563 C 24.021967,17.309566 24.36181,17.451167 24.625484,17.734367 C 24.889153,18.017573 25.020989,18.41601 25.020992,18.92968 C 25.020989,18.960931 25.020013,19.007806 25.018063,19.070305 L 22.69775,19.070305 C 22.717281,19.412103 22.81396,19.673821 22.987789,19.855461 C 23.161616,20.037102 23.378413,20.127922 23.63818,20.127922 C 23.831537,20.127922 23.996576,20.077141 24.133297,19.975578 C 24.270013,19.874016 24.378412,19.711907 24.458492,19.48925 L 24.458492,19.48925 z M 22.727047,18.636711 L 24.464352,18.636711 C 24.440912,18.374994 24.374505,18.178706 24.265133,18.047844 C 24.097162,17.844722 23.879389,17.743159 23.611813,17.743156 C 23.369624,17.743159 23.166011,17.824214 23.000973,17.98632 C 22.835933,18.148432 22.744624,18.365229 22.727047,18.636711 L 22.727047,18.636711 z M 5.9272423,25.400134 L 6.2846642,25.368884 C 6.3015907,25.512114 6.3409787,25.629627 6.4028282,25.721424 C 6.4646765,25.813221 6.560705,25.88744 6.6909142,25.94408 C 6.8211214,26.000721 6.9676056,26.029041 7.1303673,26.029041 C 7.274897,26.029041 7.402501,26.007557 7.5131798,25.964588 C 7.623855,25.921619 7.7062117,25.8627 7.7602501,25.78783 C 7.8142845,25.712961 7.8413027,25.631255 7.8413048,25.542713 C 7.8413027,25.45287 7.815261,25.374419 7.7631798,25.307361 C 7.7110945,25.240305 7.6251571,25.18399 7.5053673,25.138416 C 7.4285427,25.108469 7.258621,25.06192 6.9956017,24.998767 C 6.7325798,24.935618 6.5483352,24.876047 6.4428673,24.820056 C 6.306148,24.748443 6.2042601,24.659576 6.1372032,24.553455 C 6.0701456,24.447337 6.036617,24.328522 6.0366173,24.197009 C 6.036617,24.05248 6.0776326,23.917389 6.1596642,23.791736 C 6.2416949,23.666088 6.3614865,23.57071 6.5190392,23.505603 C 6.6765903,23.440502 6.8517203,23.40795 7.0444298,23.407947 C 7.2566679,23.40795 7.4438421,23.44213 7.6059532,23.510486 C 7.7680606,23.578848 7.8927349,23.679434 7.9799767,23.812244 C 8.0672139,23.945059 8.1140889,24.095449 8.1206017,24.263416 L 7.7573204,24.290759 C 7.7377872,24.109772 7.6717065,23.973053 7.5590782,23.880603 C 7.4464463,23.788158 7.2801053,23.741934 7.0600548,23.741931 C 6.830887,23.741934 6.663895,23.783926 6.5590782,23.867908 C 6.4542598,23.951895 6.401851,24.053132 6.4018517,24.171619 C 6.401851,24.274485 6.4389603,24.359121 6.5131798,24.425525 C 6.5860956,24.491933 6.7765251,24.559967 7.0844688,24.629627 C 7.3924099,24.69929 7.6036727,24.760162 7.7182579,24.812244 C 7.8849224,24.889068 8.0079692,24.986399 8.0873985,25.104236 C 8.1668232,25.222076 8.2065367,25.357818 8.2065392,25.511463 C 8.2065367,25.663807 8.1629169,25.807362 8.0756798,25.942127 C 7.988438,26.076893 7.8631126,26.18171 7.6997032,26.25658 C 7.53629,26.33145 7.3523709,26.368884 7.1479454,26.368884 C 6.8888297,26.368884 6.6717075,26.331124 6.4965782,26.255603 C 6.3214474,26.180083 6.1840778,26.066476 6.0844688,25.914783 C 5.9848592,25.763091 5.9324504,25.591541 5.9272423,25.400134 L 5.9272423,25.400134 z M 9.5463829,26.320056 L 8.4370079,23.456775 L 8.8471642,23.456775 L 9.5913048,25.536853 C 9.6511994,25.703521 9.7013295,25.85977 9.7416954,26.005603 C 9.7859649,25.849354 9.8373971,25.693104 9.8959923,25.536853 L 10.66943,23.456775 L 11.056149,23.456775 L 9.9350548,26.320056 L 9.5463829,26.320056 z M 12.739742,25.197009 L 12.739742,24.861072 L 13.952633,24.859119 L 13.952633,25.921619 C 13.766432,26.070057 13.574375,26.18171 13.376461,26.25658 C 13.178542,26.33145 12.975417,26.368884 12.767086,26.368884 C 12.485835,26.368884 12.230301,26.308663 12.000484,26.18822 C 11.770666,26.067778 11.597164,25.893624 11.479977,25.665759 C 11.362789,25.437896 11.304195,25.183339 11.304195,24.902088 C 11.304195,24.623443 11.362463,24.363353 11.479,24.121814 C 11.595536,23.88028 11.763179,23.700918 11.98193,23.583728 C 12.200679,23.466544 12.452632,23.40795 12.737789,23.407947 C 12.944819,23.40795 13.131993,23.441479 13.299313,23.508533 C 13.466628,23.575593 13.597813,23.669017 13.692867,23.788806 C 13.787917,23.9086 13.860182,24.06485 13.909664,24.257556 L 13.567867,24.351306 C 13.524896,24.205475 13.471511,24.090892 13.407711,24.007556 C 13.343907,23.924225 13.252761,23.857494 13.134274,23.807361 C 13.015782,23.757233 12.884272,23.732168 12.739742,23.732166 C 12.566564,23.732168 12.416824,23.758535 12.290524,23.811267 C 12.16422,23.864004 12.062332,23.93334 11.984859,24.019275 C 11.907385,24.105215 11.847163,24.199616 11.804195,24.302478 C 11.731278,24.479563 11.69482,24.671621 11.69482,24.87865 C 11.69482,25.13386 11.738765,25.347401 11.826656,25.519275 C 11.914546,25.691151 12.042476,25.818755 12.210445,25.902088 C 12.378413,25.985421 12.556798,26.027088 12.745602,26.027088 C 12.909662,26.027088 13.069818,25.995512 13.22607,25.932361 C 13.382318,25.86921 13.500808,25.801828 13.581539,25.730213 L 13.581539,25.197009 L 12.739742,25.197009 z M 15.683102,26.320056 L 15.683102,23.456775 L 16.062008,23.456775 L 16.062008,26.320056 L 15.683102,26.320056 z M 16.683102,26.320056 L 16.683102,24.245838 L 16.997555,24.245838 L 16.997555,24.536853 C 17.062658,24.435293 17.149247,24.353587 17.25732,24.291736 C 17.365392,24.229889 17.488439,24.198965 17.626461,24.198963 C 17.780106,24.198965 17.906082,24.230866 18.004391,24.294666 C 18.102696,24.35847 18.172032,24.447662 18.212399,24.562244 C 18.376459,24.320058 18.590001,24.198965 18.853024,24.198963 C 19.05875,24.198965 19.216953,24.255931 19.327633,24.369861 C 19.438307,24.483795 19.493645,24.659251 19.493649,24.896228 L 19.493649,26.320056 L 19.144039,26.320056 L 19.144039,25.013416 C 19.144036,24.872792 19.132643,24.771555 19.109859,24.709705 C 19.08707,24.647858 19.045729,24.598053 18.985836,24.560291 C 18.925938,24.522532 18.855625,24.503652 18.774899,24.50365 C 18.629063,24.503652 18.507969,24.552154 18.411617,24.649158 C 18.315261,24.746165 18.267084,24.901438 18.267086,25.114978 L 18.267086,26.320056 L 17.915524,26.320056 L 17.915524,24.9724 C 17.915522,24.816152 17.886876,24.698964 17.829586,24.620838 C 17.772293,24.542714 17.678543,24.503652 17.548336,24.50365 C 17.449377,24.503652 17.357905,24.529694 17.273922,24.581775 C 17.189937,24.63386 17.129064,24.710032 17.091305,24.810291 C 17.053544,24.910553 17.034664,25.055084 17.034664,25.243884 L 17.034664,26.320056 L 16.683102,26.320056 z M 21.372555,26.064197 C 21.242345,26.174874 21.11702,26.252999 20.996578,26.298572 C 20.876134,26.344145 20.746903,26.366931 20.608883,26.366931 C 20.381018,26.366931 20.205888,26.311267 20.083492,26.199939 C 19.961096,26.088611 19.899898,25.946359 19.899899,25.773181 C 19.899898,25.67162 19.92301,25.578846 19.969234,25.494861 C 20.015458,25.410878 20.076005,25.343495 20.150875,25.292713 C 20.225744,25.241932 20.310054,25.203521 20.403805,25.177478 C 20.472814,25.15925 20.576981,25.141672 20.716305,25.124744 C 21.000158,25.090891 21.209142,25.050526 21.343258,25.00365 C 21.344558,24.955474 21.345209,24.924875 21.345211,24.911853 C 21.345209,24.768626 21.312006,24.667714 21.245602,24.609119 C 21.155757,24.529694 21.022293,24.48998 20.845211,24.489978 C 20.679846,24.48998 20.557775,24.518951 20.479,24.576892 C 20.400223,24.634837 20.341955,24.737376 20.304195,24.884509 L 19.960445,24.837634 C 19.991695,24.690501 20.043127,24.571686 20.114742,24.481189 C 20.186356,24.390696 20.289872,24.321035 20.425289,24.272205 C 20.560705,24.223379 20.717606,24.198965 20.895992,24.198963 C 21.073074,24.198965 21.216954,24.219798 21.327633,24.261463 C 21.438308,24.303131 21.519688,24.35554 21.571774,24.418689 C 21.623855,24.481842 21.660313,24.561595 21.681149,24.657947 C 21.692865,24.717844 21.698725,24.825917 21.698727,24.982166 L 21.698727,25.450916 C 21.698725,25.777739 21.706212,25.984445 21.721188,26.071033 C 21.73616,26.157622 21.765782,26.240629 21.810055,26.320056 L 21.442867,26.320056 C 21.406407,26.24714 21.38297,26.161853 21.372555,26.064197 L 21.372555,26.064197 z M 21.343258,25.279041 C 21.215652,25.331125 21.024246,25.375396 20.769039,25.411853 C 20.624507,25.432687 20.522294,25.456125 20.462399,25.482166 C 20.402502,25.508208 20.356278,25.546294 20.323727,25.596424 C 20.291174,25.646554 20.274898,25.702218 20.274899,25.763416 C 20.274898,25.857166 20.31038,25.935291 20.381344,25.997791 C 20.452307,26.060291 20.556148,26.091541 20.692867,26.091541 C 20.828283,26.091541 20.948725,26.061919 21.054195,26.002674 C 21.159663,25.943429 21.237137,25.862375 21.286617,25.759509 C 21.324376,25.680083 21.343256,25.562896 21.343258,25.407947 L 21.343258,25.279041 z M 22.181149,26.491931 L 22.522945,26.542713 C 22.537268,26.648181 22.576981,26.725004 22.642086,26.773181 C 22.729325,26.838285 22.848465,26.870837 22.999508,26.870838 C 23.162267,26.870837 23.287918,26.838285 23.376461,26.773181 C 23.465001,26.708077 23.524897,26.616931 23.556149,26.499744 C 23.574376,26.428129 23.58284,26.277739 23.581539,26.048572 C 23.427892,26.229562 23.236486,26.320056 23.00732,26.320056 C 22.722163,26.320056 22.501461,26.217192 22.345211,26.011463 C 22.188961,25.805734 22.110836,25.558989 22.110836,25.271228 C 22.110836,25.073313 22.146643,24.890696 22.218258,24.723377 C 22.289872,24.556061 22.393713,24.426829 22.529781,24.335681 C 22.665848,24.244538 22.825679,24.198965 23.009274,24.198963 C 23.254064,24.198965 23.455887,24.297923 23.614742,24.495838 L 23.614742,24.245838 L 23.938961,24.245838 L 23.938961,26.038806 C 23.938959,26.361723 23.906082,26.590564 23.840328,26.72533 C 23.774571,26.860095 23.670405,26.96654 23.527828,27.044666 C 23.385249,27.12279 23.209793,27.161852 23.001461,27.161853 C 22.754064,27.161852 22.554195,27.106188 22.401852,26.994861 C 22.249508,26.883532 22.17594,26.715889 22.181149,26.491931 L 22.181149,26.491931 z M 22.472164,25.245838 C 22.472164,25.517974 22.5262,25.716541 22.634274,25.841541 C 22.742346,25.966541 22.877762,26.029041 23.040524,26.029041 C 23.201981,26.029041 23.337397,25.966867 23.446774,25.842517 C 23.556147,25.718169 23.610834,25.523182 23.610836,25.257556 C 23.610834,25.003651 23.554519,24.812245 23.441891,24.683338 C 23.329259,24.554433 23.193517,24.48998 23.034664,24.489978 C 22.878413,24.48998 22.745601,24.553457 22.636227,24.680408 C 22.526851,24.807363 22.472164,24.995839 22.472164,25.245838 L 22.472164,25.245838 z M 25.892086,25.652088 L 26.255367,25.697009 C 26.198074,25.909249 26.091954,26.073963 25.937008,26.19115 C 25.782058,26.308338 25.584142,26.366931 25.343258,26.366931 C 25.039872,26.366931 24.799312,26.273507 24.621578,26.086658 C 24.443844,25.899809 24.354977,25.637765 24.354977,25.300525 C 24.354977,24.951568 24.44482,24.680735 24.624508,24.488025 C 24.804195,24.295319 25.037267,24.198965 25.323727,24.198963 C 25.601069,24.198965 25.827631,24.293366 26.003414,24.482166 C 26.179193,24.670969 26.267084,24.936594 26.267086,25.279041 C 26.267084,25.299875 26.266433,25.331125 26.265133,25.372791 L 24.718258,25.372791 C 24.731278,25.600656 24.795731,25.775135 24.911617,25.896228 C 25.027502,26.017322 25.172033,26.077869 25.345211,26.077869 C 25.474116,26.077869 25.584142,26.044015 25.675289,25.976306 C 25.766433,25.908598 25.838699,25.800526 25.892086,25.652088 L 25.892086,25.652088 z M 24.737789,25.083728 L 25.895992,25.083728 C 25.880366,24.90925 25.836095,24.778391 25.76318,24.69115 C 25.651199,24.555735 25.506017,24.488027 25.327633,24.488025 C 25.166174,24.488027 25.030432,24.542063 24.920406,24.650134 C 24.81038,24.758209 24.749507,24.90274 24.737789,25.083728 L 24.737789,25.083728 z "
     id="text3689" />
</svg>
