<svg xmlns="http://www.w3.org/2000/svg" width="16" height="16" viewBox="0 0 16 16"><rect id="frame" width="16" height="16" fill="none"/><path fill="#6E6E6E" d="M6.532 5.11c.153-.334.24-.7.24-1.094a2.665 2.665 0 1 0-5.332 0 2.665 2.665 0 0 0 2.666 2.666c.393 0 .76-.087 1.093-.24l1.573 1.573-1.573 1.573c-.333-.153-.7-.24-1.093-.24a2.665 2.665 0 1 0 0 5.332 2.665 2.665 0 0 0 2.666-2.666c0-.393-.087-.76-.24-1.093l1.573-1.573L12.771 14h1.999v-.653L6.532 5.109zm-2.427.227a1.332 1.332 0 1 1 0-2.665 1.332 1.332 0 0 1 0 2.665zm0 7.998a1.332 1.332 0 1 1 0-2.665 1.332 1.332 0 0 1 0 2.665zm3.998-4.999a.33.33 0 0 1-.333-.333.33.33 0 0 1 .333-.333.33.33 0 0 1 .334.333.33.33 0 0 1-.334.333zm4.668-6.331L8.773 6.004l1.333 1.333L14.77 2.67v-.666h-1.999z"/></svg>