<?xml version="1.0" encoding="UTF-8" standalone="no"?>
<svg
   xmlns:dc="http://purl.org/dc/elements/1.1/"
   xmlns:cc="http://creativecommons.org/ns#"
   xmlns:rdf="http://www.w3.org/1999/02/22-rdf-syntax-ns#"
   xmlns:svg="http://www.w3.org/2000/svg"
   xmlns="http://www.w3.org/2000/svg"
   xmlns:sodipodi="http://sodipodi.sourceforge.net/DTD/sodipodi-0.dtd"
   xmlns:inkscape="http://www.inkscape.org/namespaces/inkscape"
   width="100"
   height="52"
   viewBox="0 0 100 52.004044"
   version="1.1"
   id="svg4"
   sodipodi:docname="Sony Pictures Inc. logo.svg"
   inkscape:version="0.91 r13725">
  <title
     id="title3359">University Católica of Colombia logo</title>
  <metadata
     id="metadata10">
    <rdf:RDF>
      <cc:Work
         rdf:about="">
        <dc:format>image/svg+xml</dc:format>
        <dc:type
           rdf:resource="http://purl.org/dc/dcmitype/StillImage" />
        <dc:title>University Católica of Colombia logo</dc:title>
        <cc:license
           rdf:resource="http://scripts.sil.org/OFL" />
      </cc:Work>
      <cc:License
         rdf:about="http://scripts.sil.org/OFL">
        <cc:permits
           rdf:resource="http://scripts.sil.org/pub/OFL/Reproduction" />
        <cc:permits
           rdf:resource="http://scripts.sil.org/pub/OFL/Distribution" />
        <cc:permits
           rdf:resource="http://scripts.sil.org/pub/OFL/Embedding" />
        <cc:permits
           rdf:resource="http://scripts.sil.org/pub/OFL/DerivativeWorks" />
        <cc:requires
           rdf:resource="http://scripts.sil.org/pub/OFL/Notice" />
        <cc:requires
           rdf:resource="http://scripts.sil.org/pub/OFL/Attribution" />
        <cc:requires
           rdf:resource="http://scripts.sil.org/pub/OFL/ShareAlike" />
        <cc:requires
           rdf:resource="http://scripts.sil.org/pub/OFL/DerivativeRenaming" />
        <cc:requires
           rdf:resource="http://scripts.sil.org/pub/OFL/BundlingWhenSelling" />
      </cc:License>
    </rdf:RDF>
  </metadata>
  <defs
     id="defs8">
    <filter
       style="color-interpolation-filters:sRGB"
       inkscape:label="Feather"
       id="filter6079">
      <feGaussianBlur
         stdDeviation="11.91"
         result="blur"
         id="feGaussianBlur6081" />
      <feComposite
         in="SourceGraphic"
         in2="blur"
         operator="atop"
         result="composite1"
         id="feComposite6083" />
      <feComposite
         in2="composite1"
         operator="in"
         result="composite2"
         id="feComposite6085" />
      <feComposite
         in2="composite2"
         operator="in"
         result="composite3"
         id="feComposite6087" />
    </filter>
  </defs>
  <sodipodi:namedview
     pagecolor="#ffffff"
     bordercolor="#000000"
     borderopacity="0.39215686"
     objecttolerance="1"
     gridtolerance="1"
     guidetolerance="1"
     inkscape:pageopacity="0"
     inkscape:pageshadow="2"
     inkscape:window-width="1366"
     inkscape:window-height="705"
     id="namedview6"
     showgrid="false"
     inkscape:zoom="1"
     inkscape:cx="75.384429"
     inkscape:cy="31.391094"
     inkscape:window-x="-8"
     inkscape:window-y="-8"
     inkscape:window-maximized="1"
     inkscape:current-layer="svg4"
     inkscape:pagecheckerboard="false"
     inkscape:showpageshadow="false"
     borderlayer="true" />
  <path
     d="m 36.681617,24.737502 23.704561,0.0505 c -1.086604,1.79428 -2.628222,3.28529 -4.498339,4.29615 -1.667864,0.90976 -6.393629,2.09752 -7.328657,5.25644 -0.909802,-3.15892 -5.635568,-4.34668 -7.32877,-5.25644 -1.870006,-1.01086 -3.462129,-2.52714 -4.548795,-4.3467 z"
     id="path320-6"
     inkscape:connector-curvature="0"
     style="clip-rule:evenodd;fill:#fbbf00;fill-opacity:1;fill-rule:evenodd" />
  <path
     d="m 37.491217,15.417292 0,-0.25272 c 0,-1.03613 -0.7834,-1.87009 -1.768991,-1.99645 0.353775,-2.1228 0.884469,-4.801559 1.46572,-7.7330384 l 22.719029,0.02523 c 0.581198,2.9314794 1.137226,5.6102484 1.465718,7.7077684 -1.010877,0.10109 -1.768938,0.96032 -1.768938,1.99644 0,0 0,0.17691 0.0249,0.25272 -0.07574,-0.0253 -22.137717,0 -22.137717,0 z"
     id="path324-2"
     inkscape:connector-curvature="0"
     style="clip-rule:evenodd;fill:#0072b6;fill-rule:evenodd" />
  <path
     d="m 36.132574,4.8475926 c 3.032623,-1.7942746 7.480349,0.07581 12.484096,0.07581 4.826786,0 9.249337,-1.9206326 12.281901,-0.227451 0,0 -0.480177,-2.4513238 -0.505405,-2.4513238 C 57.385873,0.98105483 53.190749,2.750054 48.61667,2.750054 c -4.725761,0 -8.971343,-1.6679012 -12.003913,-0.3285222 0.0249,0 -0.480183,2.4260588 -0.480183,2.4260588 z"
     id="path318"
     inkscape:connector-curvature="0"
     style="clip-rule:evenodd;fill:#fbbf00;fill-opacity:1;fill-rule:evenodd" />
  <path
     d="m 76.867483,38.316932 -0.984936,1.56552 0.914512,0 1.548004,-1.56552 -1.47758,0 z m -16.129642,1.89978 c -1.020181,0 -1.635544,0.36924 -2.004905,0.73863 -0.545259,0.54527 -0.826925,1.21394 -0.826925,2.04063 0,0.79153 0.246369,1.54773 0.844407,2.14577 0.439799,0.43974 1.05537,0.72109 1.934859,0.72109 1.16088,0 2.005237,-0.49243 2.620917,-1.51261 l -0.668569,-0.42221 c -0.404558,0.59803 -0.949917,0.96741 -1.723895,0.96741 -1.1081,0 -1.811483,-0.87947 -1.811483,-2.02278 0,-1.19608 0.844299,-1.77645 1.758919,-1.77645 0.615629,0 1.354259,0.2815 1.794,1.03783 l 0.316697,0 -0.299164,-1.79431 -0.210963,0 -0.193429,0.21128 c -0.474923,-0.22867 -1.002806,-0.33428 -1.530466,-0.33428 z m 4.960392,0 -2.110748,4.5382 c -0.281399,0.59804 -0.387011,0.70337 -0.598089,0.75613 l 0,0.1759 1.635977,0 0,-0.1759 c -0.193473,0 -0.246369,-0.10539 -0.246369,-0.21093 0,-0.0879 0.05305,-0.19342 0.08797,-0.28136 l 0.281399,-0.58058 2.216149,0 0.299258,0.61562 c 0.05248,0.10554 0.07009,0.17597 0.07009,0.24632 0,0.10554 -0.07045,0.19335 -0.263859,0.21093 l 0,0.1759 1.882244,0 0,-0.19341 c -0.24626,-0.10554 -0.369586,-0.2815 -0.475096,-0.51016 l -2.25123,-4.76666 -0.527711,0 z m 10.694159,0 c -1.75897,-0.0176 -3.130712,1.14318 -3.130712,2.7614 0,1.60063 1.072969,2.90224 2.902208,2.90224 1.495115,0 3.113175,-0.89685 3.113175,-2.86686 0,-1.53027 -1.12574,-2.79678 -2.884671,-2.79678 z m 12.558811,0 c -1.02013,0 -1.63582,0.36924 -2.00524,0.73863 -0.54525,0.54527 -0.82654,1.21394 -0.82654,2.04063 0,0.79153 0.24637,1.54773 0.84441,2.14577 0.43974,0.43974 1.05537,0.72109 1.93485,0.72109 1.16088,0 2.00492,-0.49243 2.62055,-1.51261 l -0.68568,-0.42221 c -0.40462,0.59803 -0.94998,0.96741 -1.72395,0.96741 -1.1081,0 -1.81181,-0.87947 -1.81181,-2.02278 0,-1.19608 0.8443,-1.77645 1.75892,-1.77645 0.61563,0 1.35463,0.2815 1.79432,1.03783 l 0.31642,0 -0.29888,-1.79431 -0.19343,0 -0.19342,0.21128 c -0.47488,-0.22867 -1.00281,-0.33428 -1.53052,-0.33428 z m 4.94263,0 -2.11075,4.5382 c -0.28145,0.59804 -0.38674,0.70337 -0.59776,0.75613 l 0,0.1759 1.63559,0 0,-0.1759 c -0.19353,0 -0.24631,-0.10539 -0.24631,-0.21093 0,-0.0879 0.0525,-0.19342 0.0879,-0.28136 l 0.28172,-0.58058 2.21615,0 0.29893,0.61562 c 0.0525,0.10554 0.0705,0.17597 0.0705,0.24632 0,0.10554 -0.0704,0.19335 -0.26386,0.21093 l 0,0.1759 1.88192,0 0,-0.19341 c -0.24621,-0.10554 -0.3692,-0.2815 -0.47477,-0.51016 l -2.25155,-4.76666 -0.52766,0 z m -25.680511,0.15837 -0.492312,1.30168 0.246311,0 c 0.193488,-0.26383 0.404559,-0.38716 0.7036,-0.38716 l 1.283783,0 0,3.76419 c 0,0.21108 -0.105351,0.40463 -0.316372,0.42222 l 0,0.21093 1.82903,0 0,-0.19341 c -0.246217,-0.0528 -0.316429,-0.26371 -0.316429,-0.47478 l 0,-3.72915 1.195911,0 c 0.35177,0 0.562957,0.10574 0.756437,0.38716 l 0.263859,0 -0.492637,-1.30168 -4.661181,0 z m 11.398021,0.0175 0,0.17591 -0.0173,0 c 0.21113,0.0703 0.33435,0.21106 0.33435,0.43972 l 0,3.97513 c 0,0.29903 -0.10567,0.4574 -0.33435,0.51017 l 0,0.1934 3.92229,0 0.47509,-1.31919 -0.24631,0 c -0.1231,0.22866 -0.33434,0.43973 -0.75644,0.43973 l -1.86443,0 0,-3.71129 c 0,-0.35179 0.15846,-0.47491 0.31675,-0.52767 l 0,-0.17591 -1.82941,0 z m 4.37985,0 0,0.19342 c 0.21102,0.0528 0.31636,0.19355 0.31636,0.51016 l 0,3.95761 c 0,0.1759 -0.0878,0.35186 -0.29887,0.42221 l 0,0.19342 1.79399,0 0,-0.21094 c -0.24621,-0.0528 -0.31642,-0.28142 -0.31642,-0.52768 l 0,-3.9576 c 0,-0.19348 0.1054,-0.33448 0.29894,-0.36966 l 0,-0.21094 -1.794,0 z m -7.704304,0.66854 c 1.108104,0 1.811854,1.05529 1.811854,2.21619 0,1.14331 -0.87943,1.75894 -1.864425,1.75894 -1.143282,0 -1.794267,-1.07316 -1.794267,-2.23406 0,-0.96741 0.773862,-1.74107 1.846838,-1.74107 z m -10.465663,1.0375 0.721089,1.47758 -1.407141,0 0.686052,-1.47758 z m 28.195927,0 0.72103,1.47758 -1.4071,0 0.68607,-1.47758 z"
     id="path288"
     inkscape:connector-curvature="0" />
  <path
     d="m 57.763962,1.0614638 c -2.635701,0.0038 -5.786984,0.970381 -9.122819,0.970381 -4.675202,0 -8.8195,-1.71865296 -11.826784,-0.455086 0,0 -0.07617,0.379274 -0.152012,0.83416 3.007338,-1.339386 7.227804,0.3282342 11.953619,0.3282342 4.574079,0 8.74387,-1.76900517 11.751156,-0.5054312 -0.07578,-0.45488 -0.15152,-0.783309 -0.15152,-0.783309 -0.751782,-0.28431 -1.573025,-0.390134 -2.45164,-0.388949 z m -0.111574,2.943238 c -2.615886,0.02539 -5.743188,0.9333568 -9.061647,0.9333568 -4.978413,0 -9.42641,-1.8450096 -12.458979,-0.07601 -0.606483,3.1083844 -1.212743,6.2167634 -1.718156,9.3504234 0.631821,0.0758 1.945524,9e-5 1.996034,0.98568 0,0.50542 -0.404177,0.90967 -0.909694,0.90967 -0.404286,0 -1.238136,-0.1767 -1.288695,-0.1767 -0.07579,1.03613 -0.176701,2.07196 -0.176701,3.10809 0,4.77629 2.70364,8.92101 6.671237,11.06908 4.09395,2.19862 5.281846,1.84491 6.292664,3.76553 0.303271,0.58125 0.581528,1.33918 0.935357,2.45113 0.176912,0.58124 1.010654,0.60632 1.187572,0.0504 0.35383,-1.11194 0.631599,-1.86989 0.934865,-2.45113 1.010768,-1.97117 2.173326,-1.592 6.317842,-3.81587 3.967597,-2.14808 6.67172,-6.29279 6.67172,-11.06908 0,-1.03614 -0.100912,-2.07196 -0.176697,-3.1081 -0.05031,0 -0.884419,0.17671 -1.288695,0.17671 -0.505522,0 -0.910181,-0.40426 -0.910181,-0.90968 0,-1.01085 1.314349,-0.93504 1.946169,-1.01085 l -0.177188,-1.13722 C 61.984316,10.245003 61.428555,7.4652452 60.872585,4.6853956 59.924891,4.1641778 58.841528,3.9932068 57.652388,4.0047538 Z m -20.484092,1.4136098 10.213654,0.01131 0,4.0162811 -5.660853,0 0,2.1480793 5.660853,0 0,3.56365 -9.224056,0 0,2.17325 9.224056,0 0,15.07893 c -1.770075,-1.81572 -4.887202,-2.68553 -6.195384,-3.38844 -1.870169,-1.01085 -3.462189,-2.52694 -4.548854,-4.34649 l 0.02274,0 c -0.992791,-1.68208 -1.564624,-3.63469 -1.564624,-5.7369 0,-0.55596 0.02544,-1.18745 0.07606,-1.84451 0.101069,0.0252 0.201926,0.0252 0.302995,0.0252 1.036156,0 1.870222,-0.78343 1.99663,-1.76901 l 0,-0.20188 c 0,-1.03612 -0.783503,-1.87017 -1.76904,-1.99653 0.353775,-2.1228 0.884679,-4.801479 1.465937,-7.7329534 z m 12.361809,0.01386 10.357265,0.01131 c 0.581263,2.9314814 1.136959,5.6102504 1.465451,7.7077704 -1.01087,0.10109 -1.768931,0.96042 -1.768931,1.99654 0,0 -1.08e-4,0.1769 0.0249,0.25271 -1.08e-4,-2e-5 -0.01682,4e-5 -0.01682,0 0.147305,1.00881 0.969241,1.71817 1.988188,1.71817 0.101013,0 0.202026,10e-5 0.277877,-0.0252 0.04981,0.65705 0.07547,1.26328 0.07547,1.84451 0,2.09754 -0.580938,4.0688 -1.591749,5.78726 -1.08672,1.79427 -2.628013,3.28528 -4.498022,4.29615 -1.321125,0.7206 -4.559187,1.61679 -6.313937,3.52762 l 0,-15.21813 9.325228,0 -0.02548,-2.17324 -9.299622,0 0,-3.56366 5.761536,0 0,-2.1480693 -5.761536,0 0,-4.0138101 z"
     id="path312"
     inkscape:connector-curvature="0" />
  <path
     d="M 57.435954,2.3853068 57.208367,3.32065 56.879659,2.4109728 l -0.151477,0 0.05031,1.1115552 0.12645,-0.02517 -0.05031,-0.9096722 0.303538,0.9096722 0.100746,0 0.227536,-0.9348352 0.05031,0.9096622 0.126349,0 -0.07601,-1.0868692 -0.151527,0 z m 0.404233,0.02566 -0.02548,0.7073092 c 0,0.151628 0.0249,0.25291 0.07552,0.328727 0.05031,0.07581 0.151686,0.10119 0.252807,0.10119 0.101021,0 0.202142,-0.02539 0.252656,-0.10119 0.101013,-0.101087 0.126732,-0.20237 0.152011,-0.328727 l 0.0249,-0.7073092 -0.126407,0 -0.0249,0.7073092 c 0,0.101086 -0.02548,0.177001 -0.07606,0.227542 -0.04981,0.05051 -0.100855,0.07601 -0.176647,0.07601 -0.07589,0 -0.126732,-0.0255 -0.177239,-0.07601 -0.05031,-0.05051 -0.05031,-0.126456 -0.05031,-0.227542 l 0.0249,-0.7073092 -0.126408,0 z m -1.743818,0.02517 c -0.07584,0 -0.126191,0.02495 -0.176755,0.07552 -0.04981,0.02523 -0.07573,0.07621 -0.126357,0.1520232 -0.0249,0.05051 -0.05031,0.12606 -0.05031,0.201877 l 0,0.202369 c 0,0.07581 0.02548,0.151331 0.05031,0.201872 0.02541,0.07581 0.05031,0.126655 0.101237,0.177197 0.05031,0.05051 0.07568,0.07591 0.151527,0.101185 0.05031,0.02523 0.12614,0.02517 0.176647,0.02517 0.0759,0 0.126725,-0.02549 0.177239,-0.07602 0.05089,-0.02523 0.07584,-0.07572 0.126349,-0.151525 0.0249,-0.05051 0.05031,-0.126158 0.05031,-0.176709 l 0,-0.227538 c 0,-0.07581 -0.0249,-0.151823 -0.05031,-0.202364 -0.02541,-0.07582 -0.05031,-0.1261572 -0.101172,-0.1767042 -0.05031,-0.05056 -0.07569,-0.07591 -0.151534,-0.10118 -0.05031,-0.02523 -0.126674,-0.02517 -0.177181,-0.02517 z m 2.754687,0 -0.176748,1.0863772 0.100689,0 0.152011,-0.8845 0.126407,0.935333 0.100696,0.02517 0.404775,-0.859321 -0.126466,0.8844998 0.100797,0.02517 0.177188,-1.086371 -0.151519,-0.02517 -0.430011,0.8588282 -0.126292,-0.9348402 -0.151527,-0.02517 z m -19.661446,0.05041 0,1.0616962 0.126408,0 0,-0.455086 0.278365,0 c 0.07584,0 0.151417,-0.0255 0.201872,-0.07601 0.05034,-0.05051 0.07606,-0.125962 0.07606,-0.227044 0,-0.101087 -0.02544,-0.1769972 -0.07606,-0.2275422 -0.0498,-0.05051 -0.100749,-0.07601 -0.201872,-0.07601 l -0.404773,0 z m 1.213285,0 -0.07595,1.0868632 0.58142,0.07552 0.0249,-0.1263514 -0.480237,-0.0504 0.02544,-0.379073 0.454574,0.05035 0,-0.126358 -0.454574,-0.05041 0.02544,-0.328728 0.505463,0.02566 0,-0.1011782 -0.606591,-0.07602 z m -0.376078,0.0064 -0.03843,1.0863712 0.126353,0.0043 0.03843,-1.0863772 -0.126408,-0.0043 z m -1.494085,0.01873 -0.252707,1.112041 0.126353,0 0.07601,-0.3282278 0.379054,-0.02566 0.126299,0.328717 0.126462,0 -0.404285,-1.0611932 -0.177183,-0.02566 z m -0.808463,0.05083 c -0.05034,0 -0.07595,0.02506 -0.101231,0.05041 -0.0249,0.02523 -0.0759,0.05072 -0.101237,0.07601 -0.0249,0.02523 -0.0498,0.07591 -0.0498,0.101186 l 0,0.151535 c 0,0.05051 0.0249,0.101083 0.0498,0.126348 l 0.07611,0.07552 c 0.0249,0.02523 0.05034,0.02566 0.101182,0.02566 0.0249,0 0.0753,-8.7e-5 0.100635,0.02517 l 0.101183,0 c 0.0249,0 0.07595,-1.08e-4 0.101231,0.02517 0.0249,0 0.05034,0.02506 0.07601,0.05041 0.02544,0.02523 0.0249,0.05073 0.0498,0.07601 l 0,0.101179 c 0,0.02523 -0.0249,0.0503 -0.0498,0.07552 -0.0249,0.02523 -0.05034,0.02555 -0.07601,0.05084 -0.02544,0 -0.05034,0.02517 -0.07601,0.02517 l -0.100695,0 c -0.02544,0 -0.05034,-0.02517 -0.101177,-0.02517 l -0.07601,-0.07601 c -0.02544,-0.02523 -0.0249,-0.07592 -0.0498,-0.101185 l -0.101176,0 c 0,0.07581 0.0249,0.12665 0.0498,0.177191 0.0249,0.05051 0.05034,0.07591 0.101177,0.101184 0.05034,0.02523 0.07579,0.0504 0.126299,0.0504 l 0.151579,0 c 0.0498,0 0.07579,-0.02506 0.126299,-0.0504 0.05034,-0.02528 0.07595,-0.05072 0.101231,-0.07601 0.0249,-0.02523 0.05034,-0.07591 0.05034,-0.101179 0.02544,-0.05051 0.02544,-0.10099 0,-0.151543 0,-0.05051 -0.02545,-0.101081 -0.05034,-0.126351 l -0.07552,-0.07601 c -0.0249,-0.02523 -0.05034,-0.02506 -0.101177,-0.0504 -0.0249,0 -0.07595,-0.02517 -0.101237,-0.02517 l -0.101177,0 c -0.02544,0 -0.0759,1.08e-4 -0.101128,-0.02512 -0.02544,0 -0.0498,-0.02555 -0.07552,-0.05083 -0.0249,-0.02523 -0.0249,-0.05029 -0.0249,-0.07552 l 0,-0.101184 c 0,-0.02528 0.0249,-0.05072 0.0249,-0.07601 l 0.0498,-0.0504 c 0.0249,0 0.05034,-0.02517 0.07601,-0.02517 0.05034,0 0.100965,-1.03e-4 0.15147,0.02517 0.0498,0.07582 0.07596,0.126065 0.101237,0.201876 l 0.101122,-0.02517 c 0,-0.05051 -0.02544,-0.100985 -0.05034,-0.151531 -0.02544,-0.05051 -0.05034,-0.07591 -0.07557,-0.1011856 -0.0249,-0.02523 -0.07595,-0.02506 -0.10123,-0.05035 l -0.1263,0 z m 3.461972,0 -0.101237,1.086376 0.101237,0.02566 0.101177,-0.8845048 0.35383,0.9348508 0.126461,0 0.126353,-1.0868748 -0.126353,0 -0.07606,0.859327 -0.379109,-0.9096732 -0.126299,-0.02517 z m 14.069077,0.01581 c -0.03082,0 -0.06222,0.0027 -0.09382,0.0094 l -0.328711,0.05041 0.151522,1.086863 0.303596,-0.0504 c 0.07578,0 0.126133,-0.0255 0.176697,-0.07601 0.04981,-0.02528 0.07579,-0.07582 0.126408,-0.126364 0.0249,-0.05051 0.05031,-0.126157 0.05031,-0.176703 l 0,-0.252711 c -0.0249,-0.176899 -0.07612,-0.303262 -0.151961,-0.379073 -0.05688,-0.05686 -0.142049,-0.08538 -0.234458,-0.08538 z m -15.964476,0.0094 0.227536,0 c 0.07584,0 0.126299,0.02506 0.151578,0.05041 0.0249,0.02523 0.05034,0.0762 0.05034,0.152018 0,0.07582 -0.02544,0.126255 -0.05034,0.151531 -0.02544,0.02523 -0.07573,0.0504 -0.151578,0.0504 l -0.227536,0 0,-0.4042406 z m 16.805527,0 c 0.05031,0 0.100963,-9.7e-5 0.151527,0.02517 0.05031,0.02523 0.07589,0.05061 0.101172,0.1011852 0.02548,0.05051 0.05031,0.07572 0.07602,0.151531 0.0249,0.05051 0.0249,0.10099 0.0249,0.151525 l 0,0.177197 c 0,0.05051 -0.0249,0.10099 -0.05031,0.151531 -0.0249,0.05051 -0.05031,0.07591 -0.07601,0.101179 -0.0249,0.02523 -0.07578,0.05041 -0.12635,0.05041 -0.05031,0 -0.100905,9.1e-5 -0.151527,-0.02517 -0.04981,-0.02523 -0.07589,-0.05061 -0.101172,-0.101185 -0.0249,-0.05051 -0.05031,-0.07581 -0.07606,-0.126358 0,-0.07582 1.59e-4,-0.151335 -0.0249,-0.201871 l 0,-0.152023 c 0,-0.05051 0.02548,-0.10099 0.05031,-0.151531 0.02541,-0.05051 0.05031,-0.07591 0.07552,-0.10118 0.0249,-0.02528 0.07573,-0.05041 0.12635,-0.05041 z m -17.487631,0.05041 0.176749,0.50542 -0.277986,0 0.101237,-0.50542 z m 3.436849,0.02566 -0.0249,0.126357 0.277878,0.02517 -0.126353,0.960014 0.126353,0.02566 0.126354,-0.960512 0.277878,0.0504 0.0249,-0.126353 -0.682109,-0.100691 z m 13.090737,0.0504 0.126415,0 c 0.04981,0.02528 0.07535,0.0255 0.10063,0.07602 0.0249,0.02523 0.05031,0.07581 0.07601,0.126353 0.02541,0.05056 0.0249,0.100887 0.04981,0.176699 l 0,0.176704 c 0,0.05051 1.08e-4,0.101087 -0.02548,0.126362 0,0.02523 -0.0249,0.05073 -0.05031,0.07601 -0.02541,0.02523 -0.02541,0.05041 -0.05031,0.05041 -0.02548,0 -0.05031,0.02566 -0.05031,0.02566 l -0.04981,0 -0.202365,0.02517 -0.126292,-0.834158 0.202308,-0.02517 z m -0.908229,0.02073 -0.124405,0.01971 0.169827,1.073542 0.124886,-0.01971 -0.170308,-1.073542 z m -11.362244,0.04645 -0.151525,1.07601 0.125374,0.01727 0.15153,-1.07601 -0.125379,-0.01727 z m 10.67824,0.05923 -0.303102,0.05035 0.176695,1.086864 0.404285,-0.07601 c 0.0498,0 0.07584,-0.02506 0.101182,-0.0504 l 0.07595,-0.07601 c 0.02544,-0.02523 0.02544,-0.07542 0.02544,-0.100687 l 0,-0.126364 c 0,-0.07581 -0.02544,-0.126748 -0.07606,-0.152018 -0.0249,-0.05051 -0.07574,-0.07552 -0.1263,-0.07552 0.05034,-0.02523 0.07595,-0.05061 0.07595,-0.101185 0.02545,-0.05051 0.02545,-0.100984 0,-0.151531 0,-0.05051 -0.02544,-0.101087 -0.05034,-0.126358 l -0.07557,-0.07601 c -0.0249,0 -0.02545,-0.02512 -0.05034,-0.02512 l -0.0498,0 -0.0759,0 -0.0498,0 z m -10.108627,0.02517 -0.480237,1.036025 0.126354,0.02566 0.151524,-0.303554 0.353884,0.05083 0.05034,0.32823 0.126408,0.02517 -0.202359,-1.162388 -0.126354,0 z m 9.57604,0.06071 -0.124454,0.01971 0.169767,1.073535 0.124946,-0.01971 -0.170259,-1.07353 z m 0.582881,0.01527 0.07601,0 c 0.02544,0 0.0498,-1.02e-4 0.0498,0.02517 0.0249,0 0.02544,0.02506 0.05034,0.05035 0.02544,0.02528 0.02544,0.05062 0.02544,0.101185 0,0.05051 5.4e-5,0.101082 -0.02544,0.126357 -0.0249,0.02523 -0.07584,0.05073 -0.126407,0.07601 l -0.22753,0 -0.0498,-0.353895 0.227044,-0.02517 z m -1.212694,0.02517 c -0.05034,0 -0.07595,0.02517 -0.101231,0.02517 -0.02545,0.02523 -0.07595,0.05072 -0.101231,0.07602 -0.0249,0.02523 -0.0498,0.0759 -0.0498,0.101179 0,0.05056 -0.0249,0.100984 0,0.151531 0,0.05051 0.0249,0.101077 0.0498,0.126352 l 0.07611,0.07552 c 0.0249,0.02523 0.05034,0.02566 0.101177,0.02566 0.02544,0 0.0753,0.02517 0.100695,0.02517 0.0249,0 0.07584,-9.7e-5 0.101123,0.02512 0.02544,0 0.07595,0.02517 0.101177,0.02517 0.02545,0 0.05034,0.02555 0.07612,0.05083 0.02544,0.02523 0.02544,0.05024 0.02544,0.07551 l 0,0.10119 c 0,0.02523 -0.02544,0.05072 -0.05034,0.07601 -0.0249,0.02523 -0.0498,0.02506 -0.07552,0.0504 -0.0249,0 -0.05034,0.02517 -0.07601,0.02517 l -0.101177,0 c -0.02544,0 -0.0498,-0.02517 -0.07552,-0.02517 l -0.07606,-0.07602 c -0.0249,-0.02523 -0.0249,-0.07581 -0.0249,-0.126347 l -0.101183,0.02566 c 0,0.07581 0.02544,0.126147 0.05034,0.176698 0.02545,0.05051 0.05034,0.07591 0.100641,0.101185 0.02544,0.02523 0.0759,0.05041 0.126407,0.05041 l 0.152012,0 c 0.0498,0 0.07584,-0.02517 0.126354,-0.02517 0.05034,-0.02523 0.07541,-0.05072 0.10069,-0.07601 0.0249,-0.02523 0.05034,-0.07542 0.07606,-0.100698 0.0249,-0.05051 0.0249,-0.101477 0,-0.152017 0,-0.05051 -0.0249,-0.101094 -0.0498,-0.126359 l -0.07601,-0.07552 c -0.0249,-0.02523 -0.05034,-0.02555 -0.101122,-0.05083 -0.02544,0 -0.07601,-0.02517 -0.101237,-0.02517 -0.02544,0 -0.07541,1.03e-4 -0.100635,-0.02517 -0.02545,0 -0.07595,9.7e-5 -0.101237,-0.02517 -0.02545,0 -0.05034,-0.02555 -0.07601,-0.05084 -0.0249,-0.02523 -0.0249,-0.0503 -0.0249,-0.07552 l 0,-0.101179 c 0,-0.02523 0.0249,-0.05073 0.0249,-0.07602 l 0.05034,-0.0504 c 0.02544,0 0.0498,-0.02517 0.07557,-0.02517 0.0498,0 0.100965,-1.08e-4 0.151529,0.02517 0,0.07582 0.02545,0.126564 0.05034,0.20237 l 0.10123,-0.02566 c 0,-0.05051 -0.02544,-0.100991 -0.05034,-0.151532 -0.02545,-0.05051 -0.05034,-0.07591 -0.07557,-0.101185 -0.02544,-0.02523 -0.0759,-0.0504 -0.101123,-0.0504 l -0.126408,0 z m -8.895825,0.02517 0.07601,0.530605 -0.303055,-0.05041 0.227049,-0.480258 z m 1.13717,0.02517 -0.47975,1.036518 0.126354,0.02517 0.151524,-0.303548 0.353884,0.05083 0.0498,0.32823 0.126354,0.02566 -0.176696,-1.13721 -0.151963,-0.02566 z m 0.581415,0.07601 -0.126349,1.08687 0.60664,0.07551 0,-0.126348 -0.480291,-0.0504 0.0498,-0.379068 0.455174,0.0504 0,-0.126358 -0.455174,-0.0504 0.05034,-0.328734 0.480291,0.05084 0.02545,-0.126358 -0.60664,-0.07601 z m 6.3939,0.02512 -0.707822,0.07601 0.02544,0.126364 0.277878,-0.02517 0.126354,0.960018 0.126353,-0.02517 -0.126353,-0.960511 0.278365,-0.02517 0,-0.126353 z m -6.924426,0.05084 0.07547,0.530599 -0.303049,-0.05084 0.227584,-0.479765 z m 1.288641,0.02517 -0.101123,1.086377 0.303536,0.02566 c 0.07584,0 0.126083,-4.66e-4 0.201926,-0.02566 0.0498,-0.02523 0.100912,-0.05018 0.151471,-0.100693 0.05034,-0.05051 0.07595,-0.101379 0.101236,-0.177196 0.02544,-0.07581 0.05034,-0.151629 0.05034,-0.252715 0.02545,-0.176894 -1.62e-4,-0.303155 -0.07595,-0.404247 -0.05034,-0.101077 -0.151476,-0.151527 -0.303109,-0.151527 l -0.328713,0 z m 4.81341,0.0099 -0.12532,0.01326 0.113465,1.080444 0.125433,-0.01326 -0.113578,-1.080454 z m -0.340562,0.04049 -0.201872,0.960506 -0.303488,-0.909673 -0.1263,0 0.379007,1.061209 0.126354,0 0.22753,-1.112042 -0.101231,0 z m -3.593739,0.03698 -0.07546,1.084401 0.125812,0.0084 0.07552,-1.083902 -0.125867,-0.0089 z m 0.334181,0.01386 -0.05034,1.086372 0.126353,0 0.0249,-0.505427 0.404713,0.02517 0,-0.126357 -0.404713,0 0.02545,-0.353403 0.454573,0.02517 0,-0.126362 -0.580872,-0.02517 z m 1.465449,0 c -0.07584,0 -0.126191,0.02506 -0.176701,0.0504 -0.05034,0.02523 -0.101123,0.07581 -0.126408,0.126346 -0.0249,0.05051 -0.05034,0.100898 -0.07595,0.176709 -0.02545,0.07582 -0.02545,0.151727 -0.02545,0.227538 0,0.07582 -5.4e-5,0.151726 0.02545,0.227543 0.0249,0.07582 0.05034,0.126157 0.07595,0.176698 0.02545,0.05051 0.0759,0.101093 0.126408,0.126363 0.05034,0.02528 0.100858,0.05084 0.176701,0.05084 0.101069,0 0.202197,-0.05051 0.252756,-0.126358 0.07579,-0.07581 0.101128,-0.177104 0.101128,-0.328727 l -0.126353,0 c 0,0.05051 1.08e-4,0.07582 -0.0249,0.126357 0,0.05056 -0.02545,0.07591 -0.05034,0.101185 l -0.07546,0.07601 c -0.02545,0.02523 -0.07601,0.02517 -0.101236,0.02517 -0.05034,0 -0.101123,9.8e-5 -0.126349,-0.02517 -0.02544,-0.02528 -0.0759,-0.05061 -0.101182,-0.101185 -0.02544,-0.05051 -0.0498,-0.100984 -0.0498,-0.151531 0,-0.05051 -0.0249,-0.126655 -0.0249,-0.177196 0,-0.05051 -1.09e-4,-0.100888 0.0249,-0.176699 0,-0.05056 0.0249,-0.100984 0.0498,-0.151531 0.0249,-0.05051 0.05034,-0.07591 0.101182,-0.101185 0.0249,-0.02523 0.07584,-0.02517 0.126349,-0.02517 0.05034,0 0.126245,0.02506 0.151529,0.05041 0.05034,0.05051 0.0759,0.100886 0.101177,0.176703 l 0.126353,0 c 0,-0.05051 -0.0249,-0.100984 -0.0498,-0.15153 -0.02544,-0.05051 -0.05034,-0.07592 -0.07606,-0.101185 -0.0249,-0.02523 -0.0759,-0.05029 -0.101237,-0.07552 -0.05034,-0.02523 -0.07573,-0.02517 -0.126293,-0.02517 z m -2.552278,0.02517 0.202305,0.02517 c 0.05034,0 0.101123,0.02506 0.126408,0.0504 0.02544,0.02528 0.05034,0.05062 0.07546,0.101185 0.0249,0.02528 0.0249,0.07581 0.0249,0.126358 l 0,0.177191 c 0,0.07582 -0.0249,0.126169 -0.0249,0.176704 -0.0249,0.05051 -0.0249,0.07591 -0.05034,0.101185 l -0.0759,0.07552 c -0.02545,0.02523 -0.05034,0.02566 -0.07557,0.02566 l -0.07606,0 -0.0498,0 -0.177242,-0.02566 0.101236,-0.833666 z m 3.285217,0 -0.277878,1.112042 0.126407,0 0.07541,-0.328727 0.379115,-0.02517 0.101176,0.328236 0.126354,0 -0.404177,-1.061199 -0.126408,-0.02517 z m -1.446666,0.02517 -0.03844,1.086376 0.126463,0.0043 0.03843,-1.086376 -0.126354,-0.0043 z m 5.767984,0.0504 0.07601,0 c 0.02544,0 0.0498,4.66e-4 0.07546,0.02566 0.0249,0 0.02544,0.02506 0.05034,0.0504 0.02544,0.02523 0.02544,0.05072 0.02544,0.07602 0,0.05051 1.07e-4,0.100985 -0.02544,0.151526 -0.0249,0.05051 -0.05034,0.05029 -0.101176,0.07552 l -0.302994,0.05083 -0.05034,-0.379073 0.252701,-0.05083 z m -4.245312,0.05083 0.176701,0.505427 -0.303104,0 0.126403,-0.505427 z"
     id="path332"
     inkscape:connector-curvature="0" />
  <path
     style="fill:#0072b6;fill-opacity:1"
     d="m 47.090209,39.726302 -2.163203,4.67904 c -0.281505,0.61563 -0.404606,0.7209 -0.61568,0.77366 l 0,0.19377 1.671057,0 0,-0.19377 c -0.193536,0 -0.246373,-0.10539 -0.246373,-0.21093 0,-0.0879 0.05251,-0.21093 0.08797,-0.29888 l 0.281343,-0.59811 2.286634,0 0.316695,0.63316 c 0.05305,0.10553 0.07043,0.19355 0.07043,0.24631 0,0.12313 -0.07032,0.19334 -0.263803,0.21094 l 0,0.19341 1.934807,0 0,-0.19341 c -0.263858,-0.10554 -0.387126,-0.29902 -0.492634,-0.52769 l -2.321662,-4.9075 -0.545579,0 z m -12.417943,0.0354 c -1.213663,0 -1.688541,0.7738 -1.688541,1.44219 0,0.38697 0.140807,0.79146 0.422203,1.07289 0.562901,0.56285 1.635596,0.80931 2.075343,1.26664 0.175938,0.17589 0.211291,0.31646 0.211291,0.47477 0,0.28143 -0.193428,0.63315 -0.809058,0.63315 -0.650816,0 -1.407308,-0.42214 -1.794325,-1.05536 l -0.364494,0 0.505354,1.86475 0.193428,0 0.15835,-0.21128 c 0.334175,0.12313 0.826537,0.28135 1.354253,0.28135 1.407146,0 1.864377,-0.80903 1.864377,-1.6885 0,-0.43974 -0.210912,-0.84415 -0.474771,-1.0904 -0.615576,-0.61563 -1.794054,-0.93238 -2.128179,-1.28416 -0.123155,-0.10554 -0.140861,-0.22846 -0.140861,-0.3164 0,-0.24626 0.193536,-0.52768 0.686061,-0.52768 0.773868,0 1.266338,0.61534 1.512604,1.03749 l 0.299205,0 -0.193806,-1.8115 -0.17583,0 -0.193427,0.22846 c -0.263804,-0.12313 -0.615631,-0.31641 -1.319177,-0.31641 z m -1.947581,3.83428 -0.0054,-0.0175 0,0.0175 0.0054,0 z m -9.8373,-3.71129 0,0.2288 0.01732,0 c 0.281397,0.088 0.334235,0.26391 0.334235,0.51017 l 0,4.04555 c 0,0.33419 -0.12316,0.45712 -0.334235,0.4923 l 0,0.21127 4.080959,0 0.492254,-1.33706 -0.281342,0 c -0.158296,0.22866 -0.404556,0.42221 -0.791519,0.42221 l -1.969884,0 0,-1.54766 2.022775,0 c 0.263858,0 0.404502,0.10533 0.457281,0.3164 l 0.210917,0 0,-1.54766 -0.210917,0 c -0.07038,0.21108 -0.211021,0.31641 -0.54525,0.31641 l -1.934806,0 0,-1.16083 1.793946,0 c 0.422203,0 0.68611,0.10539 0.861999,0.38682 l 0.29888,0 -0.52771,-1.33672 -3.975121,0 z m 4.872419,0 0,0.2288 c 0.211075,0.0528 0.31642,0.21094 0.31642,0.47477 l 0,4.18641 c 0,0.19349 -0.122884,0.35158 -0.31642,0.40436 l 0,0.19375 1.846941,0 0,-0.1759 c -0.246314,-0.0704 -0.334337,-0.26411 -0.334337,-0.54553 l 0,-3.8518 0.580277,0 c 0.598038,0 0.897298,0.15831 0.897298,0.61562 0,0.52769 -0.457447,0.68572 -1.020295,0.68572 l -0.122943,0 0,0.75648 c 0.826705,0.61563 1.424635,1.61808 1.424635,2.05782 0,0.1583 -0.105622,0.22873 -0.24632,0.24632 l 0,0.19341 1.987699,0 0,-0.19341 c -0.334181,-0.12313 -0.510172,-1.14338 -1.301638,-1.91731 -0.299043,-0.29902 -0.492579,-0.42208 -0.686061,-0.5452 0.773922,-0.17591 1.160831,-0.65088 1.160831,-1.38963 0,-0.72116 -0.439742,-1.42468 -1.671003,-1.42468 l -2.515084,0 z m -21.5648549,0.0175 0,0.2288 c 0.211074,0.0352 0.351826,0.22873 0.351826,0.42222 l 0,2.39208 c 0,1.03778 -0.43947,1.56552 -1.389335,1.56552 -0.914566,0 -1.372063,-0.54534 -1.372063,-1.38962 l 0,-2.46252 c 0,-0.29901 0.08808,-0.45733 0.316745,-0.52768 l 0,-0.21093 -1.882294,0 0,0.21093 0.03518,0 c 0.228667,0.0352 0.333958,0.15845 0.333958,0.40469 l 0,2.58551 c 0,0.75633 0.140921,1.31926 0.56307,1.74141 0.439741,0.43974 0.984779,0.68605 1.987368,0.68605 1.530251,0 2.374548,-0.93237 2.374548,-2.33952 l 0,-2.6384 c 0,-0.24626 0.123106,-0.38697 0.351773,-0.43974 l 0,-0.2288 -1.670949,0 z m 2.128613,0 0,0.21128 c 0.211075,0.0528 0.369311,0.19341 0.369311,0.45726 l 0,4.20392 c 0,0.19349 -0.140644,0.36924 -0.369311,0.38683 l 0,0.21128 1.671003,0 0,-0.21128 c -0.211075,-0.0352 -0.369636,-0.22867 -0.369636,-0.43974 l 0,-3.37701 3.8345849,4.09812 0.562739,0 0,-4.88964 c 0,-0.14072 0.01732,-0.35179 0.351773,-0.43974 l 0,-0.21128 -1.688493,0 0,0.21128 c 0.211079,0.0176 0.369317,0.22852 0.369317,0.47478 l 0,2.67379 -3.1661229,-3.35985 -1.565165,0 z m 6.5255589,0 0,0.21128 c 0.228667,0.0528 0.334337,0.19348 0.334337,0.52769 l 0,4.08058 c 0,0.17591 -0.08813,0.36939 -0.316799,0.43974 l 0,0.21128 1.864431,0 0,-0.21128 c -0.246266,-0.0528 -0.334288,-0.28135 -0.334288,-0.5452 l 0,-4.11598 c 0,-0.19348 0.123267,-0.35165 0.316743,-0.38683 l 0,-0.21128 -1.864424,0 z m 6.120888,0 0,0.21128 c 0.175943,0.0176 0.246374,0.10533 0.246374,0.22846 0,0.088 -0.01787,0.1761 -0.07043,0.29923 l -1.266283,2.99019 -1.372122,-3.07814 c -0.03518,-0.0704 -0.05251,-0.14065 -0.05251,-0.19341 0,-0.12314 0.07032,-0.21122 0.263859,-0.22881 l 0,-0.21093 -1.952346,0 0,0.19341 c 0.228667,0.0704 0.369149,0.22846 0.492309,0.49229 l 2.216149,4.94289 0.615625,0 2.075668,-4.88998 c 0.123105,-0.26384 0.281558,-0.49249 0.492632,-0.52768 l 0,-0.2288 -1.688865,0 z m 16.112159,0 0,0.21128 c 0.228667,0.0528 0.333909,0.19348 0.333909,0.52769 l 0,4.08058 c 0,0.17591 -0.0877,0.36939 -0.316371,0.43974 l 0,0.21128 1.864377,0 0,-0.21128 c -0.246211,-0.0528 -0.334234,-0.28135 -0.334234,-0.5452 l 0,-4.11598 c 0,-0.19348 0.123268,-0.35165 0.316696,-0.38683 l 0,-0.21128 -1.864377,0 z m 2.163311,0 0,0.21128 0.01732,0 c 0.246261,0.0528 0.334235,0.22859 0.334235,0.45726 l 0,4.13349 c 0,0.22867 -0.105567,0.4045 -0.334235,0.45726 l 0,0.21128 2.44498,0 c 1.882077,0 2.902264,-1.09082 2.902264,-2.74422 0,-1.74135 -1.143401,-2.72635 -2.884726,-2.72635 l -2.480002,0 z m 11.239681,0 0,0.21128 c 0.246212,0.0528 0.334235,0.22859 0.334235,0.45726 l 0,4.13349 c 0,0.22867 -0.105562,0.4045 -0.334235,0.45726 l 0,0.21128 2.444979,0 c 1.882077,0 2.919746,-1.09082 2.919746,-2.74422 0,-1.74135 -1.143339,-2.72635 -2.884717,-2.72635 l -2.480008,0 z m -9.674136,0.93238 0.738573,0 c 1.143342,0 1.794326,0.68612 1.794326,1.81184 0,1.23126 -0.738683,1.81149 -1.952346,1.81149 l -0.580553,0 0,-3.62333 z m 11.222142,0 0.756112,0 c 1.143292,0 1.794325,0.68612 1.794325,1.81184 0,1.23126 -0.739061,1.81149 -1.95267,1.81149 l -0.597767,0 0,-3.62333 z m -4.802043,0.84442 0.738628,1.51262 -1.442227,0 0.703599,-1.51262 z m 24.730601,4.90715 c -0.773978,0 -1.248742,0.28165 -1.530141,0.56308 -0.42215,0.42214 -0.63317,0.91443 -0.63317,1.54766 0,0.59803 0.193422,1.17863 0.63317,1.63595 0.334122,0.33419 0.791569,0.5452 1.477577,0.5452 0.897022,0 1.530033,-0.36938 1.987365,-1.14331 l -0.492305,-0.3164 c -0.316639,0.45732 -0.721139,0.73861 -1.319178,0.73861 -0.844299,0 -1.372118,-0.66853 -1.372118,-1.548 0,-0.91464 0.650762,-1.35424 1.336719,-1.35424 0.474873,0 1.037938,0.21107 1.354577,0.79152 l 0.245936,0 -0.228395,-1.35424 -0.158406,0 -0.140859,0.15802 c -0.369362,-0.17589 -0.756271,-0.26385 -1.160772,-0.26385 z m -8.126188,0.0178 c -0.175889,0.1759 -0.510228,0.40429 -0.844458,0.59777 l 0,0.14085 -0.01732,0 c 0.1407,0 0.228828,0.10561 0.228828,0.24632 l 0,0.70357 c -0.211071,-0.0704 -0.475096,-0.15837 -0.739005,-0.15837 -0.738731,0 -1.301631,0.52782 -1.301631,1.37211 0,0.79152 0.527761,1.33672 1.196178,1.33672 0.299041,0 0.633387,-0.14071 0.844458,-0.35179 l 0,0.35179 0.175831,0 c 0.299049,-0.24625 0.597873,-0.3695 0.844141,-0.49263 l 0,-0.15837 c -0.175889,0 -0.228453,-0.0877 -0.228453,-0.31641 l 0,-3.27156 -0.158399,0 z m 15.144377,0 c -0.22867,0.21108 -0.5453,0.43946 -0.86194,0.59777 l 0,0.15837 c 0.14069,0 0.22877,0.0705 0.22877,0.2288 l 0,2.72635 c 0,0.19349 -0.0704,0.28123 -0.24626,0.31641 l 0,0.14084 1.26623,0 0,-0.14084 c -0.15829,-0.0352 -0.2284,-0.12286 -0.2284,-0.33393 l 0,-3.69377 -0.1584,0 z m 10.58865,0 c -0.22867,0.21108 -0.43947,0.38669 -0.84408,0.59777 l 0,0.14085 c 0.12316,0 0.22851,0.10567 0.22851,0.2288 l 0,2.37456 c 0,0.14072 -0.0346,0.22866 -0.15808,0.26384 l 0,0.14052 c 0.45734,0.3342 0.96735,0.51015 1.5126,0.51015 0.87949,0 1.49512,-0.58037 1.49512,-1.42467 0,-0.68598 -0.43996,-1.3192 -1.17869,-1.3192 -0.38697,0 -0.63312,0.12292 -0.91452,0.3164 l 0,-1.82902 -0.14086,0 z m 3.42998,0.088 c -0.12316,0.14071 -0.26365,0.26371 -0.40435,0.38683 l 0,0.14085 c 0.1407,0.12312 0.29905,0.26357 0.42221,0.42187 l 0.14043,0 c 0.14075,-0.1583 0.26407,-0.28122 0.40477,-0.40435 l 0,-0.15837 c -0.1407,-0.12312 -0.26407,-0.24612 -0.38723,-0.38683 l -0.17583,0 z m -16.920834,1.42467 c -0.879489,0 -1.530141,0.56293 -1.530141,1.38963 0,0.72116 0.474605,1.38929 1.389225,1.38929 0.826708,0 1.53052,-0.50982 1.53052,-1.38929 0.0173,-0.75634 -0.51017,-1.38963 -1.389604,-1.38963 z m 5.417614,0 c -0.87943,0 -1.53046,0.56293 -1.53046,1.38963 0,0.72116 0.47498,1.38929 1.3896,1.38929 0.8267,0 1.54806,-0.50982 1.54806,-1.38929 0,-0.75634 -0.52771,-1.38963 -1.4072,-1.38963 z m -15.338127,0.0175 c -0.72114,0 -1.336719,0.47505 -1.336719,1.37211 0,0.26384 0.105459,1.35424 1.336719,1.35424 0.63322,0 1.002698,-0.29902 1.372117,-0.70358 l -0.387176,-0.3693 c -0.211079,0.21107 -0.492254,0.43973 -0.861623,0.43973 -0.316582,0 -0.545526,-0.19348 -0.633495,-0.43973 l 1.917325,-0.51017 -0.05248,-0.21093 c -0.158356,-0.0176 -0.176164,-0.29908 -0.475205,-0.5981 -0.140699,-0.14071 -0.4045,-0.33427 -0.879438,-0.33427 z m 18.134607,0 c -0.21113,0.21107 -0.49241,0.4047 -0.82659,0.58058 l 0,0.15803 c 0.15829,0 0.22877,0.10568 0.22877,0.2288 l 0,1.21373 c 0,0.14073 -0.0881,0.2813 -0.22877,0.29889 l 0,0.14086 1.23125,0 0,-0.12334 c -0.15829,-0.0352 -0.22883,-0.17562 -0.22883,-0.33392 l 0,-1.28417 c 0.26386,-0.17589 0.42226,-0.24631 0.59815,-0.24631 0.26386,0 0.36925,0.1585 0.36925,0.38717 l 0,1.14331 c 0,0.14071 -0.0525,0.31633 -0.22839,0.33392 l 0,0.14085 1.21372,0 0,-0.14085 c -0.15829,-0.0176 -0.22883,-0.17568 -0.22883,-0.31641 l 0,-1.30168 c 0.21107,-0.1583 0.40466,-0.24631 0.59815,-0.24631 0.24626,0 0.36931,0.14064 0.36931,0.45725 l 0,1.09074 c 0,0.1759 -0.0705,0.29882 -0.22883,0.31641 l 0,0.14085 1.23125,0 0,-0.14085 c -0.15829,-0.0352 -0.22839,-0.19321 -0.22839,-0.33392 l 0,-1.3546 c 0,-0.26383 -0.12327,-0.79151 -0.84446,-0.79151 -0.38702,0 -0.66837,0.14092 -0.98495,0.38718 -0.10551,-0.21108 -0.3516,-0.38718 -0.73862,-0.38718 -0.35183,0 -0.6335,0.14065 -0.89736,0.36931 l 0,-0.38683 -0.17583,0 z m 9.05851,0.0175 c -0.29905,0.28144 -0.58018,0.43981 -0.86163,0.59812 l 0,0.15837 c 0.1407,0 0.22846,0.10553 0.22846,0.26383 l 0,1.14332 c 0,0.1583 -0.0701,0.29881 -0.22846,0.3164 l 0,0.14085 1.23126,0 0,-0.14085 c -0.14075,-0.0352 -0.22877,-0.14051 -0.22877,-0.3164 l 0,-2.16364 -0.14086,0 z m 2.42744,0 c -0.56285,0 -0.93211,0.14079 -1.16078,0.24632 0.0703,0.21108 0.10545,0.35172 0.17583,0.63315 l 0.14054,-0.0351 c 0.10551,-0.22865 0.36937,-0.33426 0.70355,-0.33426 0.29904,0 0.45755,0.12312 0.47514,0.35179 -0.686,0.0528 -1.14329,0.15837 -1.4072,0.42221 -0.15823,0.15831 -0.24626,0.35158 -0.24626,0.58024 0,0.51009 0.31648,0.86195 0.91451,0.86195 0.35178,0 0.66863,-0.10554 1.00275,-0.26384 0.0704,0.12312 0.28135,0.21128 0.47477,0.21128 0.19354,0 0.40462,-0.0528 0.61569,-0.15838 l -0.10551,-0.40469 c -0.0703,0.0176 -0.10567,0.0175 -0.14086,0.0175 -0.0525,0 -0.0878,-0.0174 -0.12294,-0.0525 -0.19354,-0.19348 -0.0179,-1.37191 -0.42221,-1.77646 -0.17594,-0.17589 -0.43969,-0.29922 -0.89702,-0.29922 z m -29.655581,0.52769 c 0.211071,0 0.351663,0.10567 0.474771,0.31674 l -1.020029,0.28137 c -0.01732,-0.28143 0.175831,-0.59811 0.545258,-0.59811 z m 9.885108,0.0175 c 0.422091,0 0.721024,0.42236 0.721024,0.91486 0,0.45732 -0.33418,0.70358 -0.703542,0.70358 -0.474937,0 -0.721082,-0.47485 -0.721082,-0.89699 0,-0.45733 0.298983,-0.72145 0.7036,-0.72145 z m 5.417613,0 c 0.42215,0 0.72114,0.42236 0.72114,0.91486 0,0.45732 -0.33424,0.70358 -0.7036,0.70358 -0.47488,0 -0.72109,-0.47485 -0.72109,-0.89699 0,-0.45733 0.31664,-0.72145 0.70355,-0.72145 z m -18.856022,0.0178 c 0.24626,0 0.440065,0.0877 0.633495,0.24598 l 0,0.98528 c -0.1407,0.12313 -0.36942,0.24598 -0.598089,0.24598 -0.33418,0 -0.63317,-0.24604 -0.63317,-0.75613 0,-0.45733 0.210804,-0.72111 0.597764,-0.72111 z m 27.809072,0.035 c 0.29904,0 0.59782,0.28157 0.59782,0.75648 0,0.42215 -0.21113,0.79153 -0.7036,0.79153 -0.33423,0 -0.56274,-0.21114 -0.56274,-0.51017 l 0,-0.79152 c 0.1583,-0.10553 0.38712,-0.24632 0.66852,-0.24632 z m 5.80452,0.774 0.0525,0.59811 c -0.2462,0.12313 -0.49231,0.19342 -0.6506,0.19342 -0.21108,0 -0.33434,-0.10568 -0.33434,-0.31676 0,-0.29901 0.38718,-0.40441 0.93243,-0.47477 z"
     id="path242"
     inkscape:connector-curvature="0" />
</svg>
