<?xml version="1.0" encoding="UTF-8" standalone="no"?>
<!-- Created with Inkscape (http://www.inkscape.org/) -->

<svg
    xmlns:dc="http://purl.org/dc/elements/1.1/"
    xmlns:cc="http://creativecommons.org/ns#"
    xmlns:rdf="http://www.w3.org/1999/02/22-rdf-syntax-ns#"
    xmlns="http://www.w3.org/2000/svg"
    xmlns:xlink="http://www.w3.org/1999/xlink"
    xmlns:sodipodi="http://sodipodi.sourceforge.net/DTD/sodipodi-0.dtd"
    xmlns:inkscape="http://www.inkscape.org/namespaces/inkscape"
    width="2048"
    height="2048"
    viewBox="0 0 541.86665 541.86668"
    version="1.1"
    id="svg8"
    inkscape:version="0.92.5 (2060ec1f9f, 2020-04-08)"
    sodipodi:docname="mylibrelab.svg"
    inkscape:export-filename="/home/aypie/temp/tab.png"
    inkscape:export-xdpi="24.000002"
    inkscape:export-ydpi="24.000002">
    <defs
        id="defs2">
        <linearGradient
            inkscape:collect="always"
            id="linearGradient1412">
            <stop
                style="stop-color:#74dcd7;stop-opacity:0.733"
                offset="0"
                id="stop1408"/>
            <stop
                style="stop-color:#fafafa;stop-opacity:0"
                offset="1"
                id="stop1410"/>
        </linearGradient>
        <linearGradient
            inkscape:collect="always"
            id="linearGradient930">
            <stop
                style="stop-color:#d5be84;stop-opacity:1;"
                offset="0"
                id="stop926"/>
            <stop
                id="stop938"
                offset="0.33207867"
                style="stop-color:#d5be84;stop-opacity:1;"/>
            <stop
                style="stop-color:#bda26d;stop-opacity:1"
                offset="0.43748051"
                id="stop942"/>
            <stop
                id="stop934"
                offset="0.47114006"
                style="stop-color:#a9874e;stop-opacity:1"/>
            <stop
                style="stop-color:#bba26d;stop-opacity:1"
                offset="0.50842726"
                id="stop940"/>
            <stop
                style="stop-color:#d5be84;stop-opacity:1;"
                offset="0.59581012"
                id="stop936"/>
            <stop
                style="stop-color:#d5be84;stop-opacity:1"
                offset="1"
                id="stop928"/>
        </linearGradient>
        <linearGradient
            inkscape:collect="always"
            xlink:href="#linearGradient930"
            id="linearGradient932"
            x1="94.713509"
            y1="-56.899609"
            x2="442.74081"
            y2="-62.325886"
            gradientUnits="userSpaceOnUse"/>
        <linearGradient
            inkscape:collect="always"
            xlink:href="#linearGradient1412"
            id="linearGradient1414"
            x1="276.6908"
            y1="-64.089813"
            x2="278.17398"
            y2="-157.57999"
            gradientUnits="userSpaceOnUse"/>
    </defs>
    <sodipodi:namedview
        id="base"
        pagecolor="#191919"
        bordercolor="#ffffff"
        borderopacity="1"
        inkscape:pageopacity="0"
        inkscape:pageshadow="2"
        inkscape:zoom="0.23325825"
        inkscape:cx="1091.4393"
        inkscape:cy="1409.7568"
        inkscape:document-units="mm"
        inkscape:current-layer="layer1"
        showgrid="true"
        inkscape:pagecheckerboard="false"
        showborder="true"
        units="px"
        inkscape:window-width="1536"
        inkscape:window-height="1078"
        inkscape:window-x="0"
        inkscape:window-y="0"
        inkscape:window-maximized="0"
        inkscape:showpageshadow="false"
        borderlayer="true"
        inkscape:snap-grids="false"
        inkscape:snap-page="true"
        inkscape:snap-to-guides="true"
        inkscape:snap-global="false"
        guidecolor="#ff7c00"
        guideopacity="0.49803922"
        guidehicolor="#c3f7ff"
        guidehiopacity="0.49803922"
        inkscape:snap-smooth-nodes="true"
        inkscape:snap-midpoints="true"
        inkscape:snap-intersection-paths="true"
        inkscape:object-paths="true"
        inkscape:snap-bbox="true"
        showguides="true">
        <inkscape:grid
            type="xygrid"
            id="grid7"
            spacingx="16.933333"
            spacingy="16.933333"
            empspacing="4"
            color="#ffffff"
            opacity="0.0627451"
            empcolor="#ffffff"
            empopacity="0.57254902"
            dotted="true"
            enabled="true"
            visible="false"/>
    </sodipodi:namedview>
    <metadata
        id="metadata5">
        <rdf:RDF>
            <cc:Work
                rdf:about="">
                <dc:format>image/svg+xml</dc:format>
                <dc:type
                    rdf:resource="http://purl.org/dc/dcmitype/StillImage"/>
                <dc:title></dc:title>
            </cc:Work>
        </rdf:RDF>
    </metadata>
    <g
        inkscape:label="Layer 1"
        inkscape:groupmode="layer"
        id="layer1"
        transform="translate(0,244.86668)">
        <path
            style="opacity:1;fill:#74482b;fill-opacity:1;stroke:none;stroke-width:10.58333302;stroke-linecap:round;stroke-linejoin:round;stroke-miterlimit:4;stroke-dasharray:none;stroke-opacity:1"
            d="M 294.28756,-26.893167 292.35331,256.49561 429.90772,160.64865 442.74081,-62.325886 Z"
            id="path105"
            inkscape:connector-curvature="0"
            sodipodi:nodetypes="ccccc"/>
        <path
            style="opacity:1;fill:#8f5f3c;fill-opacity:1;stroke:none;stroke-width:10.58333302;stroke-linecap:round;stroke-linejoin:round;stroke-miterlimit:4;stroke-dasharray:none;stroke-opacity:1"
            d="M 294.28754,-26.89317 94.713511,-56.89961 108.60861,174.2127 l 183.7447,82.28291 z"
            id="path918"
            inkscape:connector-curvature="0"/>
        <path
            style="opacity:1;fill:#4d2917;fill-opacity:1;stroke:none;stroke-width:10.58333302;stroke-linecap:round;stroke-linejoin:round;stroke-miterlimit:4;stroke-dasharray:none;stroke-opacity:1"
            d="m 294.28754,-26.89317 100.52979,-121.45437 137.55441,-6.41653 -89.63093,92.438181 z"
            id="path920"
            inkscape:connector-curvature="0"/>
        <path
            style="opacity:1;fill:#925f35;fill-opacity:1;stroke:none;stroke-width:10.58333302;stroke-linecap:round;stroke-linejoin:round;stroke-miterlimit:4;stroke-dasharray:none;stroke-opacity:1"
            d="m 94.713511,-56.899613 -57.617928,-100.070137 170.238647,-2.4062 51.33227,79.20408 z"
            id="path922"
            inkscape:connector-curvature="0"/>
        <path
            style="opacity:1;fill:url(#linearGradient932);fill-opacity:1;stroke:none;stroke-width:10.58333302;stroke-linecap:round;stroke-linejoin:round;stroke-miterlimit:4;stroke-dasharray:none;stroke-opacity:1"
            d="M 294.28754,-26.89317 94.713511,-56.899613 258.6665,-80.171873 l 74.00425,6.906281 z"
            id="path924"
            inkscape:connector-curvature="0"/>
        <path
            style="opacity:1;fill:#1f1f1f;fill-opacity:1;stroke:none;stroke-width:10.58333302;stroke-linecap:round;stroke-linejoin:round;stroke-miterlimit:4;stroke-dasharray:none;stroke-opacity:1"
            d="m 123.35442,44.477889 c 0.23223,-8.55609 4.71579,-10.691086 7.79828,-10.06687 3.58764,0.72651 12.90258,2.835732 12.90258,2.835732 -0.22782,-9.562851 3.52839,-14.931155 10.20865,-15.171179 5.00023,-0.17966 8.67737,3.406302 11.91008,6.380398 0,0 42.65545,39.297092 63.80401,58.69969 3.1481,2.888202 4.82075,6.805771 4.82075,6.805771 l 20.98443,6.238609 c 4.96614,1.55332 11.16699,8.52629 9.92506,17.43978 -0.87473,6.27806 -5.22791,10.92599 -10.77578,8.93256 l -20.41729,-6.52219 c -1.20839,2.62496 -3.84999,3.41936 -6.52218,4.2536 l -58.13255,18.1487 c -2.84456,0.88806 -5.57593,1.01997 -8.22363,-0.28358 -6.48324,-3.19191 -12.27094,-8.12925 -14.17867,-23.82017 L 134.272,114.23693 c -4.56865,-1.42463 -9.18364,-6.4377 -8.96697,-14.63844 0.19182,-7.259966 4.23362,-9.964736 7.69089,-8.898138 l 13.32795,4.111794 -1.41787,-33.178088 c 0,0 -8.86944,-2.327329 -14.03688,-4.253593 -2.82303,-1.052338 -7.6656,-7.342883 -7.5147,-12.902576 z"
            id="path944"
            inkscape:connector-curvature="0"
            sodipodi:nodetypes="sscsssccsccssscsssccss"/>
        <path
            style="opacity:1;fill:url(#linearGradient1414);fill-opacity:1;stroke:none;stroke-width:21.16666603;stroke-linecap:round;stroke-linejoin:round;stroke-miterlimit:4;stroke-dasharray:none;stroke-opacity:1"
            d="m 294.28754,-26.893172 100.52979,-121.454368 137.55441,-6.41653 9.49492,-90.10261 H 0 l 37.095583,87.89693 57.617928,100.070135 z"
            id="path1406"
            inkscape:connector-curvature="0"
            sodipodi:nodetypes="cccccccc"/>
        <path
            style="color:#000000;font-style:normal;font-variant:normal;font-weight:normal;font-stretch:normal;font-size:medium;line-height:normal;font-family:sans-serif;font-variant-ligatures:normal;font-variant-position:normal;font-variant-caps:normal;font-variant-numeric:normal;font-variant-alternates:normal;font-feature-settings:normal;text-indent:0;text-align:start;text-decoration:none;text-decoration-line:none;text-decoration-style:solid;text-decoration-color:#000000;letter-spacing:normal;word-spacing:normal;text-transform:none;writing-mode:lr-tb;direction:ltr;text-orientation:mixed;dominant-baseline:auto;baseline-shift:baseline;text-anchor:start;white-space:normal;shape-padding:0;clip-rule:nonzero;display:inline;overflow:visible;visibility:visible;opacity:1;isolation:auto;mix-blend-mode:normal;color-interpolation:sRGB;color-interpolation-filters:linearRGB;solid-color:#000000;solid-opacity:1;vector-effect:none;fill:#9b2d27;fill-opacity:1;fill-rule:nonzero;stroke:none;stroke-width:80;stroke-linecap:round;stroke-linejoin:round;stroke-miterlimit:4;stroke-dasharray:none;stroke-dashoffset:0;stroke-opacity:1;color-rendering:auto;image-rendering:auto;shape-rendering:auto;text-rendering:auto;enable-background:accumulate"
            d="M 1011.2773 263.85938 C 986.01996 264.01287 961.17663 266.63193 937.18164 271.93164 A 40.003996 40.003996 0 0 0 936.99023 271.9707 C 839.06269 294.09817 767.70593 353.27325 725.15234 419.00195 C 682.59876 484.73066 665.21154 556.4504 683.15625 616.49023 C 705.12751 690.00211 770.39172 738.5445 849.67773 748.71484 C 928.96372 758.88519 1023.2507 736.17502 1123.2422 679.19922 C 1124.0592 678.73369 1123.4777 678.94442 1124.0332 678.61523 C 1125.4064 680.62445 1127.1843 683.26489 1129.1328 688.10938 C 1136.7486 707.0438 1142.8524 743.0524 1147.1328 781.71484 L 1215.707 698.86719 C 1212.4906 684.66656 1208.4878 671.02555 1203.3516 658.25586 C 1195.2591 638.1363 1183.953 617.67219 1160.5957 605.1875 C 1137.2384 592.70281 1106.489 596.67113 1083.6387 609.69141 C 994.75285 660.33913 915.57748 676.51268 859.85742 669.36523 C 804.13732 662.21779 772.85118 637.24173 759.80273 593.58398 C 752.21322 568.19084 759.8729 512.57505 792.30469 462.48047 C 824.71803 412.4145 878.25257 367.30546 954.5 350.03906 C 966.09155 347.48263 978.30487 345.81984 990.98828 345.02734 C 1079.9332 339.46981 1191.8506 376.27119 1272.4082 441.11719 C 1305.9295 468.10065 1333.954 498.52047 1353.8965 531.91602 L 1406.3965 468.48633 C 1383.2368 434.81142 1354.5693 404.55407 1322.5762 378.80078 C 1240.0792 312.39373 1135.4188 269.82399 1035.0879 264.43359 L 1035.0879 264.43164 C 1028.8172 264.09474 1022.5643 263.90424 1016.334 263.86133 C 1014.6466 263.84971 1012.9612 263.84914 1011.2773 263.85938 z "
            transform="matrix(0.26458333,0,0,0.26458333,0,-244.86668)"
            id="path1377"/>
        <path
            style="color:#000000;font-style:normal;font-variant:normal;font-weight:normal;font-stretch:normal;font-size:medium;line-height:normal;font-family:sans-serif;font-variant-ligatures:normal;font-variant-position:normal;font-variant-caps:normal;font-variant-numeric:normal;font-variant-alternates:normal;font-feature-settings:normal;text-indent:0;text-align:start;text-decoration:none;text-decoration-line:none;text-decoration-style:solid;text-decoration-color:#000000;letter-spacing:normal;word-spacing:normal;text-transform:none;writing-mode:lr-tb;direction:ltr;text-orientation:mixed;dominant-baseline:auto;baseline-shift:baseline;text-anchor:start;white-space:normal;shape-padding:0;clip-rule:nonzero;display:inline;overflow:visible;visibility:visible;opacity:1;isolation:auto;mix-blend-mode:normal;color-interpolation:sRGB;color-interpolation-filters:linearRGB;solid-color:#000000;solid-opacity:1;vector-effect:none;fill:#2c4193;fill-opacity:1;fill-rule:nonzero;stroke:none;stroke-width:75;stroke-linecap:round;stroke-linejoin:round;stroke-miterlimit:4;stroke-dasharray:none;stroke-dashoffset:0;stroke-opacity:1;color-rendering:auto;image-rendering:auto;shape-rendering:auto;text-rendering:auto;enable-background:accumulate"
            d="M 801.58984 269.82031 C 799.26624 269.83208 796.9314 269.88373 794.58594 269.97656 C 769.56766 270.96684 743.33758 276.6367 716.44141 288.38672 C 554.56541 359.10485 488.60571 490.23444 505.23828 607.10742 C 513.93406 668.21005 561.79343 709.13644 611.68945 748.57227 L 763.40625 771.38477 C 729.8758 743.37327 694.35606 718.21577 663.54297 693.96289 C 614.74042 655.55056 582.7312 619.29482 579.49219 596.53516 C 567.62526 513.14923 607.64991 417.75487 746.46484 357.11133 C 765.3508 348.8607 783.13993 344.83083 799.75391 344.05273 C 848.68548 341.76109 887.32771 367.74223 913.92969 397.34961 C 965.60793 474.57524 985.36383 564.54096 974.34961 657.10938 C 998.59173 650.01491 1024.3533 640.0503 1051.2227 626.87305 C 1055.1405 530.07564 1030.5207 435.41887 974.69727 353.14844 A 37.50375 37.50375 0 0 0 971.82617 349.44141 C 934.93271 307.489 873.62164 269.45562 801.58984 269.82031 z M 1051.2227 626.87305 C 1050.9142 634.49343 1050.4278 642.1277 1049.7676 649.76953 C 1050.4286 642.12744 1050.9142 634.4936 1051.2227 626.87305 z M 1049.7168 650.35156 C 1049.5561 652.18697 1049.386 654.0231 1049.2051 655.85938 C 1049.3862 654.02297 1049.5559 652.1871 1049.7168 650.35156 z M 1049.2051 655.85938 C 1048.6623 661.36786 1048.0249 666.87877 1047.3008 672.39258 C 1048.0257 666.879 1048.6617 661.36762 1049.2051 655.85938 z M 973.70508 662.25195 C 973.67656 662.46936 973.64799 662.68687 973.61914 662.9043 C 973.64798 662.68689 973.67657 662.46934 973.70508 662.25195 z M 1047.123 673.75 C 1046.9193 675.26995 1046.7077 676.79039 1046.4902 678.31055 C 1046.7079 676.79017 1046.9191 675.27018 1047.123 673.75 z M 1046.207 680.24609 C 1045.9812 681.78384 1045.7536 683.32154 1045.5137 684.85938 C 1045.7537 683.32164 1045.981 681.78374 1046.207 680.24609 z M 1045.4355 685.34375 C 1044.9388 688.50888 1044.4096 691.67488 1043.8535 694.83984 C 1044.41 691.67484 1044.9384 688.50893 1045.4355 685.34375 z M 969.37695 688.88086 C 969.28538 689.35352 969.19472 689.82609 969.10156 690.29883 C 969.19465 689.82612 969.28545 689.35349 969.37695 688.88086 z M 968.25781 694.47266 C 968.14301 695.02777 968.02714 695.58347 967.91016 696.13867 C 968.02709 695.58336 968.14306 695.02788 968.25781 694.47266 z M 1043.5059 696.82617 C 1043.261 698.18926 1043.0058 699.55112 1042.75 700.91406 C 1043.0059 699.55156 1043.2609 698.18882 1043.5059 696.82617 z M 967 700.375 C 966.90924 700.78643 966.81461 701.19791 966.72266 701.60938 C 966.81455 701.19795 966.9093 700.78639 967 700.375 z M 1042.2734 703.42383 C 1042.0214 704.73202 1041.7641 706.03968 1041.502 707.34766 C 1041.7642 706.0398 1042.0213 704.73191 1042.2734 703.42383 z M 1040.9395 710.10742 C 1040.6819 711.3586 1040.425 712.61043 1040.1582 713.86133 C 1040.4252 712.61003 1040.6817 711.359 1040.9395 710.10742 z M 963.37109 715.58203 C 963.21541 716.18996 963.06454 716.79828 962.90625 717.40625 C 963.06447 716.79827 963.21548 716.18997 963.37109 715.58203 z M 1038.8633 719.77539 C 1010.0869 731.00333 982.06514 739.18206 955.04492 744.35547 C 949.34114 761.9914 942.55068 779.60788 934.67578 797.13477 L 1010.9824 808.60742 C 1022.8383 779.30062 1032.154 749.59069 1038.8633 719.77539 z M 955.04492 744.35547 C 955.65396 742.47235 956.24986 740.58856 956.83398 738.70508 C 956.24966 740.58904 955.65411 742.47189 955.04492 744.35547 z M 961.98633 720.87305 C 961.75387 721.73901 961.52093 722.6047 961.2832 723.4707 C 961.52082 722.60481 961.75398 721.7389 961.98633 720.87305 z M 960.32031 726.92383 C 960.08956 727.7404 959.85457 728.55647 959.61914 729.37305 C 959.85447 728.55658 960.08966 727.74029 960.32031 726.92383 z M 958.60156 732.86914 C 958.32401 733.80528 958.0376 734.74164 957.75391 735.67773 C 958.03765 734.74134 958.32398 733.80557 958.60156 732.86914 z "
            transform="matrix(0.26458333,0,0,0.26458333,0,-244.86668)"
            id="path1362"/>
    </g>
</svg>
