<svg xmlns="http://www.w3.org/2000/svg" width="16" height="16" viewBox="0 0 16 16"><rect id="frame" width="16" height="16" fill="none"/><path fill="#6E6E6E" fill-rule="evenodd" d="M9 11a2 2 0 0 1 1.732 1H15v2l-4.268.001a2 2 0 0 1-3.464 0L1 14v-2h6.268A2 2 0 0 1 9 11zm0 1a1 1 0 1 0 0 2 1 1 0 0 0 0-2zM6 6a2 2 0 0 1 1.732 1H15v2l-7.268.001a2 2 0 0 1-3.464 0L1 9V7h3.268A2 2 0 0 1 6 6zm0 1a1 1 0 1 0 0 2 1 1 0 0 0 0-2zm5-6a2 2 0 0 1 1.732 1H15v2l-2.268.001a2 2 0 0 1-3.464 0L1 4V2h8.268A2 2 0 0 1 11 1zm0 1a1 1 0 1 0 0 2 1 1 0 0 0 0-2z"/></svg>