<?xml version="1.0" encoding="UTF-8" standalone="no"?>
<!-- Created with Inkscape (http://www.inkscape.org/) -->
<svg
   xmlns:dc="http://purl.org/dc/elements/1.1/"
   xmlns:cc="http://web.resource.org/cc/"
   xmlns:rdf="http://www.w3.org/1999/02/22-rdf-syntax-ns#"
   xmlns:svg="http://www.w3.org/2000/svg"
   xmlns="http://www.w3.org/2000/svg"
   xmlns:sodipodi="http://inkscape.sourceforge.net/DTD/sodipodi-0.dtd"
   xmlns:inkscape="http://www.inkscape.org/namespaces/inkscape"
   version="1.0"
   x="0.00000000"
   y="0.00000000"
   width="287.50000"
   height="375.00000"
   id="svg2"
   sodipodi:version="0.32"
   inkscape:version="0.42"
   sodipodi:docname="schalter.svg"
   sodipodi:docbase="C:\Dokumente und Einstellungen\Homer\Desktop\VS Logic\Package\Elements\2.0\Boolean\SchiebeSchalter\bin">
  <metadata
     id="metadata12">
    <rdf:RDF>
      <cc:Work
         rdf:about="">
        <dc:format>image/svg+xml</dc:format>
        <dc:type
           rdf:resource="http://purl.org/dc/dcmitype/StillImage" />
      </cc:Work>
    </rdf:RDF>
  </metadata>
  <sodipodi:namedview
     inkscape:window-height="975"
     inkscape:window-width="1280"
     inkscape:pageshadow="2"
     inkscape:pageopacity="0.0"
     borderopacity="1.0"
     bordercolor="#666666"
     pagecolor="#ffffff"
     id="base"
     inkscape:zoom="1.2973052"
     inkscape:cx="171.98222"
     inkscape:cy="187.50000"
     inkscape:window-x="-4"
     inkscape:window-y="-4"
     inkscape:current-layer="layer1" />
  <defs
     id="defs4" />
  <g
     id="layer1">
    <path
       d="M 29.579152,0.28952044 L 256.60640,1.9326466 C 286.63684,1.9326466 285.99831,28.896684 285.99831,61.722960 L 285.45886,341.11500 C 285.45886,373.94130 261.82215,374.58708 231.79173,374.58708 L 56.012171,374.58708 C 25.981725,374.58708 1.8055890,372.86708 1.8055890,340.04080 L 1.8055890,61.722960 C 1.8055890,28.896684 -0.45129259,0.28952044 29.579152,0.28952044 z "
       style="fill:#000000;fill-opacity:1.0000000;stroke:none;stroke-width:1.6830000;stroke-miterlimit:4.0000000;stroke-opacity:1.0000000"
       id="rect9323"
       sodipodi:nodetypes="ccccccccc" />
    <path
       d="M 29.451968,20.728194 L 257.49417,20.728194 C 264.12085,20.728194 269.45567,30.058806 269.45567,41.648848 L 269.45567,335.43277 C 269.45567,347.02281 264.12085,356.35343 257.49417,356.35343 L 29.451968,356.35343 C 22.825292,356.35343 17.490459,347.02281 17.490459,335.43277 L 17.490459,41.648848 C 17.490459,30.058806 22.825292,20.728194 29.451968,20.728194 z "
       style="fill:#000000;fill-opacity:1.0000000;stroke:#fffaff;stroke-width:10.665103;stroke-miterlimit:4.0000000;stroke-opacity:1.0000000"
       id="rect10051" />
    <path
       d="M 37.823520,24.479188 C 108.37296,24.550814 178.92894,24.335856 249.47426,24.586804 C 260.87564,25.438401 268.13641,38.137490 266.62929,49.892745 C 266.56421,86.022866 266.75979,122.16012 266.53097,158.28573 C 265.75287,170.76425 254.14995,178.71095 243.40941,177.06146 C 174.22835,176.98983 105.04070,177.20477 35.863738,176.95383 C 24.462360,176.10225 17.201607,163.40315 18.708717,151.64790 C 18.773806,115.51779 18.578232,79.380533 18.807045,43.254913 C 19.581366,32.835099 28.271469,24.257282 37.823520,24.479188 z "
       style="fill:#405f50;fill-opacity:1.0000000;stroke:#ffffff;stroke-width:6.7451553;stroke-miterlimit:4.0000000;stroke-opacity:1.0000000"
       id="onRect" />
    <path
       d="M 105.95169,62.747567 C 99.248936,62.747646 93.917179,65.878372 89.956500,72.139738 C 86.026316,78.401240 84.061147,86.934358 84.061147,97.739120 C 84.061147,108.50577 86.026316,117.01980 89.956500,123.28123 C 93.917179,129.54268 99.248936,132.67340 105.95169,132.67339 C 112.65438,132.67340 117.95556,129.54268 121.85540,123.28123 C 125.78558,117.01980 127.75069,108.50577 127.75077,97.739120 C 127.75069,86.934358 125.78558,78.401240 121.85540,72.139738 C 117.95556,65.878372 112.65438,62.747646 105.95169,62.747567 M 105.95169,53.355406 C 115.51820,53.355494 123.16542,57.383432 128.89323,65.439228 C 134.62097,73.456994 137.48488,84.223618 137.48488,97.739120 C 137.48488,111.21652 134.62097,121.98313 128.89323,130.03901 C 123.16542,138.05671 115.51820,142.06556 105.95169,142.06556 C 96.354532,142.06556 88.676909,138.05671 82.918673,130.03901 C 77.190854,122.02132 74.327023,111.25470 74.327023,97.739120 C 74.327023,84.223618 77.190854,73.456994 82.918673,65.439228 C 88.676909,57.383432 96.354532,53.355494 105.95169,53.355406 M 151.92626,54.901676 L 164.35675,54.901676 L 194.61035,126.43103 L 194.61035,54.901676 L 203.56765,54.901676 L 203.56765,140.40475 L 191.13714,140.40475 L 160.88348,68.875392 L 160.88348,140.40475 L 151.92626,140.40475 L 151.92626,54.901676"
       style="fill:#ffffff;fill-opacity:1.0000000"
       id="on" />
    <path
       d="M 38.137414,202.47777 L 251.19736,202.47777 C 260.85375,202.47777 268.62768,210.91295 268.62768,221.39072 L 268.62768,336.14710 C 268.62768,346.62488 260.85375,355.06006 251.19736,355.06006 L 38.137414,355.06006 C 28.481018,355.06006 20.707096,346.62488 20.707096,336.14710 L 20.707096,221.39072 C 20.707096,210.91295 28.481018,202.47777 38.137414,202.47777 z "
       style="fill:#405f50;fill-opacity:1.0000000;stroke:#ffffff;stroke-width:6.7451553;stroke-miterlimit:4.0000000;stroke-opacity:1.0000000"
       id="offRect" />
    <path
       d="M 75.929358,238.07673 C 67.754111,238.07682 61.251111,241.66804 56.420334,248.85039 C 51.626668,256.03290 49.229848,265.82116 49.229865,278.21519 C 49.229848,290.56552 51.626668,300.33189 56.420334,307.51430 C 61.251111,314.69675 67.754111,318.28797 75.929358,318.28797 C 84.104517,318.28797 90.570351,314.69675 95.326902,307.51430 C 100.12048,300.33189 102.51729,290.56552 102.51737,278.21519 C 102.51729,265.82116 100.12048,256.03290 95.326902,248.85039 C 90.570351,241.66804 84.104517,238.07682 75.929358,238.07673 M 75.929358,227.30308 C 87.597558,227.30317 96.924721,231.92358 103.91088,241.16431 C 110.89689,250.36140 114.38993,262.71170 114.39001,278.21519 C 114.38993,293.67500 110.89689,306.02528 103.91088,315.26608 C 96.924721,324.46311 87.597558,329.06163 75.929358,329.06163 C 64.223910,329.06163 54.859588,324.46311 47.836364,315.26608 C 40.850265,306.06908 37.357226,293.71878 37.357231,278.21519 C 37.357226,262.71170 40.850265,250.36140 47.836364,241.16431 C 54.859588,231.92358 64.223910,227.30317 75.929358,227.30308 M 132.00386,229.07678 L 179.82885,229.07678 L 179.82885,240.24461 L 143.26336,240.24461 L 143.26336,269.14956 L 176.26148,269.14956 L 176.26148,280.31737 L 143.26336,280.31737 L 143.26336,327.15653 L 132.00386,327.15653 L 132.00386,229.07678 M 197.77715,229.07678 L 245.60212,229.07678 L 245.60212,240.24461 L 209.03664,240.24461 L 209.03664,269.14956 L 242.03476,269.14956 L 242.03476,280.31737 L 209.03664,280.31737 L 209.03664,327.15653 L 197.77715,327.15653 L 197.77715,229.07678"
       style="font-size:110.54606px;font-style:normal;font-weight:normal;fill:#ffffff;fill-opacity:1.0000000;stroke:none;stroke-width:1.0000000px;stroke-linecap:butt;stroke-linejoin:miter;stroke-opacity:1.0000000;font-family:Bitstream Vera Sans"
       id="off" />
  </g>
</svg>
