<?xml version="1.0" encoding="UTF-8" standalone="no"?>
<!-- Created with Inkscape (http://www.inkscape.org/) -->
<svg
   xmlns:dc="http://purl.org/dc/elements/1.1/"
   xmlns:cc="http://web.resource.org/cc/"
   xmlns:rdf="http://www.w3.org/1999/02/22-rdf-syntax-ns#"
   xmlns:svg="http://www.w3.org/2000/svg"
   xmlns="http://www.w3.org/2000/svg"
   xmlns:sodipodi="http://sodipodi.sourceforge.net/DTD/sodipodi-0.dtd"
   xmlns:inkscape="http://www.inkscape.org/namespaces/inkscape"
   version="1.0"
   x="0.00000000"
   y="0.00000000"
   width="32.000000px"
   height="47.000000px"
   id="svg2"
   sodipodi:version="0.32"
   inkscape:version="0.44.1"
   sodipodi:docname="image.svg"
   sodipodi:docbase="Y:\java\carmelo's exp Lab 3\Distribution\Elements\FrontElements\2Dekoratoren\SVGSalamanderImage\bin">
  <metadata
     id="metadata18">
    <rdf:RDF>
      <cc:Work
         rdf:about="">
        <dc:format>image/svg+xml</dc:format>
        <dc:type
           rdf:resource="http://purl.org/dc/dcmitype/StillImage" />
      </cc:Work>
    </rdf:RDF>
  </metadata>
  <defs
     id="defs16" />
  <sodipodi:namedview
     inkscape:window-height="975"
     inkscape:window-width="1280"
     inkscape:pageshadow="2"
     inkscape:pageopacity="0.0"
     borderopacity="1.0"
     bordercolor="#666666"
     pagecolor="#ffffff"
     id="base"
     inkscape:zoom="10.751148"
     inkscape:cx="31.47784"
     inkscape:cy="24.561639"
     inkscape:window-x="-4"
     inkscape:window-y="-4"
     inkscape:current-layer="svg2"
     width="50px"
     height="50px" />
  <path
     d="M 10.325277,23.476702 L 22.498132,23.476702 L 22.498132,46.147213 L 10.325277,46.147213 L 10.325277,23.476702 z "
     style="fill:none;stroke:none"
     id="off" />
  <path
     d="M 10.615337,1.2771427 L 22.788192,1.2771427 L 22.788192,23.869427 L 10.615337,23.869427 L 10.615337,1.2771427 z "
     style="fill:none;stroke:none"
     id="on" />
  <path
     style="fill:#ffffb2;fill-opacity:1;fill-rule:evenodd;stroke:black;stroke-width:1.07118106;stroke-opacity:1"
     d="M 0.96572357,0.90098447 L 31.216885,0.90098447 L 31.216885,46.220305 L 0.96572357,46.220305 L 0.96572357,0.90098447 z "
     id="rect3685" />
  <path
     style="font-size:12px;font-style:normal;font-weight:normal;fill:black;fill-opacity:1;stroke:none;stroke-width:1px;stroke-linecap:butt;stroke-linejoin:miter;stroke-opacity:1;font-family:Bitstream Vera Sans"
     d="M 5.555189,16.563869 L 5.9126109,16.532619 C 5.9295374,16.675849 5.9689254,16.793362 6.0307749,16.885159 C 6.0926232,16.976956 6.1886517,17.051175 6.3188609,17.107815 C 6.4490681,17.164456 6.5955523,17.192776 6.758314,17.192776 C 6.9028437,17.192776 7.0304477,17.171292 7.1411265,17.128323 C 7.2518017,17.085354 7.3341584,17.026435 7.3881968,16.951565 C 7.4422312,16.876696 7.4692494,16.79499 7.4692515,16.706448 C 7.4692494,16.616605 7.4432077,16.538154 7.3911265,16.471096 C 7.3390412,16.40404 7.2531038,16.347725 7.133314,16.302151 C 7.0564894,16.272204 6.8865677,16.225655 6.6235484,16.162502 C 6.3605265,16.099353 6.1762819,16.039782 6.070814,15.983791 C 5.9340947,15.912178 5.8322068,15.823311 5.7651499,15.71719 C 5.6980923,15.611072 5.6645637,15.492257 5.664564,15.360744 C 5.6645637,15.216215 5.7055793,15.081124 5.7876109,14.955471 C 5.8696416,14.829823 5.9894332,14.734445 6.1469859,14.669338 C 6.304537,14.604237 6.479667,14.571685 6.6723765,14.571682 C 6.8846146,14.571685 7.0717888,14.605865 7.2338999,14.674221 C 7.3960073,14.742583 7.5206816,14.843169 7.6079234,14.975979 C 7.6951606,15.108794 7.7420356,15.259184 7.7485484,15.427151 L 7.3852671,15.454494 C 7.3657339,15.273507 7.2996532,15.136788 7.1870249,15.044338 C 7.074393,14.951893 6.908052,14.905669 6.6880015,14.905666 C 6.4588337,14.905669 6.2918417,14.947661 6.1870249,15.031643 C 6.0822065,15.11563 6.0297977,15.216867 6.0297984,15.335354 C 6.0297977,15.43822 6.066907,15.522856 6.1411265,15.58926 C 6.2140423,15.655668 6.4044718,15.723702 6.7124155,15.793362 C 7.0203566,15.863025 7.2316194,15.923897 7.3462046,15.975979 C 7.5128691,16.052803 7.6359159,16.150134 7.7153452,16.267971 C 7.7947699,16.385811 7.8344834,16.521553 7.8344859,16.675198 C 7.8344834,16.827542 7.7908636,16.971097 7.7036265,17.105862 C 7.6163847,17.240628 7.4910593,17.345445 7.3276499,17.420315 C 7.1642367,17.495185 6.9803176,17.532619 6.7758921,17.532619 C 6.5167764,17.532619 6.2996542,17.494859 6.1245249,17.419338 C 5.9493941,17.343818 5.8120245,17.230211 5.7124155,17.078518 C 5.6128059,16.926826 5.5603971,16.755276 5.555189,16.563869 L 5.555189,16.563869 z M 9.1743296,17.483791 L 8.0649546,14.62051 L 8.4751109,14.62051 L 9.2192515,16.700588 C 9.2791461,16.867256 9.3292762,17.023505 9.3696421,17.169338 C 9.4139116,17.013089 9.4653438,16.856839 9.523939,16.700588 L 10.297377,14.62051 L 10.684096,14.62051 L 9.5630015,17.483791 L 9.1743296,17.483791 z M 12.367689,16.360744 L 12.367689,16.024807 L 13.58058,16.022854 L 13.58058,17.085354 C 13.394379,17.233792 13.202322,17.345445 13.004408,17.420315 C 12.806489,17.495185 12.603364,17.532619 12.395033,17.532619 C 12.113782,17.532619 11.858248,17.472398 11.628431,17.351955 C 11.398613,17.231513 11.225111,17.057359 11.107924,16.829494 C 10.990736,16.601631 10.932142,16.347074 10.932142,16.065823 C 10.932142,15.787178 10.99041,15.527088 11.106947,15.285549 C 11.223483,15.044015 11.391126,14.864653 11.609877,14.747463 C 11.828626,14.630279 12.080579,14.571685 12.365736,14.571682 C 12.572766,14.571685 12.75994,14.605214 12.92726,14.672268 C 13.094575,14.739328 13.22576,14.832752 13.320814,14.952541 C 13.415864,15.072335 13.488129,15.228585 13.537611,15.421291 L 13.195814,15.515041 C 13.152843,15.36921 13.099458,15.254627 13.035658,15.171291 C 12.971854,15.08796 12.880708,15.021229 12.762221,14.971096 C 12.643729,14.920968 12.512219,14.895903 12.367689,14.895901 C 12.194511,14.895903 12.044771,14.92227 11.918471,14.975002 C 11.792167,15.027739 11.690279,15.097075 11.612806,15.18301 C 11.535332,15.26895 11.47511,15.363351 11.432142,15.466213 C 11.359225,15.643298 11.322767,15.835356 11.322767,16.042385 C 11.322767,16.297595 11.366712,16.511136 11.454603,16.68301 C 11.542493,16.854886 11.670423,16.98249 11.838392,17.065823 C 12.00636,17.149156 12.184745,17.190823 12.373549,17.190823 C 12.537609,17.190823 12.697765,17.159247 12.854017,17.096096 C 13.010265,17.032945 13.128755,16.965563 13.209486,16.893948 L 13.209486,16.360744 L 12.367689,16.360744 z M 15.311049,17.483791 L 15.311049,14.62051 L 15.689955,14.62051 L 15.689955,17.483791 L 15.311049,17.483791 z M 16.311049,17.483791 L 16.311049,15.409573 L 16.625502,15.409573 L 16.625502,15.700588 C 16.690605,15.599028 16.777194,15.517322 16.885267,15.455471 C 16.993339,15.393624 17.116386,15.3627 17.254408,15.362698 C 17.408053,15.3627 17.534029,15.394601 17.632338,15.458401 C 17.730643,15.522205 17.799979,15.611397 17.840346,15.725979 C 18.004406,15.483793 18.217948,15.3627 18.480971,15.362698 C 18.686697,15.3627 18.8449,15.419666 18.95558,15.533596 C 19.066254,15.64753 19.121592,15.822986 19.121596,16.059963 L 19.121596,17.483791 L 18.771986,17.483791 L 18.771986,16.177151 C 18.771983,16.036527 18.76059,15.93529 18.737806,15.87344 C 18.715017,15.811593 18.673676,15.761788 18.613783,15.724026 C 18.553885,15.686267 18.483572,15.667387 18.402846,15.667385 C 18.25701,15.667387 18.135916,15.715889 18.039564,15.812893 C 17.943208,15.9099 17.895031,16.065173 17.895033,16.278713 L 17.895033,17.483791 L 17.543471,17.483791 L 17.543471,16.136135 C 17.543469,15.979887 17.514823,15.862699 17.457533,15.784573 C 17.40024,15.706449 17.30649,15.667387 17.176283,15.667385 C 17.077324,15.667387 16.985852,15.693429 16.901869,15.74551 C 16.817884,15.797595 16.757011,15.873767 16.719252,15.974026 C 16.681491,16.074288 16.662611,16.218819 16.662611,16.407619 L 16.662611,17.483791 L 16.311049,17.483791 z M 21.000502,17.227932 C 20.870292,17.338609 20.744967,17.416734 20.624525,17.462307 C 20.504081,17.50788 20.37485,17.530666 20.23683,17.530666 C 20.008965,17.530666 19.833835,17.475002 19.711439,17.363674 C 19.589043,17.252346 19.527845,17.110094 19.527846,16.936916 C 19.527845,16.835355 19.550957,16.742581 19.597181,16.658596 C 19.643405,16.574613 19.703952,16.50723 19.778822,16.456448 C 19.853691,16.405667 19.938001,16.367256 20.031752,16.341213 C 20.100761,16.322985 20.204928,16.305407 20.344252,16.288479 C 20.628105,16.254626 20.837089,16.214261 20.971205,16.167385 C 20.972505,16.119209 20.973156,16.08861 20.973158,16.075588 C 20.973156,15.932361 20.939953,15.831449 20.873549,15.772854 C 20.783704,15.693429 20.65024,15.653715 20.473158,15.653713 C 20.307793,15.653715 20.185722,15.682686 20.106947,15.740627 C 20.02817,15.798572 19.969902,15.901111 19.932142,16.048244 L 19.588392,16.001369 C 19.619642,15.854236 19.671074,15.735421 19.742689,15.644924 C 19.814303,15.554431 19.917819,15.48477 20.053236,15.43594 C 20.188652,15.387114 20.345553,15.3627 20.523939,15.362698 C 20.701021,15.3627 20.844901,15.383533 20.95558,15.425198 C 21.066255,15.466866 21.147635,15.519275 21.199721,15.582424 C 21.251802,15.645577 21.28826,15.72533 21.309096,15.821682 C 21.320812,15.881579 21.326672,15.989652 21.326674,16.145901 L 21.326674,16.614651 C 21.326672,16.941474 21.334159,17.14818 21.349135,17.234768 C 21.364107,17.321357 21.393729,17.404364 21.438002,17.483791 L 21.070814,17.483791 C 21.034354,17.410875 21.010917,17.325588 21.000502,17.227932 L 21.000502,17.227932 z M 20.971205,16.442776 C 20.843599,16.49486 20.652193,16.539131 20.396986,16.575588 C 20.252454,16.596422 20.150241,16.61986 20.090346,16.645901 C 20.030449,16.671943 19.984225,16.710029 19.951674,16.760159 C 19.919121,16.810289 19.902845,16.865953 19.902846,16.927151 C 19.902845,17.020901 19.938327,17.099026 20.009291,17.161526 C 20.080254,17.224026 20.184095,17.255276 20.320814,17.255276 C 20.45623,17.255276 20.576672,17.225654 20.682142,17.166409 C 20.78761,17.107164 20.865084,17.02611 20.914564,16.923244 C 20.952323,16.843818 20.971203,16.726631 20.971205,16.571682 L 20.971205,16.442776 z M 21.809096,17.655666 L 22.150892,17.706448 C 22.165215,17.811916 22.204928,17.888739 22.270033,17.936916 C 22.357272,18.00202 22.476412,18.034572 22.627455,18.034573 C 22.790214,18.034572 22.915865,18.00202 23.004408,17.936916 C 23.092948,17.871812 23.152844,17.780666 23.184096,17.663479 C 23.202323,17.591864 23.210787,17.441474 23.209486,17.212307 C 23.055839,17.393297 22.864433,17.483791 22.635267,17.483791 C 22.35011,17.483791 22.129408,17.380927 21.973158,17.175198 C 21.816908,16.969469 21.738783,16.722724 21.738783,16.434963 C 21.738783,16.237048 21.77459,16.054431 21.846205,15.887112 C 21.917819,15.719796 22.02166,15.590564 22.157728,15.499416 C 22.293795,15.408273 22.453626,15.3627 22.637221,15.362698 C 22.882011,15.3627 23.083834,15.461658 23.242689,15.659573 L 23.242689,15.409573 L 23.566908,15.409573 L 23.566908,17.202541 C 23.566906,17.525458 23.534029,17.754299 23.468275,17.889065 C 23.402518,18.02383 23.298352,18.130275 23.155775,18.208401 C 23.013196,18.286525 22.83774,18.325587 22.629408,18.325588 C 22.382011,18.325587 22.182142,18.269923 22.029799,18.158596 C 21.877455,18.047267 21.803887,17.879624 21.809096,17.655666 L 21.809096,17.655666 z M 22.100111,16.409573 C 22.100111,16.681709 22.154147,16.880276 22.262221,17.005276 C 22.370293,17.130276 22.505709,17.192776 22.668471,17.192776 C 22.829928,17.192776 22.965344,17.130602 23.074721,17.006252 C 23.184094,16.881904 23.238781,16.686917 23.238783,16.421291 C 23.238781,16.167386 23.182466,15.97598 23.069838,15.847073 C 22.957206,15.718168 22.821464,15.653715 22.662611,15.653713 C 22.50636,15.653715 22.373548,15.717192 22.264174,15.844143 C 22.154798,15.971098 22.100111,16.159574 22.100111,16.409573 L 22.100111,16.409573 z M 25.520033,16.815823 L 25.883314,16.860744 C 25.826021,17.072984 25.719901,17.237698 25.564955,17.354885 C 25.410005,17.472073 25.212089,17.530666 24.971205,17.530666 C 24.667819,17.530666 24.427259,17.437242 24.249525,17.250393 C 24.071791,17.063544 23.982924,16.8015 23.982924,16.46426 C 23.982924,16.115303 24.072767,15.84447 24.252455,15.65176 C 24.432142,15.459054 24.665214,15.3627 24.951674,15.362698 C 25.229016,15.3627 25.455578,15.457101 25.631361,15.645901 C 25.80714,15.834704 25.895031,16.100329 25.895033,16.442776 C 25.895031,16.46361 25.89438,16.49486 25.89308,16.536526 L 24.346205,16.536526 C 24.359225,16.764391 24.423678,16.93887 24.539564,17.059963 C 24.655449,17.181057 24.79998,17.241604 24.973158,17.241604 C 25.102063,17.241604 25.212089,17.20775 25.303236,17.140041 C 25.39438,17.072333 25.466646,16.964261 25.520033,16.815823 L 25.520033,16.815823 z M 24.365736,16.247463 L 25.523939,16.247463 C 25.508313,16.072985 25.464042,15.942126 25.391127,15.854885 C 25.279146,15.71947 25.133964,15.651762 24.95558,15.65176 C 24.794121,15.651762 24.658379,15.705798 24.548353,15.813869 C 24.438327,15.921944 24.377454,16.066475 24.365736,16.247463 L 24.365736,16.247463 z "
     id="text3689"
     sodipodi:nodetypes="ccsssssssssssssssssccssssssssssssssccccccccccccccccssssssssssccsssssssssssccccccccccccssscssccccssssccccssssccccsssssssssssssccssssssccscccccssssssssccccsssscssssssccccsssscccsssssssccccssssssssccsssccccssscc" />
  <text
     xml:space="preserve"
     style="font-size:7.0008955px;font-style:normal;font-weight:normal;line-height:125%;fill:black;fill-opacity:1;stroke:none;stroke-width:1px;stroke-linecap:butt;stroke-linejoin:miter;stroke-opacity:1;font-family:Bitstream Vera Sans"
     x="3.7140355"
     y="22.8218"
     id="text1872"
     sodipodi:linespacing="125%"
     transform="scale(0.946846,1.056138)"><tspan
       sodipodi:role="line"
       id="tspan1874"
       x="3.7140355"
       y="22.8218"
       style="font-size:3.5004468px;font-style:normal;font-variant:normal;font-weight:normal;font-stretch:normal;text-align:start;line-height:125%;writing-mode:lr-tb;text-anchor:start;font-family:Arial" /><tspan
       sodipodi:role="line"
       x="3.7140355"
       y="27.197359"
       style="font-size:3.5004468px;font-style:normal;font-variant:normal;font-weight:normal;font-stretch:normal;text-align:start;line-height:125%;writing-mode:lr-tb;text-anchor:start;font-family:Arial"
       id="tspan1876">SVGSalamander</tspan><tspan
       sodipodi:role="line"
       x="3.7140355"
       y="31.572917"
       style="font-size:3.5004468px;font-style:normal;font-variant:normal;font-weight:normal;font-stretch:normal;text-align:start;line-height:125%;writing-mode:lr-tb;text-anchor:start;font-family:Arial"
       id="tspan1878" /></text>
  <text
     xml:space="preserve"
     style="font-size:3.87143707px;font-style:normal;font-weight:normal;fill:black;fill-opacity:1;stroke:none;stroke-width:1px;stroke-linecap:butt;stroke-linejoin:miter;stroke-opacity:1;font-family:Bitstream Vera Sans"
     x="9.3145838"
     y="22.936193"
     id="text2794"
     transform="scale(0.981186,1.019175)"><tspan
       sodipodi:role="line"
       id="tspan2796"
       x="9.3145838"
       y="22.936193">with the</tspan></text>
  <text
     xml:space="preserve"
     style="font-size:3.46028996px;font-style:normal;font-weight:normal;fill:#ac9393;fill-opacity:1;stroke:none;stroke-width:1px;stroke-linecap:butt;stroke-linejoin:miter;stroke-opacity:1;font-family:Bitstream Vera Sans"
     x="8.6630297"
     y="31.94486"
     id="text2798"
     transform="scale(0.930743,1.074411)"><tspan
       sodipodi:role="line"
       id="tspan2800"
       x="8.6630297"
       y="31.94486"
       style="fill:black">component</tspan></text>
</svg>
