<?xml version="1.0" encoding="UTF-8" standalone="no"?>
<!-- Created with Inkscape (http://www.inkscape.org/) -->
<svg
   xmlns:dc="http://purl.org/dc/elements/1.1/"
   xmlns:cc="http://web.resource.org/cc/"
   xmlns:rdf="http://www.w3.org/1999/02/22-rdf-syntax-ns#"
   xmlns:svg="http://www.w3.org/2000/svg"
   xmlns="http://www.w3.org/2000/svg"
   xmlns:sodipodi="http://inkscape.sourceforge.net/DTD/sodipodi-0.dtd"
   xmlns:inkscape="http://www.inkscape.org/namespaces/inkscape"
   version="1.0"
   x="0.00000000"
   y="0.00000000"
   width="83.750000"
   height="125.00000"
   id="svg1310"
   sodipodi:version="0.32"
   inkscape:version="0.42"
   sodipodi:docname="image.svg"
   sodipodi:docbase="C:\Dokumente und Einstellungen\Homer\Desktop\VS Logic\Package\Elements\2.0\Seg7\bin">
  <metadata
     id="metadata14">
    <rdf:RDF>
      <cc:Work
         rdf:about="">
        <dc:format>image/svg+xml</dc:format>
        <dc:type
           rdf:resource="http://purl.org/dc/dcmitype/StillImage" />
      </cc:Work>
    </rdf:RDF>
  </metadata>
  <sodipodi:namedview
     inkscape:window-height="975"
     inkscape:window-width="1280"
     inkscape:pageshadow="2"
     inkscape:pageopacity="0.0"
     borderopacity="1.0"
     bordercolor="#666666"
     pagecolor="#ffffff"
     id="base"
     inkscape:zoom="2.7520000"
     inkscape:cx="41.875000"
     inkscape:cy="62.500000"
     inkscape:window-x="-4"
     inkscape:window-y="-4"
     inkscape:current-layer="svg1310" />
  <defs
     id="defs1312" />
  <path
     style="fill:#000000;fill-opacity:1.0000000;stroke:#000000;stroke-width:1.0000000;stroke-miterlimit:4.0000000;stroke-opacity:1.0000000"
     d="M 0.36337209,-1.4210855e-014 L 83.212211,-1.4210855e-014 L 83.212211,125.00000 L 0.36337209,125.00000 L 0.36337209,-1.4210855e-014 z "
     id="rect3559" />
  <path
     style="fill:#2e2c2b;fill-opacity:1.0000000;fill-rule:evenodd;stroke:#000000;stroke-width:1.0000000px;stroke-linecap:butt;stroke-linejoin:miter;stroke-opacity:1.0000000"
     d="M 7.3513422,9.0084635 L 1.1805612,14.847478 L 1.1245512,56.866617 L 7.4126192,63.298909 L 13.554934,56.144897 L 13.838110,15.127574 L 7.3513422,9.0084635 z "
     id="path2076" />
  <path
     style="fill:#2e2c2b;fill-opacity:1.0000000;fill-rule:evenodd;stroke:#000000;stroke-width:1.0000000px;stroke-linecap:butt;stroke-linejoin:miter;stroke-opacity:1.0000000"
     d="M 8.4985422,7.9147245 L 14.187446,13.342117 L 57.104327,13.394420 L 63.720442,7.1444195 L 56.808459,1.2732265 L 14.068611,1.4428245 L 8.4985422,7.9147245 z "
     id="path2078" />
  <path
     style="fill:#2e2c2b;fill-opacity:1.0000000;fill-rule:evenodd;stroke:#000000;stroke-width:1.0000000px;stroke-linecap:butt;stroke-linejoin:miter;stroke-opacity:1.0000000"
     d="M 65.249108,7.9687595 L 59.078332,13.807774 L 59.022313,55.826913 L 65.310385,62.259209 L 71.452700,55.105193 L 71.735876,14.087870 L 65.249108,7.9687595 z "
     id="path2080" />
  <path
     style="fill:#2e2c2b;fill-opacity:1.0000000;fill-rule:evenodd;stroke:#000000;stroke-width:1.0000000px;stroke-linecap:butt;stroke-linejoin:miter;stroke-opacity:1.0000000"
     d="M 7.1653372,64.032229 L 0.99456116,69.871239 L 0.93854116,111.89037 L 7.2266142,118.32266 L 13.368929,111.16865 L 13.652105,70.151339 L 7.1653372,64.032229 z "
     id="path2082" />
  <path
     style="fill:#2e2c2b;fill-opacity:1.0000000;fill-rule:evenodd;stroke:#000000;stroke-width:1.0000000px;stroke-linecap:butt;stroke-linejoin:miter;stroke-opacity:1.0000000"
     d="M 65.249108,64.158499 L 59.078332,69.997509 L 59.022313,112.01664 L 65.310385,118.44893 L 71.452700,111.29492 L 71.735876,70.277609 L 65.249108,64.158499 z "
     id="path2084" />
  <path
     style="fill:#2e2c2b;fill-opacity:1.0000000;fill-rule:evenodd;stroke:#000000;stroke-width:1.0000000px;stroke-linecap:butt;stroke-linejoin:miter;stroke-opacity:1.0000000"
     d="M 9.1682002,63.720279 L 14.857104,69.021399 L 57.989539,68.947429 L 64.263831,63.202509 L 57.478117,56.952507 L 14.864538,57.270033 L 9.1682002,63.720279 z "
     id="path2086" />
  <path
     style="fill:#2e2c2b;fill-opacity:1.0000000;fill-rule:evenodd;stroke:#000000;stroke-width:1.0000000px;stroke-linecap:butt;stroke-linejoin:miter;stroke-opacity:1.0000000"
     d="M 8.6631252,119.02612 L 14.478298,124.45351 L 57.253591,124.29025 L 63.885025,119.13970 L 57.099311,112.38462 L 14.359463,112.70215 L 8.6631252,119.02612 z "
     id="path2088" />
  <path
     style="fill:#f40000;fill-opacity:1.0000000;fill-rule:evenodd;stroke:#000000;stroke-width:1.0000000px;stroke-linecap:butt;stroke-linejoin:miter;stroke-opacity:1.0000000"
     d="M 7.5901097,9.0999554 L 1.4193337,14.938970 L 1.3633147,56.958109 L 7.6513867,63.390401 L 13.793702,56.236389 L 14.076878,15.219066 L 7.5901097,9.0999554 z "
     id="f" />
  <path
     style="fill:#e90000;fill-opacity:1.0000000;fill-rule:evenodd;stroke:#000000;stroke-width:1.0000000px;stroke-linecap:butt;stroke-linejoin:miter;stroke-opacity:1.0000000"
     d="M 8.7373097,8.0062164 L 14.426214,13.433609 L 57.343095,13.485912 L 63.959210,7.2359114 L 57.047227,1.3647184 L 14.307379,1.5343164 L 8.7373097,8.0062164 z "
     id="a" />
  <path
     style="fill:#f40000;fill-opacity:1.0000000;fill-rule:evenodd;stroke:#000000;stroke-width:1.0000000px;stroke-linecap:butt;stroke-linejoin:miter;stroke-opacity:1.0000000"
     d="M 65.487876,8.0602514 L 59.317100,13.899266 L 59.261081,55.918405 L 65.549153,62.350701 L 71.691468,55.196685 L 71.974644,14.179362 L 65.487876,8.0602514 z "
     id="b" />
  <path
     style="fill:#f40000;fill-opacity:1.0000000;fill-rule:evenodd;stroke:#000000;stroke-width:1.0000000px;stroke-linecap:butt;stroke-linejoin:miter;stroke-opacity:1.0000000"
     d="M 7.4041047,64.123721 L 1.2333287,69.962731 L 1.1773097,111.98187 L 7.4653817,118.41416 L 13.607697,111.26015 L 13.890873,70.242831 L 7.4041047,64.123721 z "
     id="e" />
  <path
     style="fill:#f40000;fill-opacity:1.0000000;fill-rule:evenodd;stroke:#000000;stroke-width:1.0000000px;stroke-linecap:butt;stroke-linejoin:miter;stroke-opacity:1.0000000"
     d="M 65.487876,64.249991 L 59.317100,70.089001 L 59.261081,112.10814 L 65.549153,118.54043 L 71.691468,111.38642 L 71.974644,70.369101 L 65.487876,64.249991 z "
     id="c" />
  <path
     style="fill:#e90000;fill-opacity:1.0000000;fill-rule:evenodd;stroke:#000000;stroke-width:1.0000000px;stroke-linecap:butt;stroke-linejoin:miter;stroke-opacity:1.0000000"
     d="M 9.4069677,63.811771 L 15.095872,69.112891 L 58.228307,69.038921 L 64.502599,63.294001 L 57.716885,57.043999 L 15.103306,57.361525 L 9.4069677,63.811771 z "
     id="g" />
  <path
     style="fill:#e90000;fill-opacity:1.0000000;fill-rule:evenodd;stroke:#000000;stroke-width:1.0000000px;stroke-linecap:butt;stroke-linejoin:miter;stroke-opacity:1.0000000"
     d="M 8.9018927,119.11762 L 14.717066,124.54501 L 57.492359,124.38175 L 64.123793,119.23120 L 57.338079,112.47612 L 14.598231,112.79365 L 8.9018927,119.11762 z "
     id="d" />
  <path
     style="fill:#ff0000;fill-opacity:1.0000000;stroke:#000000;stroke-width:0.46715799;stroke-miterlimit:4.0000000;stroke-opacity:1.0000000"
     d="M 83.309389,118.66923 C 83.309389,121.53461 80.983862,123.86014 78.118480,123.86014 C 75.253098,123.86014 72.927571,121.53461 72.927571,118.66923 C 72.927571,115.80384 75.253098,113.47832 78.118480,113.47832 C 80.983862,113.47832 83.309389,115.80384 83.309389,118.66923 z "
     id="point" />
</svg>
