<?xml version="1.0" encoding="UTF-8" standalone="no"?>
<!-- Created with Inkscape (http://www.inkscape.org/) -->
<svg
   xmlns:svg="http://www.w3.org/2000/svg"
   xmlns="http://www.w3.org/2000/svg"
   version="1.0"
   width="637.79523"
   height="637.79987"
   id="svg3132">
  <defs
     id="defs3134" />
  <g
     transform="translate(-121.1511,-167.6958)"
     id="layer1">
    <g
       transform="matrix(4.675013,0,0,4.675013,-1353.75,-678.4329)"
       style="fill-rule:evenodd"
       id="_189263792">
   <rect
   width="136.42599"
   height="136.42599"
   x="315.48599"
   y="180.991"
   style="fill:#f90"
   id="_151141056" />

   <rect
   width="68.215401"
   height="68.003899"
   x="383.69699"
   y="249.205"
   style="fill:#de8500"
   id="_151140504" />

   <rect
   width="68.215401"
   height="68.215401"
   x="315.487"
   y="180.99001"
   style="fill:#ffb13b"
   id="_151140120" />

   <g
   id="g107">
    <circle
   cx="340.75699"
   cy="249.099"
   r="25.0634"
   style="fill:#f90"
   id="_151139416" />

    <circle
   cx="0"
   cy="0"
   r="1658.51"
   transform="matrix(1.06858e-2,1.06858e-2,-1.06858e-2,1.06858e-2,353.365,218.661)"
   style="fill:#f90"
   id="_151137016" />

    <circle
   cx="0"
   cy="0"
   r="1658.51"
   transform="matrix(0,1.5112e-2,-1.5112e-2,0,383.803,206.053)"
   style="fill:#f90"
   id="_151136448" />

    <circle
   cx="0"
   cy="0"
   r="1658.51"
   transform="matrix(-1.06858e-2,1.06858e-2,-1.06858e-2,-1.06858e-2,414.241,218.661)"
   style="fill:#f90"
   id="_151135880" />

    <circle
   cx="426.849"
   cy="249.099"
   r="25.0634"
   style="fill:#f90"
   id="_151135312" />

    <circle
   cx="0"
   cy="0"
   r="1658.51"
   transform="matrix(-1.06858e-2,-1.06858e-2,1.06858e-2,-1.06858e-2,414.241,279.538)"
   style="fill:#f90"
   id="_151134744" />

    <circle
   cx="0"
   cy="0"
   r="1658.51"
   transform="matrix(0,-1.5112e-2,1.5112e-2,0,383.803,292.146)"
   style="fill:#f90"
   id="_151134176" />

    <circle
   cx="0"
   cy="0"
   r="1658.51"
   transform="matrix(1.06858e-2,-1.06858e-2,1.06858e-2,1.06858e-2,353.365,279.538)"
   style="fill:#f90"
   id="_151038344" />

   </g>

   <path
   d="M 401.634,206.051 C 401.634,196.20667 393.64775,188.2204 383.8034,188.2204 C 373.95907,188.2204 365.9728,196.20665 365.9728,206.051 C 359.00875,199.09199 347.7192,199.09199 340.7552,206.051 C 333.79619,213.01505 333.79619,224.3046 340.7552,231.2686 C 330.91087,231.2686 322.9246,239.25485 322.9246,249.0992 C 322.9246,258.94353 330.91085,266.9298 340.7552,266.9298 C 333.79619,273.89385 333.79619,285.1834 340.7552,292.1474 C 347.71925,299.10641 359.0088,299.10641 365.9728,292.1474 C 365.9728,301.99173 373.95905,309.978 383.8034,309.978 C 393.64773,309.978 401.634,301.99175 401.634,292.1474 C 408.59805,299.10641 419.8876,299.10641 426.8516,292.1474 C 433.81061,285.18335 433.81061,273.8938 426.8516,266.9298 C 436.69593,266.9298 444.6771,258.94355 444.6771,249.0992 C 444.6771,239.25487 436.69589,231.2686 426.8516,231.2686 C 433.81061,224.30455 433.81061,213.015 426.8516,206.051 C 419.88755,199.09199 408.598,199.09199 401.634,206.051 z "
   style="fill:black"
   id="_151038768" />

   <path
   d="M 390.626,212.879 L 390.626,232.6231 L 404.5893,218.6598 C 404.5893,216.19242 405.53093,213.72001 407.4142,211.83675 C 411.18576,208.06519 417.29882,208.06519 421.0653,211.83675 C 424.83686,215.60328 424.83686,221.71633 421.0653,225.48785 C 419.18204,227.37111 416.70962,228.31275 414.24225,228.31275 L 400.27895,242.27605 L 420.02305,242.27605 C 421.77036,240.52874 424.18234,239.44612 426.85114,239.44612 C 432.17866,239.44612 436.49909,243.77158 436.49909,249.0991 C 436.49909,254.42662 432.17866,258.75208 426.85114,258.75208 C 424.18234,258.75208 421.77036,257.66946 420.02305,255.92215 L 400.27895,255.92215 L 414.24225,269.88545 C 416.70963,269.88545 419.18204,270.82708 421.0653,272.71035 C 424.83686,276.48191 424.83686,282.59497 421.0653,286.36145 C 417.29877,290.13301 411.18572,290.13301 407.4142,286.36145 C 405.53094,284.47819 404.5893,282.00577 404.5893,279.5384 L 390.626,265.5751 L 390.626,285.3192 C 392.37331,287.06651 393.45593,289.47849 393.45593,292.14729 C 393.45593,297.47481 389.13047,301.79524 383.80295,301.79524 C 378.47543,301.79524 374.14997,297.47481 374.14997,292.14729 C 374.14997,289.47849 375.23259,287.06651 376.9799,285.3192 L 376.9799,265.5751 L 363.0166,279.5384 C 363.0166,282.00578 362.07497,284.47819 360.1917,286.36145 C 356.42014,290.13301 350.30708,290.13301 346.5406,286.36145 C 342.76904,282.59492 342.76904,276.48187 346.5406,272.71035 C 348.42386,270.82709 350.89628,269.88545 353.36365,269.88545 L 367.32695,255.92215 L 347.58285,255.92215 C 345.83554,257.66946 343.42356,258.75208 340.75476,258.75208 C 335.42724,258.75208 331.10681,254.42662 331.10681,249.0991 C 331.10681,243.77158 335.42724,239.44612 340.75476,239.44612 C 343.42356,239.44612 345.83554,240.52874 347.58285,242.27605 L 367.32695,242.27605 L 353.36365,228.31275 C 350.89627,228.31275 348.42386,227.37112 346.5406,225.48785 C 342.76904,221.71629 342.76904,215.60323 346.5406,211.83675 C 350.30713,208.06519 356.42018,208.06519 360.1917,211.83675 C 362.07496,213.72001 363.0166,216.19243 363.0166,218.6598 L 376.9799,232.6231 L 376.9799,212.879 C 375.23259,211.13169 374.14997,208.71971 374.14997,206.05091 C 374.14997,200.72339 378.47543,196.40296 383.80295,196.40296 C 389.13047,196.40296 393.45593,200.72339 393.45593,206.05091 C 393.45593,208.71971 392.37331,211.13169 390.626,212.879 z "
   style="fill:white"
   id="_151037224" />

   <rect
   width="121.742"
   height="60.770401"
   x="322.92899"
   y="249.203"
   style="fill:black"
   id="_151036536" />

   <rect
   width="121.742"
   height="26.6689"
   x="322.92899"
   y="283.30499"
   style="fill:black"
   id="_151035984" />

   <path
   d="M 335.689,254.84 L 432.9037,254.84 C 436.88675,254.84 440.13966,258.09291 440.13966,262.07596 L 440.13966,286.48286 C 402.57006,281.83513 365.32276,275.40986 328.45266,276.00406 L 328.45266,262.07596 C 328.45266,258.09291 331.70557,254.84 335.68862,254.84 L 335.689,254.84 z "
   style="fill:#3f3f3f"
   id="_151164400" />

   <polygon
   points="399.594,253.198 388.355,307.481 379.04,307.481 367.795,253.198 377.111,253.198 383.697,284.992 390.279,253.198 399.594,253.198 "
   style="fill:white;stroke:black;stroke-width:0.503546"
   id="_151164136" />

   <path
   d="M 415.496,275.682 L 431.398,275.682 L 431.398,291.579 L 431.398,291.579 C 431.398,300.36085 424.27785,307.481 415.501,307.481 C 406.71915,307.481 399.599,300.36085 399.599,291.579 L 399.599,291.579 L 399.599,269.0957 L 399.59396,269.0957 C 399.59396,260.31889 406.71411,253.1987 415.49596,253.1987 C 424.27781,253.1987 431.39796,260.31885 431.39796,269.0957 L 422.08235,269.0957 C 422.08235,265.46009 419.13157,262.51435 415.49596,262.51435 C 411.86035,262.51435 408.91461,265.4601 408.91461,269.0957 L 408.91461,291.579 L 408.91461,291.579 C 408.91461,295.21461 411.86036,298.16539 415.49596,298.16539 C 419.13157,298.16539 422.08235,295.21461 422.08235,291.58404 L 422.08235,291.579 L 422.08235,284.99765 L 415.49596,284.99765 L 415.49596,275.68204 L 415.496,275.682 z "
   style="fill:white;stroke:black;stroke-width:0.503546"
   id="_151163752" />

   <path
   d="M 340.654,280.339 C 337.77875,277.45871 335.9962,273.48573 335.9962,269.0948 C 335.9962,260.31295 343.11635,253.1978 351.8982,253.1978 C 360.67501,253.1978 367.7952,260.31291 367.7952,269.0948 L 358.48463,269.0948 C 358.48463,265.45919 355.53385,262.50841 351.89824,262.50841 C 348.26263,262.50841 345.31185,265.45919 345.31185,269.0948 C 345.31185,270.9126 346.04703,272.55416 347.2354,273.74757 L 347.24044,273.74757 C 348.43384,274.94097 350.08044,275.67615 351.89824,275.67615 L 351.89824,275.68119 C 356.28916,275.68119 360.26215,277.45871 363.13744,280.33899 L 363.13744,280.33899 C 366.01773,283.21424 367.79524,287.19226 367.79524,291.57819 C 367.79524,300.36004 360.67509,307.48019 351.89824,307.48019 C 343.11639,307.48019 335.99624,300.36004 335.99624,291.57819 L 345.31185,291.57819 C 345.31185,295.21883 348.26263,298.16458 351.89824,298.16458 C 355.53385,298.16458 358.48463,295.21883 358.48463,291.57819 C 358.48463,289.76542 357.74945,288.11883 356.55605,286.92542 L 356.55605,286.92542 C 355.36265,285.73705 353.71605,284.99684 351.89825,284.99684 L 351.89825,284.99684 C 347.50733,284.99684 343.53434,283.21429 340.65405,280.33904 L 340.65405,280.33904 L 340.654,280.339 z "
   style="fill:white;stroke:black;stroke-width:0.503546"
   id="_151162704" />

  </g>
  </g>
</svg>
